/*
  C64 General MIDI Player (Interrupt Timing)
  Output: User Port RS-232 (Integrated KERNAL Driver, Device 2)
  Baud Rate: 2400 (Max supported by standard KERNAL)
  Platform: 8bitworkshop (C64 / cc65)
*/

#include <c64.h>
#include <6502.h>
#include <string.h>
#include <stdio.h>
#include <cbm.h>

/* -------------------------------------------------------------------------
   HARDWARE & MACROS
   ------------------------------------------------------------------------- */

/* CIA1 Registers for Timer A (Music Timing) */
#define CIA1_TA_LO (*(volatile unsigned char*)0xDC04)
#define CIA1_TA_HI (*(volatile unsigned char*)0xDC05)
#define CIA1_CRA   (*(volatile unsigned char*)0xDC0E)
#define CIA1_ICR   (*(volatile unsigned char*)0xDC0D)

/* Granularity: Number of MIDI ticks per Interrupt */
#define TICKS_PER_IRQ 4 

/* -------------------------------------------------------------------------
   TIMING STATE
   ------------------------------------------------------------------------- */
   
unsigned long mpqn = 500000; 
unsigned int ppqn = 96;      
volatile unsigned long master_tick = 0; 

/* Interrupt Handler (Called by IRQ) */
unsigned char irq_handler2(void) {
    /* Check if Timer A generated the interrupt */
    if (CIA1_ICR & 0x01) {
        master_tick += TICKS_PER_IRQ;
        return IRQ_HANDLED;
    }
    return IRQ_NOT_HANDLED;
}

void recalc_timing() {
    /* 
       Calculate Timer Latch.
       CyclesPerTick = MPQN / PPQN (approx 1us/cycle).
       Latch = CyclesPerTick * TICKS_PER_IRQ.
    */
    unsigned long cycles_per_tick = mpqn / ppqn;
    unsigned long total_cycles = cycles_per_tick * TICKS_PER_IRQ;
    unsigned int latch;

    /* Safety clamp */
    if (total_cycles < 2000) total_cycles = 2000; 
    if (total_cycles > 65535L) total_cycles = 65535L;
    
    latch = (unsigned int)total_cycles;

    /* Update hardware registers atomically */
    __asm__("sei");
    CIA1_TA_LO = latch & 0xFF;
    CIA1_TA_HI = latch >> 8;
    __asm__("cli");
}

/* Helper to read volatile long safely */
unsigned long get_master_tick() {
    unsigned long t;
    __asm__("sei");
    t = master_tick;
    __asm__("cli");
    return t;
}

/* -------------------------------------------------------------------------
   RS-232 OUTPUT
   ------------------------------------------------------------------------- */

void rs232_init() {
  	int error=0;
    /* 
       The KERNAL RS-232 routines require two 256-byte buffers.
       We assign them to free memory at $C000 and $C100.
       Address 0x00F7 = Pointer to Input Buffer
       Address 0x00F9 = Pointer to Output Buffer
    */
    *(volatile unsigned char**)0x00F7 = (unsigned char*)0xC000;
    *(volatile unsigned char**)0x00F9 = (unsigned char*)0xC100;

    /* 
       Open Logical File 2, Device 2 (RS-232), Secondary Address 0.
       Control String: "\010"
         Bit 0-3 (Baud): 1000 (8 decimal) = 2400 Baud.
         Bit 5-6 (Word): 00 = 8 bits.
         Bit 7 (Stop): 0 = 1 stop bit.
         Total: 0x08 (8N1 @ 2400)
    */
    if (error=cbm_open(2, 2, 0, "\x0A") != 0) {
        printf("RS232 ERROR, %d\n",error);
    }
}

void rs232_send(unsigned char b) {
    cbm_k_bsout(b);
}

/* -------------------------------------------------------------------------
   MIDI PARSER
   ------------------------------------------------------------------------- */

#define MAX_TRACKS 20

typedef struct {
    const unsigned char* ptr;
    unsigned char running_status;
    unsigned long absolute_event_time; 
    unsigned char finished;
} Track;

Track tracks[MAX_TRACKS];
unsigned char num_tracks = 0;

const unsigned char midi_file[] = {
    /* Example MIDI Data (C Major Arp) */
  0x4d, 0x54, 0x68, 0x64, 0x00, 0x00, 0x00, 0x06, 0x00, 0x01, 0x00, 0x10, 0x01, 0x80, 0x4d, 0x54, 
  0x72, 0x6b, 0x00, 0x00, 0x00, 0x5d, 0x00, 0xff, 0x03, 0x08, 0x46, 0x6c, 0x6f, 0x75, 0x72, 0x69, 
  0x73, 0x68, 0x00, 0xff, 0x02, 0x1b, 0xa9, 0x32, 0x30, 0x30, 0x30, 0x20, 0x4d, 0x69, 0x63, 0x72, 
  0x6f, 0x73, 0x6f, 0x66, 0x74, 0x20, 0x43, 0x6f, 0x72, 0x70, 0x6f, 0x72, 0x61, 0x74, 0x69, 0x6f, 
  0x6e, 0x00, 0xff, 0x01, 0x0c, 0x4e, 0x61, 0x74, 0x68, 0x61, 0x6e, 0x20, 0x47, 0x72, 0x69, 0x67, 
  0x67, 0x00, 0xff, 0x58, 0x04, 0x07, 0x03, 0x0c, 0x08, 0x00, 0xff, 0x59, 0x02, 0x00, 0x00, 0x00, 
  0xff, 0x51, 0x03, 0x07, 0xa1, 0x20, 0x83, 0x84, 0x40, 0xff, 0x51, 0x03, 0x07, 0xa1, 0x20, 0x00, 
  0xff, 0x2f, 0x00, 0x4d, 0x54, 0x72, 0x6b, 0x00, 0x00, 0x07, 0x71, 0x00, 0xff, 0x03, 0x04, 0x57, 
  0x61, 0x72, 0x6d, 0x00, 0xc0, 0x59, 0x00, 0xb0, 0x07, 0x4c, 0x00, 0x0a, 0x40, 0x00, 0x79, 0x00, 
  0x00, 0x5b, 0x28, 0x00, 0x5d, 0x14, 0x8a, 0x40, 0x01, 0x00, 0x00, 0xe0, 0x00, 0x40, 0x00, 0x90, 
  0x4a, 0x7f, 0x00, 0x46, 0x7f, 0x00, 0x41, 0x7f, 0x83, 0x18, 0xe0, 0x2a, 0x55, 0x08, 0x3a, 0x75, 
  0x09, 0x7f, 0x7f, 0x34, 0x3f, 0x7e, 0x06, 0x34, 0x69, 0x0a, 0x45, 0x4b, 0x0a, 0x60, 0x40, 0x06, 
  0x00, 0x40, 0x4d, 0x0f, 0x5e, 0x08, 0x7e, 0x7d, 0x09, 0x7f, 0x7f, 0x82, 0x71, 0x18, 0x71, 0x00, 
  0x29, 0x53, 0x06, 0x01, 0x42, 0x09, 0x00, 0x40, 0x82, 0x63, 0x42, 0x45, 0x09, 0x32, 0x65, 0x08, 
  0x7f, 0x7f, 0x82, 0x69, 0x3a, 0x75, 0x12, 0x4a, 0x55, 0x0a, 0x00, 0x40, 0x82, 0x70, 0x6f, 0x5f, 
  0x05, 0x7f, 0x7f, 0x43, 0x7f, 0x7e, 0x08, 0x13, 0x66, 0x0b, 0x03, 0x47, 0x06, 0x00, 0x40, 0x5a, 
  0x24, 0x49, 0x08, 0x34, 0x69, 0x08, 0x7f, 0x7f, 0x82, 0x61, 0x7f, 0x67, 0x10, 0x7f, 0x57, 0x10, 
  0x00, 0x40, 0x82, 0x70, 0x2a, 0x55, 0x08, 0x3a, 0x75, 0x09, 0x7f, 0x7f, 0x34, 0x3f, 0x7e, 0x06, 
  0x34, 0x69, 0x0a, 0x45, 0x4b, 0x0a, 0x60, 0x40, 0x06, 0x00, 0x40, 0x4d, 0x0f, 0x5e, 0x08, 0x7e, 
  0x7d, 0x09, 0x7f, 0x7f, 0x82, 0x71, 0x29, 0x53, 0x00, 0x18, 0x71, 0x06, 0x01, 0x42, 0x09, 0x00, 
  0x40, 0x82, 0x63, 0x42, 0x45, 0x09, 0x32, 0x65, 0x08, 0x7f, 0x7f, 0x09, 0x90, 0x4a, 0x00, 0x00, 
  0x46, 0x00, 0x00, 0x41, 0x00, 0x82, 0x60, 0xe0, 0x3a, 0x75, 0x12, 0x4a, 0x55, 0x0a, 0x00, 0x40, 
  0x82, 0x70, 0x6f, 0x5f, 0x05, 0x7f, 0x7f, 0x43, 0x7f, 0x7e, 0x08, 0x13, 0x66, 0x0b, 0x03, 0x47, 
  0x06, 0x00, 0x40, 0x5a, 0x24, 0x49, 0x08, 0x34, 0x69, 0x08, 0x7f, 0x7f, 0x82, 0x51, 0x32, 0x7e, 
  0x10, 0x00, 0x40, 0x28, 0x90, 0x4b, 0x7f, 0x00, 0xe0, 0x00, 0x40, 0x00, 0x90, 0x46, 0x7f, 0x00, 
  0x41, 0x7f, 0x83, 0x18, 0xe0, 0x2a, 0x55, 0x08, 0x3a, 0x75, 0x09, 0x7f, 0x7f, 0x34, 0x3f, 0x7e, 
  0x06, 0x34, 0x69, 0x0a, 0x45, 0x4b, 0x0a, 0x60, 0x40, 0x06, 0x00, 0x40, 0x4d, 0x0f, 0x5e, 0x08, 
  0x7e, 0x7d, 0x09, 0x7f, 0x7f, 0x82, 0x71, 0x18, 0x71, 0x00, 0x29, 0x53, 0x06, 0x01, 0x42, 0x09, 
  0x00, 0x40, 0x82, 0x63, 0x42, 0x45, 0x09, 0x32, 0x65, 0x08, 0x7f, 0x7f, 0x82, 0x69, 0x3a, 0x75, 
  0x12, 0x4a, 0x55, 0x0a, 0x00, 0x40, 0x82, 0x70, 0x6f, 0x5f, 0x05, 0x7f, 0x7f, 0x43, 0x7f, 0x7e, 
  0x08, 0x13, 0x66, 0x0b, 0x03, 0x47, 0x06, 0x00, 0x40, 0x5a, 0x24, 0x49, 0x08, 0x34, 0x69, 0x08, 
  0x7f, 0x7f, 0x82, 0x61, 0x7f, 0x67, 0x10, 0x7f, 0x57, 0x10, 0x00, 0x40, 0x82, 0x70, 0x2a, 0x55, 
  0x08, 0x3a, 0x75, 0x09, 0x7f, 0x7f, 0x34, 0x3f, 0x7e, 0x06, 0x34, 0x69, 0x0a, 0x45, 0x4b, 0x0a, 
  0x60, 0x40, 0x06, 0x00, 0x40, 0x4d, 0x0f, 0x5e, 0x08, 0x7e, 0x7d, 0x09, 0x7f, 0x7f, 0x82, 0x71, 
  0x29, 0x53, 0x00, 0x18, 0x71, 0x06, 0x01, 0x42, 0x09, 0x00, 0x40, 0x82, 0x63, 0x42, 0x45, 0x09, 
  0x32, 0x65, 0x08, 0x7f, 0x7f, 0x09, 0x90, 0x4b, 0x00, 0x00, 0x46, 0x00, 0x00, 0x41, 0x00, 0x82, 
  0x60, 0xe0, 0x3a, 0x75, 0x12, 0x4a, 0x55, 0x0a, 0x00, 0x40, 0x82, 0x70, 0x6f, 0x5f, 0x05, 0x7f, 
  0x7f, 0x43, 0x7f, 0x7e, 0x08, 0x13, 0x66, 0x0b, 0x03, 0x47, 0x06, 0x00, 0x40, 0x5a, 0x24, 0x49, 
  0x08, 0x34, 0x69, 0x08, 0x7f, 0x7f, 0x82, 0x51, 0x32, 0x7e, 0x10, 0x00, 0x40, 0xe9, 0x28, 0xb0, 
  0x07, 0x50, 0x00, 0xe0, 0x00, 0x40, 0x00, 0x90, 0x4a, 0x7f, 0x00, 0x46, 0x7f, 0x00, 0x41, 0x7f, 
  0x83, 0x18, 0xe0, 0x2a, 0x55, 0x08, 0x3a, 0x75, 0x09, 0x7f, 0x7f, 0x34, 0x3f, 0x7e, 0x06, 0x34, 
  0x69, 0x0a, 0x45, 0x4b, 0x0a, 0x60, 0x40, 0x06, 0x00, 0x40, 0x4d, 0x0f, 0x5e, 0x08, 0x7e, 0x7d, 
  0x09, 0x7f, 0x7f, 0x82, 0x71, 0x18, 0x71, 0x00, 0x29, 0x53, 0x06, 0x01, 0x42, 0x09, 0x00, 0x40, 
  0x82, 0x63, 0x42, 0x45, 0x09, 0x32, 0x65, 0x08, 0x7f, 0x7f, 0x82, 0x69, 0x3a, 0x75, 0x12, 0x4a, 
  0x55, 0x0a, 0x00, 0x40, 0x82, 0x70, 0x6f, 0x5f, 0x05, 0x7f, 0x7f, 0x43, 0x7f, 0x7e, 0x08, 0x13, 
  0x66, 0x0b, 0x03, 0x47, 0x06, 0x00, 0x40, 0x5a, 0x24, 0x49, 0x08, 0x34, 0x69, 0x08, 0x7f, 0x7f, 
  0x82, 0x61, 0x7f, 0x67, 0x10, 0x7f, 0x57, 0x10, 0x00, 0x40, 0x82, 0x70, 0x2a, 0x55, 0x08, 0x3a, 
  0x75, 0x09, 0x7f, 0x7f, 0x34, 0x3f, 0x7e, 0x06, 0x34, 0x69, 0x0a, 0x45, 0x4b, 0x0a, 0x60, 0x40, 
  0x06, 0x00, 0x40, 0x4d, 0x0f, 0x5e, 0x08, 0x7e, 0x7d, 0x09, 0x7f, 0x7f, 0x82, 0x71, 0x29, 0x53, 
  0x00, 0x18, 0x71, 0x06, 0x01, 0x42, 0x09, 0x00, 0x40, 0x82, 0x63, 0x42, 0x45, 0x09, 0x32, 0x65, 
  0x08, 0x7f, 0x7f, 0x09, 0x90, 0x4a, 0x00, 0x00, 0x46, 0x00, 0x00, 0x41, 0x00, 0x82, 0x60, 0xe0, 
  0x3a, 0x75, 0x12, 0x4a, 0x55, 0x0a, 0x00, 0x40, 0x82, 0x70, 0x6f, 0x5f, 0x05, 0x7f, 0x7f, 0x43, 
  0x7f, 0x7e, 0x08, 0x13, 0x66, 0x0b, 0x03, 0x47, 0x06, 0x00, 0x40, 0x5a, 0x24, 0x49, 0x08, 0x34, 
  0x69, 0x08, 0x7f, 0x7f, 0x82, 0x51, 0x32, 0x7e, 0x10, 0x00, 0x40, 0x28, 0x90, 0x4b, 0x7f, 0x00, 
  0xe0, 0x00, 0x40, 0x00, 0x90, 0x46, 0x7f, 0x00, 0x41, 0x7f, 0x83, 0x18, 0xe0, 0x2a, 0x55, 0x08, 
  0x3a, 0x75, 0x09, 0x7f, 0x7f, 0x34, 0x3f, 0x7e, 0x06, 0x34, 0x69, 0x0a, 0x45, 0x4b, 0x0a, 0x60, 
  0x40, 0x06, 0x00, 0x40, 0x4d, 0x0f, 0x5e, 0x08, 0x7e, 0x7d, 0x09, 0x7f, 0x7f, 0x82, 0x71, 0x18, 
  0x71, 0x00, 0x29, 0x53, 0x06, 0x01, 0x42, 0x09, 0x00, 0x40, 0x82, 0x63, 0x42, 0x45, 0x09, 0x32, 
  0x65, 0x08, 0x7f, 0x7f, 0x82, 0x69, 0x3a, 0x75, 0x12, 0x4a, 0x55, 0x0a, 0x00, 0x40, 0x82, 0x70, 
  0x6f, 0x5f, 0x05, 0x7f, 0x7f, 0x43, 0x7f, 0x7e, 0x08, 0x13, 0x66, 0x0b, 0x03, 0x47, 0x06, 0x00, 
  0x40, 0x5a, 0x24, 0x49, 0x08, 0x34, 0x69, 0x08, 0x7f, 0x7f, 0x82, 0x61, 0x7f, 0x67, 0x10, 0x7f, 
  0x57, 0x10, 0x00, 0x40, 0x82, 0x70, 0x2a, 0x55, 0x08, 0x3a, 0x75, 0x09, 0x7f, 0x7f, 0x34, 0x3f, 
  0x7e, 0x06, 0x34, 0x69, 0x0a, 0x45, 0x4b, 0x0a, 0x60, 0x40, 0x06, 0x00, 0x40, 0x4d, 0x0f, 0x5e, 
  0x08, 0x7e, 0x7d, 0x09, 0x7f, 0x7f, 0x82, 0x71, 0x29, 0x53, 0x00, 0x18, 0x71, 0x06, 0x01, 0x42, 
  0x09, 0x00, 0x40, 0x82, 0x63, 0x42, 0x45, 0x09, 0x32, 0x65, 0x08, 0x7f, 0x7f, 0x09, 0x90, 0x4b, 
  0x00, 0x00, 0x46, 0x00, 0x00, 0x41, 0x00, 0x82, 0x60, 0xe0, 0x3a, 0x75, 0x12, 0x4a, 0x55, 0x0a, 
  0x00, 0x40, 0x82, 0x70, 0x6f, 0x5f, 0x05, 0x7f, 0x7f, 0x43, 0x7f, 0x7e, 0x08, 0x13, 0x66, 0x0b, 
  0x03, 0x47, 0x06, 0x00, 0x40, 0x5a, 0x24, 0x49, 0x08, 0x34, 0x69, 0x08, 0x7f, 0x7f, 0x82, 0x51, 
  0x32, 0x7e, 0x10, 0x00, 0x40, 0x28, 0x00, 0x40, 0x00, 0x90, 0x43, 0x7f, 0x00, 0x48, 0x7f, 0x00, 
  0x4c, 0x7f, 0x83, 0x18, 0xe0, 0x2a, 0x55, 0x08, 0x3a, 0x75, 0x09, 0x7f, 0x7f, 0x34, 0x3f, 0x7e, 
  0x06, 0x34, 0x69, 0x0a, 0x45, 0x4b, 0x0a, 0x60, 0x40, 0x06, 0x00, 0x40, 0x4d, 0x0f, 0x5e, 0x08, 
  0x7e, 0x7d, 0x09, 0x7f, 0x7f, 0x82, 0x71, 0x18, 0x71, 0x00, 0x29, 0x53, 0x06, 0x01, 0x42, 0x09, 
  0x00, 0x40, 0x82, 0x63, 0x42, 0x45, 0x09, 0x32, 0x65, 0x08, 0x7f, 0x7f, 0x82, 0x69, 0x3a, 0x75, 
  0x12, 0x4a, 0x55, 0x0a, 0x00, 0x40, 0x82, 0x70, 0x6f, 0x5f, 0x05, 0x7f, 0x7f, 0x43, 0x7f, 0x7e, 
  0x08, 0x13, 0x66, 0x0b, 0x03, 0x47, 0x06, 0x00, 0x40, 0x5a, 0x24, 0x49, 0x08, 0x34, 0x69, 0x08, 
  0x7f, 0x7f, 0x82, 0x61, 0x7f, 0x67, 0x10, 0x7f, 0x57, 0x10, 0x00, 0x40, 0x82, 0x70, 0x2a, 0x55, 
  0x08, 0x3a, 0x75, 0x09, 0x7f, 0x7f, 0x34, 0x3f, 0x7e, 0x06, 0x34, 0x69, 0x0a, 0x45, 0x4b, 0x0a, 
  0x60, 0x40, 0x06, 0x00, 0x40, 0x4d, 0x0f, 0x5e, 0x08, 0x7e, 0x7d, 0x09, 0x7f, 0x7f, 0x82, 0x71, 
  0x29, 0x53, 0x00, 0x18, 0x71, 0x06, 0x01, 0x42, 0x09, 0x00, 0x40, 0x82, 0x63, 0x42, 0x45, 0x09, 
  0x32, 0x65, 0x08, 0x7f, 0x7f, 0x09, 0x90, 0x43, 0x00, 0x00, 0x48, 0x00, 0x00, 0x4c, 0x00, 0x82, 
  0x60, 0xe0, 0x3a, 0x75, 0x12, 0x4a, 0x55, 0x0a, 0x00, 0x40, 0x82, 0x70, 0x6f, 0x5f, 0x05, 0x7f, 
  0x7f, 0x43, 0x7f, 0x7e, 0x08, 0x13, 0x66, 0x0b, 0x03, 0x47, 0x06, 0x00, 0x40, 0x5a, 0x24, 0x49, 
  0x08, 0x34, 0x69, 0x08, 0x7f, 0x7f, 0x82, 0x51, 0x32, 0x7e, 0x10, 0x00, 0x40, 0x28, 0x90, 0x43, 
  0x7f, 0x00, 0x48, 0x7f, 0x00, 0x4d, 0x7f, 0x00, 0xe0, 0x00, 0x40, 0x83, 0x18, 0x2a, 0x55, 0x08, 
  0x3a, 0x75, 0x09, 0x7f, 0x7f, 0x34, 0x3f, 0x7e, 0x06, 0x34, 0x69, 0x0a, 0x45, 0x4b, 0x0a, 0x60, 
  0x40, 0x06, 0x00, 0x40, 0x4d, 0x0f, 0x5e, 0x08, 0x7e, 0x7d, 0x09, 0x7f, 0x7f, 0x82, 0x71, 0x18, 
  0x71, 0x00, 0x29, 0x53, 0x06, 0x01, 0x42, 0x09, 0x00, 0x40, 0x82, 0x63, 0x42, 0x45, 0x09, 0x32, 
  0x65, 0x08, 0x7f, 0x7f, 0x82, 0x69, 0x3a, 0x75, 0x12, 0x4a, 0x55, 0x0a, 0x00, 0x40, 0x82, 0x70, 
  0x6f, 0x5f, 0x05, 0x7f, 0x7f, 0x43, 0x7f, 0x7e, 0x08, 0x13, 0x66, 0x0b, 0x03, 0x47, 0x06, 0x00, 
  0x40, 0x5a, 0x24, 0x49, 0x08, 0x34, 0x69, 0x08, 0x7f, 0x7f, 0x82, 0x61, 0x7f, 0x67, 0x10, 0x7f, 
  0x57, 0x10, 0x00, 0x40, 0x82, 0x70, 0x2a, 0x55, 0x08, 0x3a, 0x75, 0x09, 0x7f, 0x7f, 0x34, 0x3f, 
  0x7e, 0x06, 0x34, 0x69, 0x0a, 0x45, 0x4b, 0x0a, 0x60, 0x40, 0x06, 0x00, 0x40, 0x4d, 0x0f, 0x5e, 
  0x08, 0x7e, 0x7d, 0x09, 0x7f, 0x7f, 0x82, 0x71, 0x29, 0x53, 0x00, 0x18, 0x71, 0x06, 0x01, 0x42, 
  0x09, 0x00, 0x40, 0x82, 0x63, 0x42, 0x45, 0x09, 0x32, 0x65, 0x08, 0x7f, 0x7f, 0x09, 0x90, 0x43, 
  0x00, 0x00, 0x48, 0x00, 0x00, 0x4d, 0x00, 0x82, 0x60, 0xe0, 0x3a, 0x75, 0x12, 0x4a, 0x55, 0x0a, 
  0x00, 0x40, 0x82, 0x70, 0x6f, 0x5f, 0x05, 0x7f, 0x7f, 0x43, 0x7f, 0x7e, 0x08, 0x13, 0x66, 0x0b, 
  0x03, 0x47, 0x06, 0x00, 0x40, 0x5a, 0x24, 0x49, 0x08, 0x34, 0x69, 0x08, 0x7f, 0x7f, 0x82, 0x51, 
  0x32, 0x7e, 0x10, 0x00, 0x40, 0x95, 0x28, 0x00, 0x40, 0x00, 0x90, 0x4a, 0x7f, 0x00, 0x46, 0x7f, 
  0x00, 0x41, 0x7f, 0x83, 0x18, 0xe0, 0x2a, 0x55, 0x08, 0x3a, 0x75, 0x09, 0x7f, 0x7f, 0x34, 0x3f, 
  0x7e, 0x06, 0x34, 0x69, 0x0a, 0x45, 0x4b, 0x0a, 0x60, 0x40, 0x06, 0x00, 0x40, 0x4d, 0x0f, 0x5e, 
  0x08, 0x7e, 0x7d, 0x09, 0x7f, 0x7f, 0x82, 0x71, 0x18, 0x71, 0x00, 0x29, 0x53, 0x06, 0x01, 0x42, 
  0x09, 0x00, 0x40, 0x82, 0x63, 0x42, 0x45, 0x09, 0x32, 0x65, 0x08, 0x7f, 0x7f, 0x82, 0x69, 0x3a, 
  0x75, 0x12, 0x4a, 0x55, 0x0a, 0x00, 0x40, 0x82, 0x70, 0x6f, 0x5f, 0x05, 0x7f, 0x7f, 0x43, 0x7f, 
  0x7e, 0x08, 0x13, 0x66, 0x0b, 0x03, 0x47, 0x06, 0x00, 0x40, 0x5a, 0x24, 0x49, 0x08, 0x34, 0x69, 
  0x08, 0x7f, 0x7f, 0x82, 0x61, 0x7f, 0x67, 0x10, 0x7f, 0x57, 0x10, 0x00, 0x40, 0x82, 0x70, 0x2a, 
  0x55, 0x08, 0x3a, 0x75, 0x09, 0x7f, 0x7f, 0x34, 0x3f, 0x7e, 0x06, 0x34, 0x69, 0x0a, 0x45, 0x4b, 
  0x0a, 0x60, 0x40, 0x06, 0x00, 0x40, 0x4d, 0x0f, 0x5e, 0x08, 0x7e, 0x7d, 0x09, 0x7f, 0x7f, 0x82, 
  0x71, 0x29, 0x53, 0x00, 0x18, 0x71, 0x06, 0x01, 0x42, 0x09, 0x00, 0x40, 0x82, 0x63, 0x42, 0x45, 
  0x09, 0x32, 0x65, 0x08, 0x7f, 0x7f, 0x09, 0x90, 0x4a, 0x00, 0x00, 0x46, 0x00, 0x00, 0x41, 0x00, 
  0x82, 0x60, 0xe0, 0x3a, 0x75, 0x12, 0x4a, 0x55, 0x0a, 0x00, 0x40, 0x82, 0x70, 0x6f, 0x5f, 0x05, 
  0x7f, 0x7f, 0x43, 0x7f, 0x7e, 0x08, 0x13, 0x66, 0x0b, 0x03, 0x47, 0x06, 0x00, 0x40, 0x5a, 0x24, 
  0x49, 0x08, 0x34, 0x69, 0x08, 0x7f, 0x7f, 0x82, 0x51, 0x32, 0x7e, 0x10, 0x00, 0x40, 0x28, 0x90, 
  0x4b, 0x7f, 0x00, 0xe0, 0x00, 0x40, 0x00, 0x90, 0x46, 0x7f, 0x00, 0x41, 0x7f, 0x83, 0x18, 0xe0, 
  0x2a, 0x55, 0x08, 0x3a, 0x75, 0x09, 0x7f, 0x7f, 0x34, 0x3f, 0x7e, 0x06, 0x34, 0x69, 0x0a, 0x45, 
  0x4b, 0x0a, 0x60, 0x40, 0x06, 0x00, 0x40, 0x4d, 0x0f, 0x5e, 0x08, 0x7e, 0x7d, 0x09, 0x7f, 0x7f, 
  0x82, 0x71, 0x18, 0x71, 0x00, 0x29, 0x53, 0x06, 0x01, 0x42, 0x09, 0x00, 0x40, 0x82, 0x63, 0x42, 
  0x45, 0x09, 0x32, 0x65, 0x08, 0x7f, 0x7f, 0x82, 0x69, 0x3a, 0x75, 0x12, 0x4a, 0x55, 0x0a, 0x00, 
  0x40, 0x82, 0x70, 0x6f, 0x5f, 0x05, 0x7f, 0x7f, 0x43, 0x7f, 0x7e, 0x08, 0x13, 0x66, 0x0b, 0x03, 
  0x47, 0x06, 0x00, 0x40, 0x5a, 0x24, 0x49, 0x08, 0x34, 0x69, 0x08, 0x7f, 0x7f, 0x82, 0x61, 0x7f, 
  0x67, 0x10, 0x7f, 0x57, 0x10, 0x00, 0x40, 0x82, 0x70, 0x2a, 0x55, 0x08, 0x3a, 0x75, 0x09, 0x7f, 
  0x7f, 0x34, 0x3f, 0x7e, 0x06, 0x34, 0x69, 0x0a, 0x45, 0x4b, 0x0a, 0x60, 0x40, 0x06, 0x00, 0x40, 
  0x4d, 0x0f, 0x5e, 0x08, 0x7e, 0x7d, 0x09, 0x7f, 0x7f, 0x82, 0x71, 0x29, 0x53, 0x00, 0x18, 0x71, 
  0x06, 0x01, 0x42, 0x09, 0x00, 0x40, 0x82, 0x63, 0x42, 0x45, 0x09, 0x32, 0x65, 0x08, 0x7f, 0x7f, 
  0x09, 0x90, 0x4b, 0x00, 0x00, 0x46, 0x00, 0x00, 0x41, 0x00, 0x82, 0x60, 0xe0, 0x3a, 0x75, 0x12, 
  0x4a, 0x55, 0x0a, 0x00, 0x40, 0x82, 0x70, 0x6f, 0x5f, 0x05, 0x7f, 0x7f, 0x43, 0x7f, 0x7e, 0x08, 
  0x13, 0x66, 0x0b, 0x03, 0x47, 0x06, 0x00, 0x40, 0x5a, 0x24, 0x49, 0x08, 0x34, 0x69, 0x08, 0x7f, 
  0x7f, 0x82, 0x51, 0x32, 0x7e, 0x10, 0x00, 0x40, 0x00, 0xff, 0x2f, 0x00, 0x4d, 0x54, 0x72, 0x6b, 
  0x00, 0x00, 0x07, 0x5d, 0x00, 0xff, 0x03, 0x09, 0x57, 0x61, 0x72, 0x6d, 0x20, 0x45, 0x63, 0x68, 
  0x6f, 0x00, 0xc1, 0x59, 0x00, 0xb1, 0x07, 0x34, 0x00, 0x0a, 0x40, 0x00, 0x79, 0x00, 0x00, 0x5b, 
  0x28, 0x00, 0x5d, 0x14, 0x8d, 0x40, 0x01, 0x00, 0x00, 0x91, 0x4a, 0x7f, 0x00, 0x46, 0x7f, 0x00, 
  0x41, 0x7f, 0x83, 0x18, 0xe1, 0x2a, 0x55, 0x08, 0x3a, 0x75, 0x09, 0x7f, 0x7f, 0x34, 0x3f, 0x7e, 
  0x06, 0x34, 0x69, 0x0a, 0x45, 0x4b, 0x0a, 0x60, 0x40, 0x06, 0x00, 0x40, 0x4d, 0x0f, 0x5e, 0x08, 
  0x7e, 0x7d, 0x09, 0x7f, 0x7f, 0x82, 0x71, 0x18, 0x71, 0x00, 0x29, 0x53, 0x06, 0x01, 0x42, 0x09, 
  0x00, 0x40, 0x82, 0x63, 0x42, 0x45, 0x09, 0x32, 0x65, 0x08, 0x7f, 0x7f, 0x82, 0x69, 0x3a, 0x75, 
  0x12, 0x4a, 0x55, 0x0a, 0x00, 0x40, 0x82, 0x70, 0x6f, 0x5f, 0x05, 0x7f, 0x7f, 0x43, 0x7f, 0x7e, 
  0x08, 0x13, 0x66, 0x0b, 0x03, 0x47, 0x06, 0x00, 0x40, 0x5a, 0x24, 0x49, 0x08, 0x34, 0x69, 0x08, 
  0x7f, 0x7f, 0x82, 0x61, 0x7f, 0x67, 0x10, 0x7f, 0x57, 0x10, 0x00, 0x40, 0x82, 0x70, 0x2a, 0x55, 
  0x08, 0x3a, 0x75, 0x09, 0x7f, 0x7f, 0x34, 0x3f, 0x7e, 0x06, 0x34, 0x69, 0x0a, 0x45, 0x4b, 0x0a, 
  0x60, 0x40, 0x06, 0x00, 0x40, 0x4d, 0x0f, 0x5e, 0x08, 0x7e, 0x7d, 0x09, 0x7f, 0x7f, 0x82, 0x71, 
  0x29, 0x53, 0x00, 0x18, 0x71, 0x06, 0x01, 0x42, 0x09, 0x00, 0x40, 0x82, 0x63, 0x42, 0x45, 0x09, 
  0x32, 0x65, 0x08, 0x7f, 0x7f, 0x81, 0x49, 0x91, 0x4a, 0x00, 0x00, 0x46, 0x00, 0x00, 0x41, 0x00, 
  0x81, 0x20, 0xe1, 0x3a, 0x75, 0x12, 0x4a, 0x55, 0x0a, 0x00, 0x40, 0x82, 0x70, 0x6f, 0x5f, 0x05, 
  0x7f, 0x7f, 0x43, 0x7f, 0x7e, 0x08, 0x13, 0x66, 0x0b, 0x03, 0x47, 0x06, 0x00, 0x40, 0x5a, 0x24, 
  0x49, 0x08, 0x34, 0x69, 0x08, 0x7f, 0x7f, 0x82, 0x51, 0x32, 0x7e, 0x10, 0x00, 0x40, 0x28, 0x91, 
  0x41, 0x7f, 0x00, 0x46, 0x7f, 0x00, 0x4b, 0x7f, 0x83, 0x18, 0xe1, 0x2a, 0x55, 0x08, 0x3a, 0x75, 
  0x09, 0x7f, 0x7f, 0x34, 0x3f, 0x7e, 0x06, 0x34, 0x69, 0x0a, 0x45, 0x4b, 0x0a, 0x60, 0x40, 0x06, 
  0x00, 0x40, 0x4d, 0x0f, 0x5e, 0x08, 0x7e, 0x7d, 0x09, 0x7f, 0x7f, 0x82, 0x71, 0x18, 0x71, 0x00, 
  0x29, 0x53, 0x06, 0x01, 0x42, 0x09, 0x00, 0x40, 0x82, 0x63, 0x42, 0x45, 0x09, 0x32, 0x65, 0x08, 
  0x7f, 0x7f, 0x82, 0x69, 0x3a, 0x75, 0x12, 0x4a, 0x55, 0x0a, 0x00, 0x40, 0x82, 0x70, 0x6f, 0x5f, 
  0x05, 0x7f, 0x7f, 0x43, 0x7f, 0x7e, 0x08, 0x13, 0x66, 0x0b, 0x03, 0x47, 0x06, 0x00, 0x40, 0x5a, 
  0x24, 0x49, 0x08, 0x34, 0x69, 0x08, 0x7f, 0x7f, 0x82, 0x61, 0x7f, 0x67, 0x10, 0x7f, 0x57, 0x10, 
  0x00, 0x40, 0x82, 0x70, 0x2a, 0x55, 0x08, 0x3a, 0x75, 0x09, 0x7f, 0x7f, 0x34, 0x3f, 0x7e, 0x06, 
  0x34, 0x69, 0x0a, 0x45, 0x4b, 0x0a, 0x60, 0x40, 0x06, 0x00, 0x40, 0x4d, 0x0f, 0x5e, 0x08, 0x7e, 
  0x7d, 0x09, 0x7f, 0x7f, 0x82, 0x71, 0x29, 0x53, 0x00, 0x18, 0x71, 0x06, 0x01, 0x42, 0x09, 0x00, 
  0x40, 0x82, 0x63, 0x42, 0x45, 0x09, 0x32, 0x65, 0x08, 0x7f, 0x7f, 0x81, 0x49, 0x91, 0x41, 0x00, 
  0x00, 0x46, 0x00, 0x00, 0x4b, 0x00, 0x81, 0x20, 0xe1, 0x3a, 0x75, 0x12, 0x4a, 0x55, 0x0a, 0x00, 
  0x40, 0x82, 0x70, 0x6f, 0x5f, 0x05, 0x7f, 0x7f, 0x43, 0x7f, 0x7e, 0x08, 0x13, 0x66, 0x0b, 0x03, 
  0x47, 0x06, 0x00, 0x40, 0x5a, 0x24, 0x49, 0x08, 0x34, 0x69, 0x08, 0x7f, 0x7f, 0x82, 0x51, 0x32, 
  0x7e, 0x10, 0x00, 0x40, 0xe9, 0x28, 0xb1, 0x07, 0x38, 0x00, 0x91, 0x4a, 0x7f, 0x00, 0x46, 0x7f, 
  0x00, 0x41, 0x7f, 0x83, 0x18, 0xe1, 0x2a, 0x55, 0x08, 0x3a, 0x75, 0x09, 0x7f, 0x7f, 0x34, 0x3f, 
  0x7e, 0x06, 0x34, 0x69, 0x0a, 0x45, 0x4b, 0x0a, 0x60, 0x40, 0x06, 0x00, 0x40, 0x4d, 0x0f, 0x5e, 
  0x08, 0x7e, 0x7d, 0x09, 0x7f, 0x7f, 0x82, 0x71, 0x18, 0x71, 0x00, 0x29, 0x53, 0x06, 0x01, 0x42, 
  0x09, 0x00, 0x40, 0x82, 0x63, 0x42, 0x45, 0x09, 0x32, 0x65, 0x08, 0x7f, 0x7f, 0x82, 0x69, 0x3a, 
  0x75, 0x12, 0x4a, 0x55, 0x0a, 0x00, 0x40, 0x82, 0x70, 0x6f, 0x5f, 0x05, 0x7f, 0x7f, 0x43, 0x7f, 
  0x7e, 0x08, 0x13, 0x66, 0x0b, 0x03, 0x47, 0x06, 0x00, 0x40, 0x5a, 0x24, 0x49, 0x08, 0x34, 0x69, 
  0x08, 0x7f, 0x7f, 0x82, 0x61, 0x7f, 0x67, 0x10, 0x7f, 0x57, 0x10, 0x00, 0x40, 0x82, 0x70, 0x2a, 
  0x55, 0x08, 0x3a, 0x75, 0x09, 0x7f, 0x7f, 0x34, 0x3f, 0x7e, 0x06, 0x34, 0x69, 0x0a, 0x45, 0x4b, 
  0x0a, 0x60, 0x40, 0x06, 0x00, 0x40, 0x4d, 0x0f, 0x5e, 0x08, 0x7e, 0x7d, 0x09, 0x7f, 0x7f, 0x82, 
  0x71, 0x29, 0x53, 0x00, 0x18, 0x71, 0x06, 0x01, 0x42, 0x09, 0x00, 0x40, 0x82, 0x63, 0x42, 0x45, 
  0x09, 0x32, 0x65, 0x08, 0x7f, 0x7f, 0x09, 0x91, 0x4a, 0x00, 0x00, 0x46, 0x00, 0x00, 0x41, 0x00, 
  0x82, 0x60, 0xe1, 0x3a, 0x75, 0x12, 0x4a, 0x55, 0x0a, 0x00, 0x40, 0x82, 0x70, 0x6f, 0x5f, 0x05, 
  0x7f, 0x7f, 0x43, 0x7f, 0x7e, 0x08, 0x13, 0x66, 0x0b, 0x03, 0x47, 0x06, 0x00, 0x40, 0x5a, 0x24, 
  0x49, 0x08, 0x34, 0x69, 0x08, 0x7f, 0x7f, 0x82, 0x51, 0x32, 0x7e, 0x10, 0x00, 0x40, 0x28, 0x91, 
  0x41, 0x7f, 0x00, 0x46, 0x7f, 0x00, 0x4b, 0x7f, 0x83, 0x18, 0xe1, 0x2a, 0x55, 0x08, 0x3a, 0x75, 
  0x09, 0x7f, 0x7f, 0x34, 0x3f, 0x7e, 0x06, 0x34, 0x69, 0x0a, 0x45, 0x4b, 0x0a, 0x60, 0x40, 0x06, 
  0x00, 0x40, 0x4d, 0x0f, 0x5e, 0x08, 0x7e, 0x7d, 0x09, 0x7f, 0x7f, 0x82, 0x71, 0x18, 0x71, 0x00, 
  0x29, 0x53, 0x06, 0x01, 0x42, 0x09, 0x00, 0x40, 0x82, 0x63, 0x42, 0x45, 0x09, 0x32, 0x65, 0x08, 
  0x7f, 0x7f, 0x82, 0x69, 0x3a, 0x75, 0x12, 0x4a, 0x55, 0x0a, 0x00, 0x40, 0x82, 0x70, 0x6f, 0x5f, 
  0x05, 0x7f, 0x7f, 0x43, 0x7f, 0x7e, 0x08, 0x13, 0x66, 0x0b, 0x03, 0x47, 0x06, 0x00, 0x40, 0x5a, 
  0x24, 0x49, 0x08, 0x34, 0x69, 0x08, 0x7f, 0x7f, 0x82, 0x61, 0x7f, 0x67, 0x10, 0x7f, 0x57, 0x10, 
  0x00, 0x40, 0x82, 0x70, 0x2a, 0x55, 0x08, 0x3a, 0x75, 0x09, 0x7f, 0x7f, 0x34, 0x3f, 0x7e, 0x06, 
  0x34, 0x69, 0x0a, 0x45, 0x4b, 0x0a, 0x60, 0x40, 0x06, 0x00, 0x40, 0x4d, 0x0f, 0x5e, 0x08, 0x7e, 
  0x7d, 0x09, 0x7f, 0x7f, 0x82, 0x71, 0x29, 0x53, 0x00, 0x18, 0x71, 0x06, 0x01, 0x42, 0x09, 0x00, 
  0x40, 0x82, 0x63, 0x42, 0x45, 0x09, 0x32, 0x65, 0x08, 0x7f, 0x7f, 0x81, 0x49, 0x91, 0x41, 0x00, 
  0x00, 0x46, 0x00, 0x00, 0x4b, 0x00, 0x81, 0x20, 0xe1, 0x3a, 0x75, 0x12, 0x4a, 0x55, 0x0a, 0x00, 
  0x40, 0x82, 0x70, 0x6f, 0x5f, 0x05, 0x7f, 0x7f, 0x43, 0x7f, 0x7e, 0x08, 0x13, 0x66, 0x0b, 0x03, 
  0x47, 0x06, 0x00, 0x40, 0x5a, 0x24, 0x49, 0x08, 0x34, 0x69, 0x08, 0x7f, 0x7f, 0x82, 0x51, 0x32, 
  0x7e, 0x10, 0x00, 0x40, 0x28, 0x91, 0x4c, 0x7f, 0x00, 0x48, 0x7f, 0x00, 0x43, 0x7f, 0x83, 0x18, 
  0xe1, 0x2a, 0x55, 0x08, 0x3a, 0x75, 0x09, 0x7f, 0x7f, 0x34, 0x3f, 0x7e, 0x06, 0x34, 0x69, 0x0a, 
  0x45, 0x4b, 0x0a, 0x60, 0x40, 0x06, 0x00, 0x40, 0x4d, 0x0f, 0x5e, 0x08, 0x7e, 0x7d, 0x09, 0x7f, 
  0x7f, 0x82, 0x71, 0x18, 0x71, 0x00, 0x29, 0x53, 0x06, 0x01, 0x42, 0x09, 0x00, 0x40, 0x82, 0x63, 
  0x42, 0x45, 0x09, 0x32, 0x65, 0x08, 0x7f, 0x7f, 0x82, 0x69, 0x3a, 0x75, 0x12, 0x4a, 0x55, 0x0a, 
  0x00, 0x40, 0x82, 0x70, 0x6f, 0x5f, 0x05, 0x7f, 0x7f, 0x43, 0x7f, 0x7e, 0x08, 0x13, 0x66, 0x0b, 
  0x03, 0x47, 0x06, 0x00, 0x40, 0x5a, 0x24, 0x49, 0x08, 0x34, 0x69, 0x08, 0x7f, 0x7f, 0x82, 0x61, 
  0x7f, 0x67, 0x10, 0x7f, 0x57, 0x10, 0x00, 0x40, 0x82, 0x70, 0x2a, 0x55, 0x08, 0x3a, 0x75, 0x09, 
  0x7f, 0x7f, 0x34, 0x3f, 0x7e, 0x06, 0x34, 0x69, 0x0a, 0x45, 0x4b, 0x0a, 0x60, 0x40, 0x06, 0x00, 
  0x40, 0x4d, 0x0f, 0x5e, 0x08, 0x7e, 0x7d, 0x09, 0x7f, 0x7f, 0x82, 0x71, 0x29, 0x53, 0x00, 0x18, 
  0x71, 0x06, 0x01, 0x42, 0x09, 0x00, 0x40, 0x82, 0x63, 0x42, 0x45, 0x09, 0x32, 0x65, 0x08, 0x7f, 
  0x7f, 0x81, 0x49, 0x91, 0x4c, 0x00, 0x00, 0x48, 0x00, 0x00, 0x43, 0x00, 0x81, 0x20, 0xe1, 0x3a, 
  0x75, 0x12, 0x4a, 0x55, 0x0a, 0x00, 0x40, 0x82, 0x70, 0x6f, 0x5f, 0x05, 0x7f, 0x7f, 0x43, 0x7f, 
  0x7e, 0x08, 0x13, 0x66, 0x0b, 0x03, 0x47, 0x06, 0x00, 0x40, 0x5a, 0x24, 0x49, 0x08, 0x34, 0x69, 
  0x08, 0x7f, 0x7f, 0x82, 0x51, 0x32, 0x7e, 0x10, 0x00, 0x40, 0x28, 0x91, 0x43, 0x7f, 0x00, 0x48, 
  0x7f, 0x00, 0x4d, 0x7f, 0x83, 0x18, 0xe1, 0x2a, 0x55, 0x08, 0x3a, 0x75, 0x09, 0x7f, 0x7f, 0x34, 
  0x3f, 0x7e, 0x06, 0x34, 0x69, 0x0a, 0x45, 0x4b, 0x0a, 0x60, 0x40, 0x06, 0x00, 0x40, 0x4d, 0x0f, 
  0x5e, 0x08, 0x7e, 0x7d, 0x09, 0x7f, 0x7f, 0x82, 0x71, 0x18, 0x71, 0x00, 0x29, 0x53, 0x06, 0x01, 
  0x42, 0x09, 0x00, 0x40, 0x82, 0x63, 0x42, 0x45, 0x09, 0x32, 0x65, 0x08, 0x7f, 0x7f, 0x82, 0x69, 
  0x3a, 0x75, 0x12, 0x4a, 0x55, 0x0a, 0x00, 0x40, 0x82, 0x70, 0x6f, 0x5f, 0x05, 0x7f, 0x7f, 0x43, 
  0x7f, 0x7e, 0x08, 0x13, 0x66, 0x0b, 0x03, 0x47, 0x06, 0x00, 0x40, 0x5a, 0x24, 0x49, 0x08, 0x34, 
  0x69, 0x08, 0x7f, 0x7f, 0x82, 0x61, 0x7f, 0x67, 0x10, 0x7f, 0x57, 0x10, 0x00, 0x40, 0x82, 0x70, 
  0x2a, 0x55, 0x08, 0x3a, 0x75, 0x09, 0x7f, 0x7f, 0x34, 0x3f, 0x7e, 0x06, 0x34, 0x69, 0x0a, 0x45, 
  0x4b, 0x0a, 0x60, 0x40, 0x06, 0x00, 0x40, 0x4d, 0x0f, 0x5e, 0x08, 0x7e, 0x7d, 0x09, 0x7f, 0x7f, 
  0x82, 0x71, 0x29, 0x53, 0x00, 0x18, 0x71, 0x06, 0x01, 0x42, 0x09, 0x00, 0x40, 0x82, 0x63, 0x42, 
  0x45, 0x09, 0x32, 0x65, 0x08, 0x7f, 0x7f, 0x81, 0x49, 0x91, 0x43, 0x00, 0x00, 0x48, 0x00, 0x00, 
  0x4d, 0x00, 0x81, 0x20, 0xe1, 0x3a, 0x75, 0x12, 0x4a, 0x55, 0x0a, 0x00, 0x40, 0x82, 0x70, 0x6f, 
  0x5f, 0x05, 0x7f, 0x7f, 0x43, 0x7f, 0x7e, 0x08, 0x13, 0x66, 0x0b, 0x03, 0x47, 0x06, 0x00, 0x40, 
  0x5a, 0x24, 0x49, 0x08, 0x34, 0x69, 0x08, 0x7f, 0x7f, 0x82, 0x51, 0x32, 0x7e, 0x10, 0x00, 0x40, 
  0x95, 0x28, 0x91, 0x4a, 0x7f, 0x00, 0x46, 0x7f, 0x00, 0x41, 0x7f, 0x83, 0x18, 0xe1, 0x2a, 0x55, 
  0x08, 0x3a, 0x75, 0x09, 0x7f, 0x7f, 0x34, 0x3f, 0x7e, 0x06, 0x34, 0x69, 0x0a, 0x45, 0x4b, 0x0a, 
  0x60, 0x40, 0x06, 0x00, 0x40, 0x4d, 0x0f, 0x5e, 0x08, 0x7e, 0x7d, 0x09, 0x7f, 0x7f, 0x82, 0x71, 
  0x18, 0x71, 0x00, 0x29, 0x53, 0x06, 0x01, 0x42, 0x09, 0x00, 0x40, 0x82, 0x63, 0x42, 0x45, 0x09, 
  0x32, 0x65, 0x08, 0x7f, 0x7f, 0x82, 0x69, 0x3a, 0x75, 0x12, 0x4a, 0x55, 0x0a, 0x00, 0x40, 0x82, 
  0x70, 0x6f, 0x5f, 0x05, 0x7f, 0x7f, 0x43, 0x7f, 0x7e, 0x08, 0x13, 0x66, 0x0b, 0x03, 0x47, 0x06, 
  0x00, 0x40, 0x5a, 0x24, 0x49, 0x08, 0x34, 0x69, 0x08, 0x7f, 0x7f, 0x82, 0x61, 0x7f, 0x67, 0x10, 
  0x7f, 0x57, 0x10, 0x00, 0x40, 0x82, 0x70, 0x2a, 0x55, 0x08, 0x3a, 0x75, 0x09, 0x7f, 0x7f, 0x34, 
  0x3f, 0x7e, 0x06, 0x34, 0x69, 0x0a, 0x45, 0x4b, 0x0a, 0x60, 0x40, 0x06, 0x00, 0x40, 0x4d, 0x0f, 
  0x5e, 0x08, 0x7e, 0x7d, 0x09, 0x7f, 0x7f, 0x82, 0x71, 0x29, 0x53, 0x00, 0x18, 0x71, 0x06, 0x01, 
  0x42, 0x09, 0x00, 0x40, 0x82, 0x63, 0x42, 0x45, 0x09, 0x32, 0x65, 0x08, 0x7f, 0x7f, 0x81, 0x49, 
  0x91, 0x4a, 0x00, 0x00, 0x46, 0x00, 0x00, 0x41, 0x00, 0x81, 0x20, 0xe1, 0x3a, 0x75, 0x12, 0x4a, 
  0x55, 0x0a, 0x00, 0x40, 0x82, 0x70, 0x6f, 0x5f, 0x05, 0x7f, 0x7f, 0x43, 0x7f, 0x7e, 0x08, 0x13, 
  0x66, 0x0b, 0x03, 0x47, 0x06, 0x00, 0x40, 0x5a, 0x24, 0x49, 0x08, 0x34, 0x69, 0x08, 0x7f, 0x7f, 
  0x82, 0x51, 0x32, 0x7e, 0x10, 0x00, 0x40, 0x28, 0x91, 0x41, 0x7f, 0x00, 0x46, 0x7f, 0x00, 0x4b, 
  0x7f, 0x83, 0x18, 0xe1, 0x2a, 0x55, 0x08, 0x3a, 0x75, 0x09, 0x7f, 0x7f, 0x34, 0x3f, 0x7e, 0x06, 
  0x34, 0x69, 0x0a, 0x45, 0x4b, 0x0a, 0x60, 0x40, 0x06, 0x00, 0x40, 0x4d, 0x0f, 0x5e, 0x08, 0x7e, 
  0x7d, 0x09, 0x7f, 0x7f, 0x82, 0x71, 0x18, 0x71, 0x00, 0x29, 0x53, 0x06, 0x01, 0x42, 0x09, 0x00, 
  0x40, 0x82, 0x63, 0x42, 0x45, 0x09, 0x32, 0x65, 0x08, 0x7f, 0x7f, 0x82, 0x69, 0x3a, 0x75, 0x12, 
  0x4a, 0x55, 0x0a, 0x00, 0x40, 0x82, 0x70, 0x6f, 0x5f, 0x05, 0x7f, 0x7f, 0x43, 0x7f, 0x7e, 0x08, 
  0x13, 0x66, 0x0b, 0x03, 0x47, 0x06, 0x00, 0x40, 0x5a, 0x24, 0x49, 0x08, 0x34, 0x69, 0x08, 0x7f, 
  0x7f, 0x82, 0x61, 0x7f, 0x67, 0x10, 0x7f, 0x57, 0x10, 0x00, 0x40, 0x82, 0x70, 0x2a, 0x55, 0x08, 
  0x3a, 0x75, 0x09, 0x7f, 0x7f, 0x34, 0x3f, 0x7e, 0x06, 0x34, 0x69, 0x0a, 0x45, 0x4b, 0x0a, 0x60, 
  0x40, 0x06, 0x00, 0x40, 0x4d, 0x0f, 0x5e, 0x08, 0x7e, 0x7d, 0x09, 0x7f, 0x7f, 0x82, 0x71, 0x29, 
  0x53, 0x00, 0x18, 0x71, 0x06, 0x01, 0x42, 0x09, 0x00, 0x40, 0x82, 0x63, 0x42, 0x45, 0x09, 0x32, 
  0x65, 0x08, 0x7f, 0x7f, 0x81, 0x49, 0x91, 0x41, 0x00, 0x00, 0x46, 0x00, 0x00, 0x4b, 0x00, 0x81, 
  0x20, 0xe1, 0x3a, 0x75, 0x12, 0x4a, 0x55, 0x0a, 0x00, 0x40, 0x82, 0x70, 0x6f, 0x5f, 0x05, 0x7f, 
  0x7f, 0x43, 0x7f, 0x7e, 0x08, 0x13, 0x66, 0x0b, 0x03, 0x47, 0x06, 0x00, 0x40, 0x5a, 0x24, 0x49, 
  0x08, 0x34, 0x69, 0x08, 0x7f, 0x7f, 0x82, 0x51, 0x32, 0x7e, 0x10, 0x00, 0x40, 0x00, 0xff, 0x2f, 
  0x00, 0x4d, 0x54, 0x72, 0x6b, 0x00, 0x00, 0x07, 0xde, 0x00, 0xff, 0x03, 0x05, 0x50, 0x69, 0x61, 
  0x6e, 0x6f, 0x00, 0xc2, 0x00, 0x00, 0xb2, 0x07, 0x7f, 0x00, 0x0a, 0x40, 0x00, 0x79, 0x00, 0x00, 
  0x5b, 0x28, 0x00, 0x5d, 0x00, 0x00, 0x01, 0x00, 0x00, 0x92, 0x41, 0x7b, 0x5c, 0x41, 0x00, 0x04, 
  0x43, 0x59, 0x43, 0x43, 0x00, 0x1d, 0x46, 0x6a, 0x55, 0x46, 0x00, 0x0b, 0x43, 0x5f, 0x44, 0x43, 
  0x00, 0x1c, 0x48, 0x7d, 0x60, 0x46, 0x63, 0x13, 0x48, 0x00, 0x3f, 0x46, 0x00, 0x0e, 0x43, 0x53, 
  0x5d, 0x43, 0x00, 0x03, 0x48, 0x61, 0x13, 0x49, 0x4f, 0x1c, 0x4a, 0x73, 0x0e, 0x48, 0x00, 0x1d, 
  0x49, 0x00, 0x36, 0x4a, 0x00, 0x33, 0x48, 0x67, 0x5d, 0x46, 0x6f, 0x03, 0x48, 0x00, 0x44, 0x46, 
  0x00, 0x19, 0x43, 0x67, 0x4a, 0x43, 0x00, 0x16, 0x41, 0x5d, 0x40, 0x41, 0x00, 0x20, 0x3c, 0x5d, 
  0x60, 0x3c, 0x00, 0x00, 0x3a, 0x69, 0x8a, 0x40, 0x3a, 0x00, 0x95, 0x00, 0x41, 0x7b, 0x5c, 0x41, 
  0x00, 0x04, 0x43, 0x59, 0x43, 0x43, 0x00, 0x1d, 0x46, 0x6a, 0x55, 0x46, 0x00, 0x6b, 0x48, 0x7d, 
  0x60, 0x4d, 0x60, 0x13, 0x48, 0x00, 0x3f, 0x4d, 0x00, 0x0e, 0x52, 0x56, 0x5d, 0x52, 0x00, 0x03, 
  0x4f, 0x6e, 0x00, 0x48, 0x42, 0x20, 0x48, 0x00, 0x00, 0x4a, 0x6e, 0x40, 0x4a, 0x00, 0x01, 0x4f, 
  0x00, 0x62, 0x48, 0x67, 0x5d, 0x46, 0x6f, 0x03, 0x48, 0x00, 0x44, 0x46, 0x00, 0x19, 0x43, 0x67, 
  0x4a, 0x43, 0x00, 0x16, 0x41, 0x5d, 0x40, 0x41, 0x00, 0x00, 0x3c, 0x47, 0x40, 0x3c, 0x00, 0x00, 
  0x3a, 0x3b, 0x40, 0x3a, 0x00, 0x00, 0x33, 0x69, 0x8a, 0x40, 0x33, 0x00, 0x9f, 0x40, 0x41, 0x7f, 
  0x00, 0x37, 0x7e, 0x00, 0x3c, 0x7f, 0x60, 0x41, 0x00, 0x00, 0x37, 0x00, 0x00, 0x3c, 0x00, 0x20, 
  0x41, 0x31, 0x00, 0x37, 0x31, 0x00, 0x3c, 0x31, 0x60, 0x41, 0x00, 0x00, 0x37, 0x00, 0x00, 0x3c, 
  0x00, 0x40, 0x35, 0x7d, 0x00, 0x3f, 0x7f, 0x00, 0x3a, 0x7f, 0x60, 0x35, 0x00, 0x00, 0x3f, 0x00, 
  0x00, 0x3a, 0x00, 0x20, 0x3f, 0x31, 0x00, 0x35, 0x31, 0x00, 0x3a, 0x31, 0x60, 0x3f, 0x00, 0x00, 
  0x35, 0x00, 0x00, 0x3a, 0x00, 0x40, 0x46, 0x7f, 0x00, 0x41, 0x7f, 0x00, 0x3c, 0x7f, 0x86, 0x00, 
  0x46, 0x00, 0x00, 0x41, 0x00, 0x00, 0x3c, 0x00, 0x00, 0x3c, 0x49, 0x40, 0x35, 0x49, 0x40, 0x3c, 
  0x00, 0x00, 0x41, 0x49, 0x40, 0x35, 0x00, 0x00, 0x3a, 0x48, 0x40, 0x41, 0x00, 0x00, 0x46, 0x48, 
  0x40, 0x3a, 0x00, 0x00, 0x33, 0x4d, 0x40, 0x46, 0x00, 0x00, 0x3f, 0x4d, 0x40, 0x33, 0x00, 0x00, 
  0x38, 0x4c, 0x40, 0x3f, 0x00, 0x00, 0x44, 0x4c, 0x40, 0x38, 0x00, 0x00, 0x3d, 0x50, 0x40, 0x44, 
  0x00, 0x00, 0x49, 0x52, 0x40, 0x3d, 0x00, 0x00, 0x3a, 0x5b, 0x40, 0x49, 0x00, 0x00, 0x46, 0x5b, 
  0x40, 0x3a, 0x00, 0x00, 0x3f, 0x5c, 0x40, 0x46, 0x00, 0x00, 0x4b, 0x5c, 0x40, 0x3f, 0x00, 0x00, 
  0x44, 0x62, 0x40, 0x4b, 0x00, 0x00, 0x50, 0x64, 0x40, 0x44, 0x00, 0x00, 0x42, 0x66, 0x40, 0x50, 
  0x00, 0x00, 0x4e, 0x67, 0x40, 0x42, 0x00, 0x00, 0x47, 0x69, 0x40, 0x4e, 0x00, 0x00, 0x53, 0x66, 
  0x40, 0x47, 0x00, 0x00, 0x53, 0x00, 0x00, 0x48, 0x7f, 0x00, 0x54, 0x7f, 0x84, 0x40, 0x48, 0x00, 
  0x00, 0x54, 0x00, 0x00, 0x51, 0x6f, 0x40, 0x51, 0x00, 0x00, 0x54, 0x6b, 0x40, 0x54, 0x00, 0x00, 
  0x51, 0x52, 0x3b, 0x51, 0x00, 0x06, 0x52, 0x78, 0x45, 0x52, 0x00, 0x78, 0x51, 0x7f, 0x4e, 0x51, 
  0x00, 0x74, 0x4f, 0x6b, 0x3f, 0x4f, 0x00, 0x21, 0x52, 0x69, 0x42, 0x52, 0x00, 0x1e, 0x51, 0x7b, 
  0x3f, 0x51, 0x00, 0x21, 0x4e, 0x7b, 0x3f, 0x4e, 0x00, 0x20, 0x4f, 0x7f, 0x58, 0x4f, 0x00, 0x09, 
  0x4a, 0x7b, 0x01, 0x4a, 0x00, 0x81, 0x49, 0x4d, 0x7f, 0x54, 0x4d, 0x00, 0x66, 0x4c, 0x7f, 0x4a, 
  0x4c, 0x00, 0x7d, 0x4d, 0x71, 0x3b, 0x4c, 0x57, 0x07, 0x4d, 0x00, 0x29, 0x4a, 0x6f, 0x06, 0x4c, 
  0x00, 0x39, 0x4a, 0x00, 0x6b, 0x49, 0x7f, 0x40, 0x4a, 0x58, 0x04, 0x49, 0x00, 0x3c, 0x45, 0x5e, 
  0x06, 0x4a, 0x00, 0x3a, 0x45, 0x00, 0x00, 0x48, 0x7f, 0x82, 0x50, 0x48, 0x00, 0x30, 0x48, 0x7e, 
  0x00, 0x4d, 0x7e, 0x40, 0x48, 0x00, 0x00, 0x49, 0x75, 0x0d, 0x4d, 0x00, 0x2b, 0x48, 0x4c, 0x08, 
  0x49, 0x00, 0x40, 0x48, 0x00, 0x00, 0x46, 0x70, 0x35, 0x46, 0x00, 0x2b, 0x4d, 0x7f, 0x00, 0x48, 
  0x7f, 0x60, 0x4d, 0x00, 0x00, 0x48, 0x00, 0x60, 0x46, 0x7f, 0x40, 0x46, 0x00, 0x20, 0x43, 0x6d, 
  0x40, 0x43, 0x00, 0x20, 0x48, 0x7f, 0x00, 0x4d, 0x7f, 0x60, 0x48, 0x00, 0x00, 0x4d, 0x00, 0x00, 
  0x46, 0x7f, 0x40, 0x46, 0x00, 0x20, 0x42, 0x6d, 0x40, 0x42, 0x00, 0x20, 0x41, 0x7f, 0x60, 0x41, 
  0x00, 0x00, 0x43, 0x50, 0x60, 0x43, 0x00, 0x00, 0x46, 0x7f, 0x60, 0x46, 0x00, 0x60, 0x54, 0x66, 
  0x00, 0x5b, 0x66, 0x00, 0x4d, 0x66, 0x00, 0x4c, 0x66, 0x60, 0x54, 0x00, 0x00, 0x5b, 0x00, 0x00, 
  0x4d, 0x00, 0x00, 0x4c, 0x00, 0x81, 0x40, 0x56, 0x70, 0x00, 0x5b, 0x70, 0x00, 0x4d, 0x70, 0x00, 
  0x4c, 0x70, 0x60, 0x56, 0x00, 0x00, 0x5b, 0x00, 0x00, 0x4d, 0x00, 0x00, 0x4c, 0x00, 0x84, 0x40, 
  0x37, 0x7f, 0x00, 0x3c, 0x7f, 0x00, 0x41, 0x7f, 0x83, 0x00, 0x37, 0x00, 0x00, 0x3c, 0x00, 0x00, 
  0x41, 0x00, 0x00, 0x44, 0x7f, 0x00, 0x3f, 0x7f, 0x00, 0x3a, 0x7f, 0x82, 0x20, 0x44, 0x00, 0x00, 
  0x3f, 0x00, 0x00, 0x3a, 0x00, 0x00, 0x47, 0x7f, 0x00, 0x3f, 0x7f, 0x00, 0x44, 0x7f, 0x00, 0x39, 
  0x7f, 0x83, 0x00, 0x47, 0x00, 0x00, 0x3f, 0x00, 0x00, 0x44, 0x00, 0x00, 0x39, 0x00, 0x00, 0x42, 
  0x7f, 0x00, 0x3d, 0x7f, 0x00, 0x45, 0x7f, 0x00, 0x4a, 0x7f, 0x82, 0x20, 0x42, 0x00, 0x00, 0x3d, 
  0x00, 0x00, 0x45, 0x00, 0x00, 0x4a, 0x00, 0x00, 0x4f, 0x7f, 0x00, 0x46, 0x7f, 0x00, 0x41, 0x7e, 
  0x00, 0x4b, 0x7f, 0x60, 0x4f, 0x00, 0x00, 0x46, 0x00, 0x00, 0x41, 0x00, 0x00, 0x4b, 0x00, 0x20, 
  0x4f, 0x38, 0x00, 0x46, 0x38, 0x00, 0x41, 0x38, 0x00, 0x4b, 0x38, 0x60, 0x4f, 0x00, 0x00, 0x46, 
  0x00, 0x00, 0x41, 0x00, 0x00, 0x4b, 0x00, 0x40, 0x4d, 0x7f, 0x00, 0x44, 0x7f, 0x00, 0x49, 0x7f, 
  0x00, 0x3f, 0x7f, 0x60, 0x4d, 0x00, 0x00, 0x44, 0x00, 0x00, 0x49, 0x00, 0x00, 0x3f, 0x00, 0x20, 
  0x49, 0x38, 0x00, 0x3f, 0x38, 0x00, 0x44, 0x38, 0x00, 0x4d, 0x38, 0x60, 0x49, 0x00, 0x00, 0x3f, 
  0x00, 0x00, 0x44, 0x00, 0x00, 0x4d, 0x00, 0x40, 0x4f, 0x7f, 0x00, 0x47, 0x7f, 0x00, 0x54, 0x7f, 
  0x00, 0x4d, 0x7f, 0x8b, 0x70, 0x4f, 0x00, 0x10, 0x4f, 0x3d, 0x60, 0x47, 0x00, 0x00, 0x54, 0x00, 
  0x00, 0x51, 0x33, 0x50, 0x4d, 0x00, 0x10, 0x53, 0x3a, 0x60, 0x4f, 0x00, 0x00, 0x54, 0x3d, 0x60, 
  0x51, 0x00, 0x00, 0x56, 0x4b, 0x60, 0x53, 0x00, 0x00, 0x5b, 0x50, 0x60, 0x54, 0x00, 0x00, 0x56, 
  0x00, 0x00, 0x53, 0x4d, 0x10, 0x58, 0x4d, 0x8a, 0x30, 0x53, 0x00, 0x00, 0x58, 0x00, 0x87, 0x44, 
  0x3c, 0x50, 0x08, 0x41, 0x4a, 0x04, 0x46, 0x4f, 0x81, 0x16, 0x3c, 0x00, 0x06, 0x46, 0x00, 0x08, 
  0x41, 0x00, 0x12, 0x3e, 0x6f, 0x06, 0x43, 0x6f, 0x04, 0x5b, 0x00, 0x00, 0x48, 0x6c, 0x1c, 0x3e, 
  0x00, 0x08, 0x43, 0x00, 0x00, 0x48, 0x00, 0x28, 0x3c, 0x4d, 0x00, 0x46, 0x58, 0x02, 0x41, 0x56, 
  0x81, 0x0e, 0x46, 0x00, 0x08, 0x41, 0x00, 0x04, 0x3c, 0x00, 0x26, 0x43, 0x59, 0x0a, 0x48, 0x55, 
  0x0a, 0x4d, 0x54, 0x85, 0x00, 0x43, 0x00, 0x0a, 0x48, 0x00, 0x0a, 0x4d, 0x00, 0x9e, 0x58, 0x3c, 
  0x69, 0x54, 0x3c, 0x00, 0x0c, 0x41, 0x63, 0x54, 0x41, 0x00, 0x10, 0x46, 0x62, 0x5a, 0x46, 0x00, 
  0x04, 0x3e, 0x6b, 0x54, 0x3e, 0x00, 0x0a, 0x43, 0x61, 0x54, 0x43, 0x00, 0x0a, 0x48, 0x64, 0x5a, 
  0x48, 0x00, 0x0c, 0x4b, 0x68, 0x4e, 0x4b, 0x00, 0x0e, 0x4a, 0x6c, 0x88, 0x14, 0x4a, 0x00, 0x86, 
  0x74, 0x48, 0x51, 0x04, 0x3e, 0x67, 0x00, 0x43, 0x5e, 0x24, 0x43, 0x00, 0x02, 0x48, 0x00, 0x02, 
  0x3e, 0x00, 0x34, 0x3e, 0x2c, 0x00, 0x43, 0x2c, 0x00, 0x48, 0x31, 0x24, 0x43, 0x00, 0x00, 0x48, 
  0x00, 0x06, 0x3e, 0x00, 0x81, 0x10, 0x43, 0x59, 0x04, 0x3e, 0x5c, 0x0a, 0x48, 0x4a, 0x18, 0x43, 
  0x00, 0x04, 0x3e, 0x00, 0x04, 0x48, 0x00, 0x30, 0x3e, 0x32, 0x06, 0x43, 0x2d, 0x06, 0x48, 0x32, 
  0x24, 0x3e, 0x00, 0x00, 0x43, 0x00, 0x0c, 0x48, 0x00, 0x81, 0x12, 0x43, 0x58, 0x04, 0x3e, 0x5e, 
  0x00, 0x48, 0x57, 0x85, 0x6a, 0x43, 0x00, 0x0a, 0x3e, 0x00, 0x00, 0x48, 0x00, 0x8a, 0x2a, 0x4e, 
  0x60, 0x46, 0x5a, 0x6f, 0x81, 0x60, 0x5a, 0x00, 0x04, 0x4e, 0x00, 0x12, 0x4c, 0x5a, 0x4e, 0x58, 
  0x5f, 0x81, 0x22, 0x58, 0x00, 0x12, 0x4c, 0x00, 0x02, 0x4e, 0x52, 0x56, 0x5a, 0x65, 0x81, 0x20, 
  0x5a, 0x00, 0x06, 0x4e, 0x00, 0x18, 0x4c, 0x4f, 0x56, 0x58, 0x55, 0x83, 0x72, 0x58, 0x00, 0x08, 
  0x4c, 0x00, 0x9a, 0x3c, 0x4c, 0x52, 0x40, 0x58, 0x71, 0x81, 0x32, 0x4c, 0x00, 0x22, 0x58, 0x00, 
  0x00, 0x4a, 0x5d, 0x50, 0x56, 0x5e, 0x81, 0x04, 0x56, 0x00, 0x0a, 0x4a, 0x00, 0x24, 0x4c, 0x49, 
  0x40, 0x58, 0x60, 0x81, 0x0c, 0x58, 0x00, 0x04, 0x4c, 0x00, 0x10, 0x4a, 0x52, 0x5a, 0x56, 0x51, 
  0x84, 0x30, 0x56, 0x00, 0x18, 0x4a, 0x00, 0x94, 0x1a, 0x3c, 0x49, 0x40, 0x35, 0x49, 0x40, 0x3c, 
  0x00, 0x00, 0x41, 0x49, 0x40, 0x35, 0x00, 0x00, 0x3a, 0x48, 0x40, 0x41, 0x00, 0x00, 0x46, 0x48, 
  0x40, 0x3a, 0x00, 0x00, 0x33, 0x4d, 0x40, 0x46, 0x00, 0x00, 0x3f, 0x4d, 0x40, 0x33, 0x00, 0x00, 
  0x38, 0x4c, 0x40, 0x3f, 0x00, 0x00, 0x44, 0x4c, 0x40, 0x38, 0x00, 0x00, 0x3d, 0x50, 0x40, 0x44, 
  0x00, 0x00, 0x49, 0x52, 0x40, 0x3d, 0x00, 0x00, 0x3a, 0x5b, 0x40, 0x49, 0x00, 0x00, 0x46, 0x5b, 
  0x40, 0x3a, 0x00, 0x00, 0x3f, 0x5c, 0x40, 0x46, 0x00, 0x00, 0x4b, 0x5c, 0x40, 0x3f, 0x00, 0x00, 
  0x44, 0x62, 0x40, 0x4b, 0x00, 0x00, 0x50, 0x64, 0x40, 0x44, 0x00, 0x00, 0x42, 0x66, 0x40, 0x50, 
  0x00, 0x00, 0x4e, 0x67, 0x40, 0x42, 0x00, 0x00, 0x47, 0x69, 0x40, 0x4e, 0x00, 0x00, 0x53, 0x66, 
  0x40, 0x47, 0x00, 0x00, 0x53, 0x00, 0x00, 0x2b, 0x7f, 0x00, 0x48, 0x7f, 0x00, 0x54, 0x7f, 0x84, 
  0x40, 0x48, 0x00, 0x00, 0x54, 0x00, 0x00, 0x51, 0x57, 0x40, 0x52, 0x5d, 0x40, 0x59, 0x63, 0x85, 
  0x00, 0x41, 0x7b, 0x5c, 0x41, 0x00, 0x04, 0x43, 0x59, 0x43, 0x43, 0x00, 0x1d, 0x46, 0x6a, 0x55, 
  0x46, 0x00, 0x0b, 0x43, 0x5f, 0x44, 0x43, 0x00, 0x1c, 0x48, 0x7d, 0x60, 0x46, 0x63, 0x13, 0x48, 
  0x00, 0x3f, 0x46, 0x00, 0x0e, 0x43, 0x53, 0x5d, 0x43, 0x00, 0x03, 0x48, 0x61, 0x13, 0x49, 0x4f, 
  0x1c, 0x4a, 0x73, 0x0e, 0x48, 0x00, 0x1d, 0x49, 0x00, 0x36, 0x4a, 0x00, 0x33, 0x48, 0x67, 0x5d, 
  0x46, 0x6f, 0x03, 0x48, 0x00, 0x44, 0x46, 0x00, 0x19, 0x43, 0x67, 0x4a, 0x43, 0x00, 0x16, 0x41, 
  0x5d, 0x40, 0x41, 0x00, 0x20, 0x3c, 0x5d, 0x60, 0x3c, 0x00, 0x00, 0x3a, 0x69, 0x81, 0x40, 0x2b, 
  0x00, 0x00, 0x51, 0x00, 0x60, 0x52, 0x00, 0x00, 0x59, 0x00, 0x88, 0x20, 0x3a, 0x00, 0x95, 0x00, 
  0x41, 0x7b, 0x5c, 0x41, 0x00, 0x04, 0x43, 0x59, 0x43, 0x43, 0x00, 0x1d, 0x46, 0x6a, 0x55, 0x46, 
  0x00, 0x6b, 0x48, 0x7d, 0x60, 0x4d, 0x60, 0x13, 0x48, 0x00, 0x3f, 0x4d, 0x00, 0x0e, 0x52, 0x56, 
  0x5d, 0x52, 0x00, 0x03, 0x4f, 0x6e, 0x00, 0x48, 0x42, 0x20, 0x48, 0x00, 0x00, 0x4a, 0x6e, 0x40, 
  0x4a, 0x00, 0x01, 0x4f, 0x00, 0x62, 0x48, 0x67, 0x5d, 0x46, 0x6f, 0x03, 0x48, 0x00, 0x44, 0x46, 
  0x00, 0x19, 0x43, 0x67, 0x4a, 0x43, 0x00, 0x16, 0x41, 0x5d, 0x40, 0x41, 0x00, 0x00, 0x3c, 0x47, 
  0x40, 0x3c, 0x00, 0x00, 0x3a, 0x3b, 0x40, 0x3a, 0x00, 0x00, 0x33, 0x69, 0x8a, 0x40, 0x33, 0x00, 
  0x9f, 0x40, 0x41, 0x7f, 0x00, 0x37, 0x7e, 0x00, 0x3c, 0x7f, 0x60, 0x41, 0x00, 0x00, 0x37, 0x00, 
  0x00, 0x3c, 0x00, 0x20, 0x41, 0x31, 0x00, 0x37, 0x31, 0x00, 0x3c, 0x31, 0x60, 0x41, 0x00, 0x00, 
  0x37, 0x00, 0x00, 0x3c, 0x00, 0x40, 0x35, 0x7d, 0x00, 0x3f, 0x7f, 0x00, 0x3a, 0x7f, 0x60, 0x35, 
  0x00, 0x00, 0x3f, 0x00, 0x00, 0x3a, 0x00, 0x20, 0x3f, 0x31, 0x00, 0x35, 0x31, 0x00, 0x3a, 0x31, 
  0x60, 0x3f, 0x00, 0x00, 0x35, 0x00, 0x00, 0x3a, 0x00, 0x40, 0x46, 0x7f, 0x00, 0x41, 0x7f, 0x00, 
  0x3c, 0x7f, 0x86, 0x00, 0x46, 0x00, 0x00, 0x41, 0x00, 0x00, 0x3c, 0x00, 0x00, 0x3c, 0x49, 0x40, 
  0x35, 0x49, 0x40, 0x3c, 0x00, 0x00, 0x41, 0x49, 0x40, 0x35, 0x00, 0x00, 0x3a, 0x48, 0x40, 0x41, 
  0x00, 0x00, 0x46, 0x48, 0x40, 0x3a, 0x00, 0x00, 0x33, 0x4d, 0x40, 0x46, 0x00, 0x00, 0x3f, 0x4d, 
  0x40, 0x33, 0x00, 0x00, 0x38, 0x4c, 0x40, 0x3f, 0x00, 0x00, 0x44, 0x4c, 0x40, 0x38, 0x00, 0x00, 
  0x3d, 0x50, 0x40, 0x44, 0x00, 0x00, 0x49, 0x52, 0x40, 0x3d, 0x00, 0x00, 0x3a, 0x5b, 0x40, 0x49, 
  0x00, 0x00, 0x46, 0x5b, 0x40, 0x3a, 0x00, 0x00, 0x3f, 0x5c, 0x40, 0x46, 0x00, 0x00, 0x4b, 0x5c, 
  0x40, 0x3f, 0x00, 0x00, 0x44, 0x62, 0x40, 0x4b, 0x00, 0x00, 0x50, 0x64, 0x40, 0x44, 0x00, 0x00, 
  0x42, 0x66, 0x40, 0x50, 0x00, 0x00, 0x4e, 0x67, 0x40, 0x42, 0x00, 0x00, 0x47, 0x69, 0x40, 0x4e, 
  0x00, 0x00, 0x53, 0x66, 0x40, 0x47, 0x00, 0x00, 0x53, 0x00, 0x00, 0x4f, 0x7f, 0x00, 0x46, 0x7f, 
  0x00, 0x41, 0x7e, 0x00, 0x4b, 0x7f, 0x60, 0x4f, 0x00, 0x00, 0x46, 0x00, 0x00, 0x41, 0x00, 0x00, 
  0x4b, 0x00, 0x20, 0x4f, 0x38, 0x00, 0x46, 0x38, 0x00, 0x41, 0x38, 0x00, 0x4b, 0x38, 0x60, 0x4f, 
  0x00, 0x00, 0x46, 0x00, 0x00, 0x41, 0x00, 0x00, 0x4b, 0x00, 0x40, 0x4d, 0x7f, 0x00, 0x44, 0x7f, 
  0x00, 0x49, 0x7f, 0x00, 0x3f, 0x7f, 0x60, 0x4d, 0x00, 0x00, 0x44, 0x00, 0x00, 0x49, 0x00, 0x00, 
  0x3f, 0x00, 0x20, 0x49, 0x38, 0x00, 0x3f, 0x38, 0x00, 0x44, 0x38, 0x00, 0x4d, 0x38, 0x60, 0x49, 
  0x00, 0x00, 0x3f, 0x00, 0x00, 0x44, 0x00, 0x00, 0x4d, 0x00, 0x40, 0x4f, 0x7f, 0x00, 0x54, 0x7f, 
  0x00, 0x4d, 0x7f, 0x00, 0x48, 0x7f, 0x89, 0x00, 0x4f, 0x00, 0x00, 0x54, 0x00, 0x00, 0x4d, 0x00, 
  0x00, 0x48, 0x00, 0x00, 0xff, 0x2f, 0x00, 0x4d, 0x54, 0x72, 0x6b, 0x00, 0x00, 0x05, 0x7f, 0x00, 
  0xff, 0x03, 0x09, 0x46, 0x69, 0x6e, 0x67, 0x65, 0x72, 0x20, 0x42, 0x61, 0x00, 0xc3, 0x21, 0x00, 
  0xb3, 0x07, 0x7f, 0x00, 0x0a, 0x40, 0x00, 0x79, 0x00, 0x00, 0x5b, 0x08, 0x00, 0x5d, 0x00, 0x00, 
  0x01, 0x00, 0x00, 0xe3, 0x00, 0x40, 0x00, 0x93, 0x29, 0x7e, 0x60, 0x2b, 0x63, 0x04, 0x29, 0x00, 
  0x42, 0x2b, 0x00, 0x1a, 0x2e, 0x62, 0x5d, 0x2e, 0x00, 0x03, 0x2b, 0x51, 0x30, 0x2b, 0x00, 0x30, 
  0x30, 0x74, 0x60, 0x2e, 0x55, 0x02, 0x30, 0x00, 0x59, 0x2e, 0x00, 0x05, 0x2b, 0x54, 0x52, 0x2b, 
  0x00, 0x0e, 0x30, 0x7f, 0x37, 0xe3, 0x02, 0x44, 0x03, 0x66, 0x4c, 0x08, 0x0c, 0x59, 0x06, 0x53, 
  0x67, 0x0a, 0x3b, 0x77, 0x14, 0x7f, 0x7f, 0x17, 0x93, 0x30, 0x00, 0x3e, 0xe3, 0x3f, 0x7e, 0x05, 
  0x93, 0x30, 0x7e, 0x01, 0xe3, 0x00, 0x40, 0x5f, 0x93, 0x2e, 0x6e, 0x29, 0x30, 0x00, 0x37, 0x2b, 
  0x52, 0x18, 0x2e, 0x00, 0x3b, 0x2b, 0x00, 0x0d, 0x29, 0x62, 0x51, 0x29, 0x00, 0x0f, 0x24, 0x6d, 
  0x58, 0x24, 0x00, 0x08, 0x22, 0x78, 0x8c, 0x00, 0x22, 0x00, 0x93, 0x40, 0x30, 0x7e, 0x60, 0x32, 
  0x63, 0x04, 0x30, 0x00, 0x42, 0x32, 0x00, 0x1a, 0x35, 0x62, 0x5d, 0x35, 0x00, 0x03, 0x26, 0x51, 
  0x30, 0x26, 0x00, 0x30, 0x30, 0x74, 0x60, 0x2e, 0x55, 0x02, 0x30, 0x00, 0x59, 0x2e, 0x00, 0x05, 
  0x29, 0x54, 0x52, 0x29, 0x00, 0x0e, 0x2b, 0x7f, 0x7d, 0x2b, 0x00, 0x43, 0x29, 0x7e, 0x60, 0x26, 
  0x6e, 0x29, 0x29, 0x00, 0x37, 0x24, 0x52, 0x18, 0x26, 0x00, 0x3b, 0x24, 0x00, 0x0d, 0x22, 0x62, 
  0x51, 0x22, 0x00, 0x0f, 0x1d, 0x6d, 0x58, 0x1d, 0x00, 0x08, 0x1b, 0x78, 0x9f, 0x40, 0x1b, 0x00, 
  0x00, 0x22, 0x7f, 0x60, 0x22, 0x00, 0x00, 0x27, 0x68, 0x60, 0x27, 0x00, 0x00, 0x29, 0x62, 0x3c, 
  0x29, 0x00, 0x04, 0x2e, 0x6e, 0x40, 0x30, 0x54, 0x02, 0x2e, 0x00, 0x3e, 0x32, 0x60, 0x08, 0x30, 
  0x00, 0x3b, 0xe3, 0x40, 0x41, 0x0a, 0x09, 0x53, 0x06, 0x35, 0x6a, 0x04, 0x78, 0x71, 0x07, 0x19, 
  0x72, 0x07, 0x58, 0x71, 0x0a, 0x17, 0x6f, 0x09, 0x32, 0x65, 0x06, 0x2a, 0x55, 0x04, 0x44, 0x48, 
  0x07, 0x21, 0x42, 0x06, 0x00, 0x40, 0x72, 0x93, 0x32, 0x00, 0x1f, 0x30, 0x64, 0x60, 0x30, 0x00, 
  0x60, 0x2e, 0x72, 0x40, 0x2e, 0x00, 0x00, 0x2b, 0x50, 0x34, 0x2b, 0x00, 0x0c, 0x29, 0x62, 0x40, 
  0x29, 0x00, 0x00, 0x27, 0x74, 0x60, 0x27, 0x00, 0x00, 0x24, 0x64, 0x60, 0x24, 0x00, 0x00, 0x22, 
  0x5a, 0x56, 0xb3, 0x07, 0x7f, 0x0a, 0x93, 0x22, 0x00, 0x00, 0x21, 0x7f, 0x66, 0xb3, 0x07, 0x7a, 
  0x10, 0x07, 0x6e, 0x10, 0x07, 0x62, 0x10, 0x07, 0x56, 0x10, 0x07, 0x4b, 0x10, 0x07, 0x3f, 0x0a, 
  0x93, 0x21, 0x00, 0x06, 0xb3, 0x07, 0x33, 0x50, 0x07, 0x7f, 0x0a, 0x93, 0x1f, 0x7f, 0x70, 0xb3, 
  0x07, 0x71, 0x10, 0x07, 0x6b, 0x06, 0x07, 0x65, 0x10, 0x07, 0x5a, 0x10, 0x07, 0x4f, 0x10, 0x07, 
  0x45, 0x0a, 0x93, 0x1f, 0x00, 0x06, 0xb3, 0x07, 0x3a, 0x30, 0x07, 0x31, 0x20, 0x07, 0x7f, 0x0a, 
  0x93, 0x20, 0x7f, 0x8d, 0x40, 0x20, 0x00, 0x83, 0x00, 0x1d, 0x7d, 0x60, 0x1d, 0x00, 0x60, 0x1f, 
  0x7f, 0x60, 0x1f, 0x00, 0x60, 0x22, 0x7f, 0x60, 0x22, 0x00, 0x00, 0x1f, 0x76, 0x60, 0x1f, 0x00, 
  0x60, 0x24, 0x7f, 0x60, 0x24, 0x00, 0x60, 0x22, 0x7e, 0x60, 0x22, 0x00, 0x00, 0x1f, 0x6d, 0x60, 
  0x1f, 0x00, 0x00, 0x24, 0x7f, 0x1a, 0xe3, 0x44, 0x48, 0x06, 0x0c, 0x59, 0x05, 0x54, 0x68, 0x08, 
  0x1c, 0x78, 0x09, 0x7f, 0x7f, 0x2a, 0x93, 0x24, 0x00, 0x29, 0xe3, 0x3f, 0x7f, 0x13, 0x50, 0x61, 
  0x0a, 0x01, 0x42, 0x06, 0x00, 0x40, 0x14, 0x93, 0x24, 0x7f, 0x60, 0x24, 0x00, 0x00, 0x22, 0x78, 
  0x60, 0x22, 0x00, 0x00, 0x1f, 0x67, 0x60, 0x1f, 0x00, 0x00, 0x1d, 0x7f, 0x60, 0x1d, 0x00, 0x00, 
  0x1f, 0x6d, 0x60, 0x1f, 0x00, 0x60, 0x22, 0x7f, 0x54, 0x22, 0x00, 0x6c, 0x1f, 0x7d, 0x60, 0x1f, 
  0x00, 0x00, 0x24, 0x7f, 0x40, 0x24, 0x00, 0x20, 0x22, 0x75, 0x40, 0x22, 0x00, 0x20, 0x1f, 0x74, 
  0x3f, 0x1f, 0x00, 0x21, 0x29, 0x74, 0x3c, 0x29, 0x00, 0x24, 0x1f, 0x71, 0x57, 0x1f, 0x00, 0x09, 
  0x2b, 0x6f, 0x44, 0x2b, 0x00, 0x1c, 0x1d, 0x7d, 0x60, 0x1d, 0x00, 0x60, 0x1f, 0x7f, 0x60, 0x1f, 
  0x00, 0x60, 0x22, 0x7f, 0x60, 0x22, 0x00, 0x00, 0x1f, 0x76, 0x60, 0x1f, 0x00, 0x60, 0x24, 0x7f, 
  0x60, 0x24, 0x00, 0x60, 0x22, 0x7e, 0x60, 0x22, 0x00, 0x00, 0x1f, 0x6d, 0x60, 0x1f, 0x00, 0x00, 
  0x24, 0x7f, 0x1a, 0xe3, 0x44, 0x48, 0x06, 0x0c, 0x59, 0x05, 0x54, 0x68, 0x08, 0x1c, 0x78, 0x09, 
  0x7f, 0x7f, 0x2a, 0x93, 0x24, 0x00, 0x29, 0xe3, 0x3f, 0x7f, 0x13, 0x50, 0x61, 0x0a, 0x01, 0x42, 
  0x06, 0x00, 0x40, 0x14, 0x93, 0x24, 0x7f, 0x60, 0x24, 0x00, 0x00, 0x22, 0x78, 0x60, 0x22, 0x00, 
  0x00, 0x1f, 0x67, 0x60, 0x1f, 0x00, 0x00, 0x1d, 0x7d, 0x60, 0x1d, 0x00, 0x00, 0x1f, 0x7f, 0x60, 
  0x1f, 0x00, 0x00, 0x24, 0x74, 0x60, 0x29, 0x68, 0x02, 0x24, 0x00, 0x5e, 0x29, 0x00, 0x00, 0x2b, 
  0x72, 0x60, 0x2b, 0x00, 0x00, 0x30, 0x7f, 0x37, 0xe3, 0x02, 0x44, 0x03, 0x66, 0x4c, 0x08, 0x0c, 
  0x59, 0x06, 0x53, 0x67, 0x0a, 0x3b, 0x77, 0x14, 0x7f, 0x7f, 0x17, 0x93, 0x30, 0x00, 0x3e, 0xe3, 
  0x3f, 0x7e, 0x05, 0x93, 0x30, 0x7e, 0x01, 0xe3, 0x00, 0x40, 0x5f, 0x93, 0x2e, 0x6e, 0x29, 0x30, 
  0x00, 0x37, 0x2b, 0x52, 0x18, 0x2e, 0x00, 0x3b, 0x2b, 0x00, 0x0d, 0x29, 0x62, 0x51, 0x29, 0x00, 
  0x0f, 0x24, 0x6d, 0x58, 0x24, 0x00, 0x08, 0x1b, 0x7f, 0x83, 0x00, 0x1b, 0x00, 0x00, 0x1e, 0x7f, 
  0x82, 0x20, 0x1e, 0x00, 0x00, 0x23, 0x7f, 0x83, 0x00, 0x23, 0x00, 0x00, 0x21, 0x7f, 0x82, 0x20, 
  0x21, 0x00, 0x00, 0x20, 0x7f, 0x66, 0xb3, 0x07, 0x7a, 0x10, 0x07, 0x6e, 0x10, 0x07, 0x62, 0x10, 
  0x07, 0x56, 0x10, 0x07, 0x4b, 0x10, 0x07, 0x3f, 0x0a, 0x93, 0x20, 0x00, 0x06, 0xb3, 0x07, 0x33, 
  0x50, 0x07, 0x7f, 0x0a, 0x93, 0x19, 0x7f, 0x70, 0xb3, 0x07, 0x71, 0x10, 0x07, 0x6b, 0x06, 0x07, 
  0x65, 0x10, 0x07, 0x5a, 0x10, 0x07, 0x4f, 0x10, 0x07, 0x45, 0x0a, 0x93, 0x19, 0x00, 0x06, 0xb3, 
  0x07, 0x3a, 0x30, 0x07, 0x31, 0x20, 0x07, 0x7f, 0x0a, 0x93, 0x1d, 0x7f, 0x8d, 0x40, 0x1d, 0x00, 
  0x8d, 0x40, 0xc3, 0x5f, 0x00, 0xb3, 0x07, 0x68, 0x00, 0x0a, 0x40, 0x02, 0x93, 0x22, 0x7f, 0x9f, 
  0x3e, 0x3e, 0x51, 0x00, 0x45, 0x51, 0x00, 0x4d, 0x51, 0x8a, 0x36, 0x22, 0x00, 0x0a, 0x27, 0x7f, 
  0x85, 0x62, 0x3e, 0x00, 0x00, 0x45, 0x00, 0x00, 0x4d, 0x00, 0x99, 0x5e, 0x48, 0x51, 0x00, 0x4f, 
  0x51, 0x00, 0x3e, 0x51, 0x8a, 0x34, 0x27, 0x00, 0x0c, 0x24, 0x7c, 0x85, 0x44, 0x3e, 0x00, 0x1e, 
  0x48, 0x00, 0x0a, 0x4f, 0x00, 0x99, 0x54, 0x40, 0x51, 0x00, 0x47, 0x51, 0x00, 0x4f, 0x51, 0x8a, 
  0x34, 0x24, 0x00, 0x0c, 0x29, 0x7c, 0x85, 0x62, 0x40, 0x00, 0x00, 0x47, 0x00, 0x00, 0x4f, 0x00, 
  0x99, 0x5e, 0x41, 0x51, 0x00, 0x4f, 0x51, 0x00, 0x48, 0x51, 0x8a, 0x34, 0x29, 0x00, 0x0c, 0x1f, 
  0x7f, 0x92, 0x60, 0x4f, 0x00, 0x60, 0x48, 0x00, 0x60, 0x41, 0x00, 0x00, 0xc3, 0x21, 0x60, 0x93, 
  0x1f, 0x00, 0x00, 0xb3, 0x07, 0x7f, 0x00, 0x93, 0x22, 0x78, 0x8c, 0x00, 0x22, 0x00, 0x93, 0x40, 
  0x30, 0x7e, 0x60, 0x32, 0x63, 0x04, 0x30, 0x00, 0x42, 0x32, 0x00, 0x1a, 0x35, 0x62, 0x5d, 0x35, 
  0x00, 0x03, 0x26, 0x51, 0x30, 0x26, 0x00, 0x30, 0x30, 0x74, 0x60, 0x2e, 0x55, 0x02, 0x30, 0x00, 
  0x59, 0x2e, 0x00, 0x05, 0x29, 0x54, 0x52, 0x29, 0x00, 0x0e, 0x2b, 0x7f, 0x7d, 0x2b, 0x00, 0x43, 
  0x29, 0x7e, 0x60, 0x26, 0x6e, 0x29, 0x29, 0x00, 0x37, 0x24, 0x52, 0x18, 0x26, 0x00, 0x3b, 0x24, 
  0x00, 0x0d, 0x22, 0x62, 0x51, 0x22, 0x00, 0x0f, 0x1d, 0x6d, 0x58, 0x1d, 0x00, 0x08, 0x1b, 0x78, 
  0x9f, 0x40, 0x1b, 0x00, 0x00, 0x22, 0x7f, 0x60, 0x22, 0x00, 0x00, 0x27, 0x68, 0x60, 0x27, 0x00, 
  0x00, 0x29, 0x62, 0x3c, 0x29, 0x00, 0x04, 0x2e, 0x6e, 0x40, 0x30, 0x54, 0x02, 0x2e, 0x00, 0x3e, 
  0x32, 0x60, 0x08, 0x30, 0x00, 0x3b, 0xe3, 0x40, 0x41, 0x0a, 0x09, 0x53, 0x06, 0x35, 0x6a, 0x04, 
  0x78, 0x71, 0x07, 0x19, 0x72, 0x07, 0x58, 0x71, 0x0a, 0x17, 0x6f, 0x09, 0x32, 0x65, 0x06, 0x2a, 
  0x55, 0x04, 0x44, 0x48, 0x07, 0x21, 0x42, 0x06, 0x00, 0x40, 0x72, 0x93, 0x32, 0x00, 0x1f, 0x30, 
  0x64, 0x60, 0x30, 0x00, 0x60, 0x2e, 0x72, 0x40, 0x2e, 0x00, 0x00, 0x2b, 0x50, 0x34, 0x2b, 0x00, 
  0x0c, 0x29, 0x62, 0x40, 0x29, 0x00, 0x00, 0x27, 0x74, 0x60, 0x27, 0x00, 0x00, 0x24, 0x64, 0x60, 
  0x24, 0x00, 0x00, 0x22, 0x5a, 0x56, 0xb3, 0x07, 0x7f, 0x0a, 0x93, 0x22, 0x00, 0x00, 0x21, 0x7f, 
  0x66, 0xb3, 0x07, 0x7a, 0x10, 0x07, 0x6e, 0x10, 0x07, 0x62, 0x10, 0x07, 0x56, 0x10, 0x07, 0x4b, 
  0x10, 0x07, 0x3f, 0x0a, 0x93, 0x21, 0x00, 0x06, 0xb3, 0x07, 0x33, 0x50, 0x07, 0x7f, 0x0a, 0x93, 
  0x1f, 0x7f, 0x70, 0xb3, 0x07, 0x71, 0x10, 0x07, 0x6b, 0x06, 0x07, 0x65, 0x10, 0x07, 0x5a, 0x10, 
  0x07, 0x4f, 0x10, 0x07, 0x45, 0x0a, 0x93, 0x1f, 0x00, 0x06, 0xb3, 0x07, 0x3a, 0x30, 0x07, 0x31, 
  0x20, 0x07, 0x7f, 0x0a, 0x93, 0x20, 0x7f, 0x8d, 0x40, 0x20, 0x00, 0x83, 0x00, 0x20, 0x7f, 0x66, 
  0xb3, 0x07, 0x7a, 0x10, 0x07, 0x6e, 0x10, 0x07, 0x62, 0x10, 0x07, 0x56, 0x10, 0x07, 0x4b, 0x10, 
  0x07, 0x3f, 0x0a, 0x93, 0x20, 0x00, 0x06, 0xb3, 0x07, 0x33, 0x50, 0x07, 0x7f, 0x0a, 0x93, 0x19, 
  0x7f, 0x70, 0xb3, 0x07, 0x71, 0x10, 0x07, 0x6b, 0x06, 0x07, 0x65, 0x10, 0x07, 0x5a, 0x10, 0x07, 
  0x4f, 0x10, 0x07, 0x45, 0x0a, 0x93, 0x19, 0x00, 0x06, 0xb3, 0x07, 0x3a, 0x30, 0x07, 0x31, 0x20, 
  0x07, 0x7f, 0x0a, 0x93, 0x1d, 0x7f, 0x89, 0x20, 0x1d, 0x00, 0x00, 0xff, 0x2f, 0x00, 0x4d, 0x54, 
  0x72, 0x6b, 0x00, 0x00, 0x02, 0xf0, 0x00, 0xff, 0x03, 0x07, 0x4d, 0x61, 0x72, 0x69, 0x6d, 0x62, 
  0x61, 0x00, 0xc4, 0x0c, 0x00, 0xb4, 0x07, 0x6b, 0x00, 0x0a, 0x20, 0x00, 0x79, 0x00, 0x00, 0x5b, 
  0x20, 0x00, 0x5d, 0x00, 0x8a, 0x40, 0x01, 0x00, 0x00, 0x94, 0x35, 0x7b, 0x5c, 0x35, 0x00, 0x64, 
  0x3a, 0x6a, 0x55, 0x3a, 0x00, 0x6b, 0x3c, 0x7d, 0x60, 0x3c, 0x00, 0x00, 0x3a, 0x60, 0x52, 0x3a, 
  0x00, 0x6e, 0x3e, 0x6e, 0x61, 0x3e, 0x00, 0x62, 0x3c, 0x67, 0x5d, 0x3a, 0x6f, 0x03, 0x3c, 0x00, 
  0x44, 0x3a, 0x00, 0x79, 0x37, 0x5d, 0x40, 0x37, 0x00, 0x81, 0x00, 0x35, 0x7b, 0x5c, 0x35, 0x00, 
  0x64, 0x3a, 0x6a, 0x55, 0x3a, 0x00, 0x6b, 0x3c, 0x7d, 0x60, 0x3c, 0x00, 0x00, 0x3a, 0x60, 0x52, 
  0x3a, 0x00, 0x6e, 0x3e, 0x6e, 0x61, 0x3e, 0x00, 0x62, 0x3c, 0x67, 0x5d, 0x3a, 0x6f, 0x03, 0x3c, 
  0x00, 0x44, 0x3a, 0x00, 0x79, 0x37, 0x5d, 0x40, 0x37, 0x00, 0x81, 0x00, 0x35, 0x7b, 0x5c, 0x35, 
  0x00, 0x64, 0x3a, 0x6a, 0x55, 0x3a, 0x00, 0x6b, 0x3c, 0x7d, 0x60, 0x3c, 0x00, 0x00, 0x3a, 0x60, 
  0x52, 0x3a, 0x00, 0x6e, 0x3e, 0x6e, 0x61, 0x3e, 0x00, 0x62, 0x3c, 0x67, 0x5d, 0x3a, 0x6f, 0x03, 
  0x3c, 0x00, 0x44, 0x3a, 0x00, 0x79, 0x37, 0x5d, 0x40, 0x37, 0x00, 0x81, 0x00, 0x35, 0x7b, 0x5c, 
  0x35, 0x00, 0x89, 0x64, 0x35, 0x7b, 0x5c, 0x35, 0x00, 0x64, 0x3a, 0x6a, 0x55, 0x3a, 0x00, 0x6b, 
  0x3c, 0x7d, 0x60, 0x3c, 0x00, 0x00, 0x3a, 0x60, 0x52, 0x3a, 0x00, 0x6e, 0x3e, 0x6e, 0x61, 0x3e, 
  0x00, 0x62, 0x3c, 0x67, 0x5d, 0x3a, 0x6f, 0x03, 0x3c, 0x00, 0x44, 0x3a, 0x00, 0x79, 0x37, 0x5d, 
  0x40, 0x37, 0x00, 0x81, 0x00, 0x35, 0x7b, 0x5c, 0x35, 0x00, 0x64, 0x3a, 0x6a, 0x55, 0x3a, 0x00, 
  0x6b, 0x3c, 0x7d, 0x60, 0x3c, 0x00, 0x00, 0x3a, 0x60, 0x52, 0x3a, 0x00, 0x6e, 0x3e, 0x6e, 0x61, 
  0x3e, 0x00, 0x62, 0x3c, 0x67, 0x5d, 0x3a, 0x6f, 0x03, 0x3c, 0x00, 0x44, 0x3a, 0x00, 0x79, 0x37, 
  0x5d, 0x40, 0x37, 0x00, 0x81, 0x00, 0x35, 0x7b, 0x5c, 0x35, 0x00, 0x64, 0x3a, 0x6a, 0x55, 0x3a, 
  0x00, 0x6b, 0x3c, 0x7d, 0x60, 0x3c, 0x00, 0x00, 0x3a, 0x60, 0x52, 0x3a, 0x00, 0x6e, 0x3e, 0x6e, 
  0x61, 0x3e, 0x00, 0x62, 0x3c, 0x67, 0x5d, 0x3a, 0x6f, 0x03, 0x3c, 0x00, 0x44, 0x3a, 0x00, 0x79, 
  0x37, 0x5d, 0x40, 0x37, 0x00, 0x81, 0x00, 0x35, 0x7b, 0x5c, 0x35, 0x00, 0x64, 0x3a, 0x6a, 0x55, 
  0x3a, 0x00, 0x6b, 0x3e, 0x7d, 0x60, 0x3e, 0x00, 0x00, 0x3a, 0x60, 0x52, 0x3a, 0x00, 0x6e, 0x3c, 
  0x6e, 0x61, 0x3c, 0x00, 0xc3, 0x3f, 0x35, 0x6e, 0x5c, 0x35, 0x00, 0x64, 0x3a, 0x5f, 0x55, 0x3a, 
  0x00, 0x6b, 0x3f, 0x70, 0x60, 0x3f, 0x00, 0x00, 0x3d, 0x56, 0x52, 0x3d, 0x00, 0x6e, 0x44, 0x63, 
  0x61, 0x44, 0x00, 0x62, 0x42, 0x5c, 0x5d, 0x40, 0x63, 0x03, 0x42, 0x00, 0x44, 0x40, 0x00, 0x79, 
  0x40, 0x53, 0x40, 0x40, 0x00, 0x81, 0xdd, 0x40, 0x35, 0x7b, 0x5c, 0x35, 0x00, 0x64, 0x3a, 0x6a, 
  0x55, 0x3a, 0x00, 0x6b, 0x3c, 0x7d, 0x60, 0x3c, 0x00, 0x00, 0x3a, 0x60, 0x52, 0x3a, 0x00, 0x6e, 
  0x3e, 0x6e, 0x61, 0x3e, 0x00, 0x62, 0x3c, 0x67, 0x5d, 0x3a, 0x6f, 0x03, 0x3c, 0x00, 0x44, 0x3a, 
  0x00, 0x79, 0x37, 0x5d, 0x40, 0x37, 0x00, 0x81, 0x00, 0x35, 0x7b, 0x5c, 0x35, 0x00, 0x64, 0x3a, 
  0x6a, 0x55, 0x3a, 0x00, 0x6b, 0x3c, 0x7d, 0x60, 0x3c, 0x00, 0x00, 0x3a, 0x60, 0x52, 0x3a, 0x00, 
  0x6e, 0x3e, 0x6e, 0x61, 0x3e, 0x00, 0x62, 0x3c, 0x67, 0x5d, 0x3a, 0x6f, 0x03, 0x3c, 0x00, 0x44, 
  0x3a, 0x00, 0x79, 0x37, 0x5d, 0x40, 0x37, 0x00, 0x81, 0x00, 0x35, 0x7b, 0x5c, 0x35, 0x00, 0x64, 
  0x3a, 0x6a, 0x55, 0x3a, 0x00, 0x6b, 0x3c, 0x7d, 0x60, 0x3c, 0x00, 0x00, 0x3a, 0x60, 0x52, 0x3a, 
  0x00, 0x6e, 0x3e, 0x6e, 0x61, 0x3e, 0x00, 0x62, 0x3c, 0x67, 0x5d, 0x3a, 0x6f, 0x03, 0x3c, 0x00, 
  0x44, 0x3a, 0x00, 0x79, 0x37, 0x5d, 0x40, 0x37, 0x00, 0x81, 0x00, 0x35, 0x7b, 0x5c, 0x35, 0x00, 
  0x89, 0x64, 0x35, 0x7b, 0x5c, 0x35, 0x00, 0x64, 0x3a, 0x6a, 0x55, 0x3a, 0x00, 0x6b, 0x3c, 0x7d, 
  0x60, 0x3c, 0x00, 0x00, 0x3a, 0x60, 0x52, 0x3a, 0x00, 0x6e, 0x3e, 0x6e, 0x61, 0x3e, 0x00, 0x62, 
  0x3c, 0x67, 0x5d, 0x3a, 0x6f, 0x03, 0x3c, 0x00, 0x44, 0x3a, 0x00, 0x79, 0x37, 0x5d, 0x40, 0x37, 
  0x00, 0x81, 0x00, 0x35, 0x7b, 0x5c, 0x35, 0x00, 0x64, 0x3a, 0x6a, 0x55, 0x3a, 0x00, 0x6b, 0x3c, 
  0x7d, 0x60, 0x3c, 0x00, 0x00, 0x3a, 0x60, 0x52, 0x3a, 0x00, 0x6e, 0x3e, 0x6e, 0x61, 0x3e, 0x00, 
  0x62, 0x3c, 0x67, 0x5d, 0x3a, 0x6f, 0x03, 0x3c, 0x00, 0x44, 0x3a, 0x00, 0x79, 0x37, 0x5d, 0x40, 
  0x37, 0x00, 0x81, 0x00, 0x35, 0x7b, 0x5c, 0x35, 0x00, 0x64, 0x3a, 0x6a, 0x55, 0x3a, 0x00, 0x6b, 
  0x3c, 0x7d, 0x60, 0x3c, 0x00, 0x00, 0x3a, 0x60, 0x52, 0x3a, 0x00, 0x6e, 0x3e, 0x6e, 0x61, 0x3e, 
  0x00, 0x62, 0x3c, 0x67, 0x5d, 0x3a, 0x6f, 0x03, 0x3c, 0x00, 0x44, 0x3a, 0x00, 0x79, 0x37, 0x5d, 
  0x40, 0x37, 0x00, 0x81, 0x00, 0x35, 0x7b, 0x5c, 0x35, 0x00, 0x64, 0x3a, 0x6a, 0x55, 0x3a, 0x00, 
  0x6b, 0x3e, 0x7d, 0x60, 0x3e, 0x00, 0x00, 0x3a, 0x60, 0x52, 0x3a, 0x00, 0x6e, 0x3c, 0x6e, 0x61, 
  0x3c, 0x00, 0x00, 0xff, 0x2f, 0x00, 0x4d, 0x54, 0x72, 0x6b, 0x00, 0x00, 0x02, 0xe4, 0x00, 0xff, 
  0x03, 0x07, 0x4b, 0x61, 0x6c, 0x69, 0x6d, 0x62, 0x61, 0x00, 0xc5, 0x6c, 0x00, 0xb5, 0x07, 0x61, 
  0x00, 0x0a, 0x60, 0x00, 0x79, 0x00, 0x00, 0x5b, 0x20, 0x00, 0x5d, 0x00, 0x8a, 0x40, 0x01, 0x00, 
  0x00, 0x95, 0x3c, 0x7f, 0x57, 0x3c, 0x00, 0x69, 0x43, 0x7f, 0x4e, 0x43, 0x00, 0x72, 0x41, 0x7f, 
  0x52, 0x41, 0x00, 0x6e, 0x43, 0x7b, 0x3d, 0x43, 0x00, 0x23, 0x3e, 0x7e, 0x59, 0x3e, 0x00, 0x67, 
  0x43, 0x7f, 0x4a, 0x43, 0x00, 0x76, 0x3c, 0x7f, 0x56, 0x3c, 0x00, 0x6a, 0x43, 0x76, 0x37, 0x43, 
  0x00, 0x29, 0x41, 0x7d, 0x5a, 0x41, 0x00, 0x66, 0x43, 0x7f, 0x49, 0x43, 0x00, 0x77, 0x3e, 0x7f, 
  0x60, 0x3e, 0x00, 0x60, 0x43, 0x7f, 0x3b, 0x43, 0x00, 0x25, 0x3c, 0x7e, 0x5c, 0x3c, 0x00, 0x64, 
  0x43, 0x7f, 0x4c, 0x43, 0x00, 0x74, 0x41, 0x7f, 0x52, 0x41, 0x00, 0x6e, 0x43, 0x7b, 0x39, 0x43, 
  0x00, 0x27, 0x3e, 0x7f, 0x65, 0x3e, 0x00, 0x5b, 0x43, 0x7f, 0x49, 0x43, 0x00, 0x77, 0x3c, 0x7f, 
  0x5c, 0x3c, 0x00, 0x64, 0x43, 0x7e, 0x32, 0x43, 0x00, 0x2e, 0x41, 0x7d, 0x57, 0x41, 0x00, 0x69, 
  0x43, 0x7f, 0x52, 0x43, 0x00, 0x6e, 0x3e, 0x7f, 0x5a, 0x3e, 0x00, 0x66, 0x43, 0x7f, 0x37, 0x43, 
  0x00, 0x29, 0x3c, 0x7f, 0x57, 0x3c, 0x00, 0x89, 0x69, 0x3c, 0x7f, 0x57, 0x3c, 0x00, 0x69, 0x43, 
  0x7f, 0x4e, 0x43, 0x00, 0x72, 0x41, 0x7f, 0x52, 0x41, 0x00, 0x6e, 0x43, 0x7b, 0x3d, 0x43, 0x00, 
  0x23, 0x3e, 0x7e, 0x59, 0x3e, 0x00, 0x67, 0x43, 0x7f, 0x4a, 0x43, 0x00, 0x76, 0x3c, 0x7f, 0x56, 
  0x3c, 0x00, 0x6a, 0x43, 0x76, 0x37, 0x43, 0x00, 0x29, 0x41, 0x7d, 0x5a, 0x41, 0x00, 0x66, 0x43, 
  0x7f, 0x49, 0x43, 0x00, 0x77, 0x3e, 0x7f, 0x60, 0x3e, 0x00, 0x60, 0x43, 0x7f, 0x3b, 0x43, 0x00, 
  0x25, 0x3c, 0x7e, 0x5c, 0x3c, 0x00, 0x64, 0x43, 0x7f, 0x4c, 0x43, 0x00, 0x74, 0x41, 0x7f, 0x52, 
  0x41, 0x00, 0x6e, 0x43, 0x7b, 0x39, 0x43, 0x00, 0x27, 0x3e, 0x7f, 0x65, 0x3e, 0x00, 0x5b, 0x43, 
  0x7f, 0x49, 0x43, 0x00, 0x77, 0x3c, 0x7f, 0x5c, 0x3c, 0x00, 0x64, 0x43, 0x7e, 0x32, 0x43, 0x00, 
  0x2e, 0x41, 0x7d, 0x57, 0x41, 0x00, 0x69, 0x43, 0x7f, 0x52, 0x43, 0x00, 0x6e, 0x3e, 0x7f, 0x5a, 
  0x3e, 0x00, 0x66, 0x43, 0x7f, 0x37, 0x43, 0x00, 0x29, 0x41, 0x7f, 0x57, 0x41, 0x00, 0x69, 0x43, 
  0x7f, 0x4e, 0x43, 0x00, 0x72, 0x3e, 0x7f, 0x52, 0x3e, 0x00, 0x6e, 0x43, 0x7b, 0x3d, 0x43, 0x00, 
  0x23, 0x3c, 0x7e, 0x59, 0x3c, 0x00, 0xc3, 0x47, 0x3c, 0x72, 0x57, 0x3c, 0x00, 0x69, 0x43, 0x72, 
  0x4e, 0x43, 0x00, 0x72, 0x44, 0x72, 0x52, 0x44, 0x00, 0x6e, 0x46, 0x6e, 0x3d, 0x46, 0x00, 0x23, 
  0x44, 0x71, 0x59, 0x44, 0x00, 0x67, 0x49, 0x72, 0x4a, 0x49, 0x00, 0x76, 0x45, 0x72, 0x56, 0x45, 
  0x00, 0x6a, 0x4c, 0x6a, 0x37, 0x4c, 0x00, 0x81, 0xdc, 0x69, 0x3c, 0x7f, 0x57, 0x3c, 0x00, 0x69, 
  0x43, 0x7f, 0x4e, 0x43, 0x00, 0x72, 0x41, 0x7f, 0x52, 0x41, 0x00, 0x6e, 0x43, 0x7b, 0x3d, 0x43, 
  0x00, 0x23, 0x3e, 0x7e, 0x59, 0x3e, 0x00, 0x67, 0x43, 0x7f, 0x4a, 0x43, 0x00, 0x76, 0x3c, 0x7f, 
  0x56, 0x3c, 0x00, 0x6a, 0x43, 0x76, 0x37, 0x43, 0x00, 0x29, 0x41, 0x7d, 0x5a, 0x41, 0x00, 0x66, 
  0x43, 0x7f, 0x49, 0x43, 0x00, 0x77, 0x3e, 0x7f, 0x60, 0x3e, 0x00, 0x60, 0x43, 0x7f, 0x3b, 0x43, 
  0x00, 0x25, 0x3c, 0x7e, 0x5c, 0x3c, 0x00, 0x64, 0x43, 0x7f, 0x4c, 0x43, 0x00, 0x74, 0x41, 0x7f, 
  0x52, 0x41, 0x00, 0x6e, 0x43, 0x7b, 0x39, 0x43, 0x00, 0x27, 0x3e, 0x7f, 0x65, 0x3e, 0x00, 0x5b, 
  0x43, 0x7f, 0x49, 0x43, 0x00, 0x77, 0x3c, 0x7f, 0x5c, 0x3c, 0x00, 0x64, 0x43, 0x7e, 0x32, 0x43, 
  0x00, 0x2e, 0x41, 0x7d, 0x57, 0x41, 0x00, 0x69, 0x43, 0x7f, 0x52, 0x43, 0x00, 0x6e, 0x3e, 0x7f, 
  0x5a, 0x3e, 0x00, 0x66, 0x43, 0x7f, 0x37, 0x43, 0x00, 0x29, 0x3c, 0x7f, 0x57, 0x3c, 0x00, 0x89, 
  0x69, 0x3c, 0x7f, 0x57, 0x3c, 0x00, 0x69, 0x43, 0x7f, 0x4e, 0x43, 0x00, 0x72, 0x41, 0x7f, 0x52, 
  0x41, 0x00, 0x6e, 0x43, 0x7b, 0x3d, 0x43, 0x00, 0x23, 0x3e, 0x7e, 0x59, 0x3e, 0x00, 0x67, 0x43, 
  0x7f, 0x4a, 0x43, 0x00, 0x76, 0x3c, 0x7f, 0x56, 0x3c, 0x00, 0x6a, 0x43, 0x76, 0x37, 0x43, 0x00, 
  0x29, 0x41, 0x7d, 0x5a, 0x41, 0x00, 0x66, 0x43, 0x7f, 0x49, 0x43, 0x00, 0x77, 0x3e, 0x7f, 0x60, 
  0x3e, 0x00, 0x60, 0x43, 0x7f, 0x3b, 0x43, 0x00, 0x25, 0x3c, 0x7e, 0x5c, 0x3c, 0x00, 0x64, 0x43, 
  0x7f, 0x4c, 0x43, 0x00, 0x74, 0x41, 0x7f, 0x52, 0x41, 0x00, 0x6e, 0x43, 0x7b, 0x39, 0x43, 0x00, 
  0x27, 0x3e, 0x7f, 0x65, 0x3e, 0x00, 0x5b, 0x43, 0x7f, 0x49, 0x43, 0x00, 0x77, 0x3c, 0x7f, 0x5c, 
  0x3c, 0x00, 0x64, 0x43, 0x7e, 0x32, 0x43, 0x00, 0x2e, 0x41, 0x7d, 0x57, 0x41, 0x00, 0x69, 0x43, 
  0x7f, 0x52, 0x43, 0x00, 0x6e, 0x3e, 0x7f, 0x5a, 0x3e, 0x00, 0x66, 0x43, 0x7f, 0x37, 0x43, 0x00, 
  0x29, 0x41, 0x7f, 0x57, 0x41, 0x00, 0x69, 0x43, 0x7f, 0x4e, 0x43, 0x00, 0x72, 0x3e, 0x7f, 0x52, 
  0x3e, 0x00, 0x6e, 0x43, 0x7b, 0x3d, 0x43, 0x00, 0x23, 0x3c, 0x7e, 0x59, 0x3c, 0x00, 0x00, 0xff, 
  0x2f, 0x00, 0x4d, 0x54, 0x72, 0x6b, 0x00, 0x00, 0x09, 0x25, 0x00, 0xff, 0x03, 0x08, 0x4a, 0x61, 
  0x7a, 0x7a, 0x20, 0x47, 0x74, 0x72, 0x00, 0xc6, 0x1a, 0x00, 0xb6, 0x07, 0x7f, 0x00, 0x0a, 0x40, 
  0x00, 0x79, 0x00, 0x00, 0x5b, 0x20, 0x00, 0x5d, 0x0c, 0x00, 0x01, 0x00, 0x00, 0xe6, 0x00, 0x40, 
  0x00, 0x96, 0x35, 0x7e, 0x60, 0x37, 0x63, 0x04, 0x35, 0x00, 0x42, 0x37, 0x00, 0x1a, 0x3a, 0x62, 
  0x5d, 0x3a, 0x00, 0x03, 0x37, 0x51, 0x30, 0x37, 0x00, 0x30, 0x3c, 0x74, 0x60, 0x3a, 0x55, 0x02, 
  0x3c, 0x00, 0x59, 0x3a, 0x00, 0x05, 0x37, 0x54, 0x52, 0x37, 0x00, 0x0e, 0x3c, 0x7f, 0x2a, 0xe6, 
  0x05, 0x4b, 0x08, 0x6e, 0x5c, 0x05, 0x78, 0x71, 0x04, 0x7f, 0x7f, 0x45, 0x96, 0x3c, 0x00, 0x18, 
  0xe6, 0x7d, 0x7b, 0x04, 0x56, 0x6d, 0x05, 0x0c, 0x58, 0x07, 0x23, 0x46, 0x08, 0x00, 0x40, 0x10, 
  0x96, 0x3c, 0x7e, 0x60, 0x3c, 0x00, 0x00, 0x3a, 0x6e, 0x60, 0x3a, 0x00, 0x00, 0x37, 0x52, 0x53, 
  0x37, 0x00, 0x0d, 0x35, 0x62, 0x51, 0x35, 0x00, 0x0f, 0x30, 0x6d, 0x58, 0x30, 0x00, 0x08, 0x2e, 
  0x78, 0x86, 0x5c, 0xe6, 0x60, 0x40, 0x04, 0x96, 0x2e, 0x00, 0x8d, 0x11, 0xe6, 0x40, 0x40, 0x0a, 
  0x00, 0x41, 0x09, 0x60, 0x40, 0x8b, 0x3c, 0x96, 0x35, 0x63, 0x60, 0x35, 0x00, 0x00, 0x37, 0x6f, 
  0x60, 0x37, 0x00, 0x00, 0x3a, 0x71, 0x60, 0x3a, 0x00, 0x00, 0x39, 0x5c, 0x60, 0x39, 0x00, 0x00, 
  0x3c, 0x76, 0x60, 0x3c, 0x00, 0x00, 0x3e, 0x65, 0x60, 0x3e, 0x00, 0x00, 0x41, 0x58, 0x60, 0x41, 
  0x00, 0x00, 0x3e, 0x73, 0x60, 0x3e, 0x00, 0x60, 0x3a, 0x71, 0x23, 0xe6, 0x63, 0x47, 0x07, 0x73, 
  0x67, 0x0a, 0x7f, 0x7f, 0x31, 0x3d, 0x7b, 0x08, 0x54, 0x69, 0x09, 0x07, 0x4e, 0x0b, 0x00, 0x40, 
  0x3f, 0x96, 0x3a, 0x00, 0x00, 0x37, 0x63, 0x60, 0x37, 0x00, 0x00, 0x35, 0x65, 0x31, 0xe6, 0x40, 
  0x40, 0x0a, 0x00, 0x41, 0x09, 0x60, 0x40, 0x0b, 0x20, 0x40, 0x06, 0x00, 0x40, 0x0b, 0x96, 0x35, 
  0x00, 0x00, 0x2e, 0x6a, 0x60, 0x2e, 0x00, 0x00, 0x27, 0x7f, 0x8a, 0x20, 0x27, 0x00, 0x9f, 0x5e, 
  0xe6, 0x00, 0x40, 0x02, 0x96, 0x39, 0x54, 0x5a, 0x39, 0x00, 0x26, 0x39, 0x31, 0x5a, 0x39, 0x00, 
  0x46, 0x37, 0x5b, 0x63, 0x37, 0x00, 0x1d, 0x37, 0x31, 0x5a, 0x37, 0x00, 0x46, 0x36, 0x66, 0x81, 
  0x39, 0xe6, 0x60, 0x40, 0x06, 0x21, 0x42, 0x06, 0x41, 0x43, 0x08, 0x22, 0x45, 0x11, 0x43, 0x47, 
  0x0a, 0x63, 0x47, 0x05, 0x42, 0x44, 0x07, 0x20, 0x41, 0x06, 0x40, 0x40, 0x07, 0x00, 0x40, 0x5f, 
  0x40, 0x40, 0x07, 0x40, 0x41, 0x07, 0x41, 0x42, 0x07, 0x22, 0x44, 0x09, 0x22, 0x45, 0x0a, 0x03, 
  0x46, 0x07, 0x23, 0x46, 0x04, 0x22, 0x45, 0x08, 0x01, 0x43, 0x09, 0x00, 0x41, 0x08, 0x20, 0x40, 
  0x13, 0x00, 0x40, 0x33, 0x41, 0x42, 0x07, 0x44, 0x48, 0x07, 0x66, 0x4c, 0x09, 0x46, 0x4d, 0x0b, 
  0x06, 0x4d, 0x06, 0x04, 0x49, 0x03, 0x01, 0x43, 0x08, 0x00, 0x40, 0x83, 0x1b, 0x96, 0x36, 0x00, 
  0x8b, 0x3b, 0xe6, 0x40, 0x40, 0x0e, 0x01, 0x42, 0x06, 0x21, 0x43, 0x09, 0x01, 0x43, 0x09, 0x20, 
  0x41, 0x04, 0x00, 0x40, 0x2e, 0x01, 0x43, 0x0c, 0x46, 0x4d, 0x06, 0x6a, 0x54, 0x09, 0x09, 0x53, 
  0x09, 0x06, 0x4c, 0x08, 0x42, 0x44, 0x04, 0x00, 0x41, 0x05, 0x00, 0x40, 0x1c, 0x20, 0x40, 0x06, 
  0x03, 0x46, 0x0e, 0x46, 0x4d, 0x06, 0x27, 0x4f, 0x05, 0x46, 0x4c, 0x06, 0x02, 0x45, 0x09, 0x00, 
  0x40, 0xa5, 0x6e, 0x96, 0x2e, 0x71, 0x83, 0x00, 0x2e, 0x00, 0x00, 0x31, 0x65, 0x82, 0x20, 0x31, 
  0x00, 0x00, 0x36, 0x71, 0x81, 0x3c, 0xe6, 0x60, 0x40, 0x81, 0x44, 0x96, 0x36, 0x00, 0x00, 0x34, 
  0x65, 0x82, 0x20, 0x34, 0x00, 0x00, 0x3c, 0x54, 0x5a, 0x3c, 0x00, 0x26, 0x3c, 0x31, 0x5a, 0x3c, 
  0x00, 0x46, 0x3a, 0x5b, 0x63, 0x3a, 0x00, 0x1d, 0x3a, 0x31, 0x5a, 0x3a, 0x00, 0x46, 0x39, 0x66, 
  0x81, 0x39, 0xe6, 0x60, 0x40, 0x06, 0x21, 0x42, 0x06, 0x41, 0x43, 0x08, 0x22, 0x45, 0x11, 0x43, 
  0x47, 0x0a, 0x63, 0x47, 0x05, 0x42, 0x44, 0x07, 0x20, 0x41, 0x06, 0x40, 0x40, 0x07, 0x00, 0x40, 
  0x5f, 0x40, 0x40, 0x07, 0x40, 0x41, 0x07, 0x41, 0x42, 0x07, 0x22, 0x44, 0x09, 0x22, 0x45, 0x0a, 
  0x03, 0x46, 0x07, 0x23, 0x46, 0x04, 0x22, 0x45, 0x08, 0x01, 0x43, 0x09, 0x00, 0x41, 0x08, 0x20, 
  0x40, 0x13, 0x00, 0x40, 0x33, 0x41, 0x42, 0x07, 0x44, 0x48, 0x07, 0x66, 0x4c, 0x09, 0x46, 0x4d, 
  0x0b, 0x06, 0x4d, 0x06, 0x04, 0x49, 0x03, 0x01, 0x43, 0x08, 0x00, 0x40, 0x81, 0x5b, 0x96, 0x39, 
  0x00, 0x00, 0xb6, 0x07, 0x42, 0x00, 0x0a, 0x76, 0x00, 0x96, 0x35, 0x35, 0x5c, 0x41, 0x37, 0x0c, 
  0x35, 0x00, 0x3c, 0x41, 0x00, 0x1c, 0x35, 0x3a, 0x62, 0x35, 0x00, 0x60, 0x41, 0x3e, 0x5a, 0x41, 
  0x00, 0x02, 0x35, 0x40, 0x4c, 0x35, 0x00, 0x72, 0x35, 0x49, 0x02, 0x41, 0x49, 0x4c, 0x41, 0x00, 
  0x0e, 0x35, 0x00, 0x68, 0x41, 0x4a, 0x3e, 0x41, 0x00, 0x81, 0x00, 0x35, 0x4b, 0x50, 0x35, 0x00, 
  0x14, 0x41, 0x4b, 0x54, 0x41, 0x00, 0x08, 0x35, 0x4c, 0x5a, 0x35, 0x00, 0x06, 0x41, 0x4c, 0x02, 
  0x35, 0x4c, 0x4c, 0x41, 0x00, 0x10, 0x41, 0x4d, 0x0c, 0x35, 0x00, 0x3c, 0x41, 0x00, 0x1c, 0x35, 
  0x4d, 0x62, 0x35, 0x00, 0x60, 0x41, 0x4e, 0x5a, 0x41, 0x00, 0x02, 0x35, 0x4f, 0x4c, 0x35, 0x00, 
  0x72, 0x35, 0x50, 0x02, 0x41, 0x50, 0x4c, 0x41, 0x00, 0x0e, 0x35, 0x00, 0x68, 0x41, 0x51, 0x3e, 
  0x41, 0x00, 0x81, 0x00, 0x35, 0x52, 0x50, 0x35, 0x00, 0x14, 0x41, 0x53, 0x54, 0x41, 0x00, 0x08, 
  0x35, 0x53, 0x5a, 0x35, 0x00, 0x06, 0x41, 0x51, 0x02, 0x35, 0x4f, 0x4c, 0x41, 0x00, 0x10, 0x41, 
  0x57, 0x0c, 0x35, 0x00, 0x3c, 0x41, 0x00, 0x1c, 0x35, 0x60, 0x62, 0x35, 0x00, 0x60, 0x41, 0x54, 
  0x5a, 0x41, 0x00, 0x02, 0x35, 0x5b, 0x4c, 0x35, 0x00, 0x72, 0x35, 0x53, 0x02, 0x41, 0x49, 0x4c, 
  0x41, 0x00, 0x0e, 0x35, 0x00, 0x68, 0x41, 0x5d, 0x3e, 0x41, 0x00, 0x81, 0x00, 0x35, 0x55, 0x50, 
  0x35, 0x00, 0x14, 0x41, 0x4d, 0x54, 0x41, 0x00, 0x08, 0x35, 0x4e, 0x5a, 0x35, 0x00, 0x06, 0x41, 
  0x51, 0x4e, 0x41, 0x00, 0x72, 0x35, 0x5a, 0x04, 0x41, 0x50, 0x56, 0x41, 0x00, 0x06, 0x35, 0x00, 
  0x62, 0x35, 0x59, 0x50, 0x35, 0x00, 0x6c, 0x41, 0x52, 0x62, 0x35, 0x5c, 0x02, 0x41, 0x00, 0x4c, 
  0x35, 0x00, 0x74, 0x35, 0x5d, 0x02, 0x41, 0x57, 0x50, 0x35, 0x00, 0x04, 0x41, 0x00, 0x6c, 0x41, 
  0x47, 0x5e, 0x41, 0x00, 0x62, 0x41, 0x58, 0x52, 0x41, 0x00, 0x0c, 0x35, 0x57, 0x56, 0x35, 0x00, 
  0x08, 0x41, 0x5d, 0x46, 0x41, 0x00, 0x1e, 0x35, 0x56, 0x54, 0x35, 0x00, 0x08, 0x41, 0x53, 0x4a, 
  0x41, 0x00, 0x1a, 0x35, 0x59, 0x48, 0x35, 0x00, 0x72, 0x41, 0x5a, 0x02, 0x35, 0x57, 0x46, 0x35, 
  0x00, 0x08, 0x41, 0x00, 0x70, 0x41, 0x65, 0x4a, 0x41, 0x00, 0x18, 0x35, 0x5c, 0x52, 0x35, 0x00, 
  0x10, 0x41, 0x5f, 0x32, 0x41, 0x00, 0x2a, 0x41, 0x5c, 0x3c, 0x41, 0x00, 0x26, 0x35, 0x63, 0x58, 
  0x35, 0x00, 0x0c, 0x41, 0x59, 0x3e, 0x41, 0x00, 0x81, 0x5c, 0x35, 0x5d, 0x06, 0x41, 0x66, 0x38, 
  0x41, 0x00, 0x12, 0x35, 0x00, 0x74, 0x35, 0x43, 0x46, 0x35, 0x00, 0x18, 0x41, 0x54, 0x3e, 0x41, 
  0x00, 0x20, 0x35, 0x4b, 0x36, 0x35, 0x00, 0x2e, 0x41, 0x52, 0x3e, 0x41, 0x00, 0x22, 0x35, 0x4c, 
  0x40, 0x35, 0x00, 0x81, 0x00, 0x41, 0x52, 0x02, 0x35, 0x55, 0x44, 0x41, 0x00, 0x06, 0x35, 0x00, 
  0x74, 0x35, 0x52, 0x30, 0x35, 0x00, 0x2c, 0x41, 0x5c, 0x4a, 0x41, 0x00, 0x1a, 0x35, 0x4b, 0x38, 
  0x35, 0x00, 0x26, 0x41, 0x53, 0x44, 0x41, 0x00, 0x1e, 0x35, 0x5a, 0x50, 0x35, 0x00, 0x6c, 0x41, 
  0x5b, 0x04, 0x35, 0x59, 0x44, 0x41, 0x00, 0x0c, 0x35, 0x00, 0x81, 0x50, 0x41, 0x62, 0x46, 0x41, 
  0x00, 0x7a, 0x41, 0x5a, 0x56, 0x41, 0x00, 0x0a, 0x35, 0x60, 0x50, 0x35, 0x00, 0x6c, 0x35, 0x61, 
  0x06, 0x41, 0x5e, 0x48, 0x35, 0x00, 0x02, 0x41, 0x00, 0x74, 0x35, 0x50, 0x3a, 0x35, 0x00, 0x24, 
  0x41, 0x5f, 0x48, 0x41, 0x00, 0x78, 0x41, 0x5d, 0x40, 0x41, 0x00, 0x1e, 0x35, 0x51, 0x54, 0x35, 
  0x00, 0x72, 0x41, 0x59, 0x4a, 0x41, 0x00, 0x10, 0x35, 0x59, 0x4a, 0x35, 0x00, 0x81, 0x56, 0x41, 
  0x4f, 0x4a, 0x41, 0x00, 0x1a, 0x35, 0x5b, 0x5a, 0x35, 0x00, 0x02, 0x41, 0x5c, 0x50, 0x41, 0x00, 
  0x14, 0x35, 0x6b, 0x4e, 0x35, 0x00, 0x6e, 0x35, 0x60, 0x04, 0x41, 0x4b, 0x50, 0x35, 0x00, 0x06, 
  0x41, 0x00, 0x81, 0x46, 0x41, 0x62, 0x54, 0x41, 0x00, 0x6e, 0x41, 0x5c, 0x5c, 0x41, 0x00, 0x04, 
  0x35, 0x5c, 0x5c, 0x35, 0x00, 0x04, 0x41, 0x57, 0x56, 0x41, 0x00, 0x08, 0x35, 0x60, 0x62, 0x35, 
  0x00, 0x04, 0x41, 0x4c, 0x56, 0x41, 0x00, 0x0a, 0x35, 0x50, 0x40, 0x35, 0x00, 0x83, 0x1a, 0x35, 
  0x68, 0x44, 0x35, 0x00, 0x81, 0x02, 0x41, 0x5e, 0x5a, 0x41, 0x00, 0x02, 0x35, 0x52, 0x44, 0x35, 
  0x00, 0x7a, 0x41, 0x4d, 0x04, 0x35, 0x5c, 0x50, 0x41, 0x00, 0x06, 0x35, 0x00, 0x66, 0x35, 0x4a, 
  0x36, 0x35, 0x00, 0x30, 0x41, 0x56, 0x5e, 0x41, 0x00, 0x60, 0x35, 0x5a, 0x30, 0x35, 0x00, 0x30, 
  0x41, 0x55, 0x48, 0x41, 0x00, 0x18, 0x37, 0x4a, 0x5c, 0x43, 0x58, 0x10, 0x37, 0x00, 0x38, 0x43, 
  0x00, 0x1a, 0x37, 0x5c, 0x62, 0x37, 0x00, 0x5c, 0x43, 0x53, 0x5a, 0x43, 0x00, 0x08, 0x37, 0x5a, 
  0x4c, 0x37, 0x00, 0x74, 0x37, 0x52, 0x04, 0x43, 0x4a, 0x4c, 0x43, 0x00, 0x0c, 0x37, 0x00, 0x68, 
  0x43, 0x5e, 0x3e, 0x43, 0x00, 0x7e, 0x37, 0x50, 0x50, 0x37, 0x00, 0x12, 0x43, 0x50, 0x54, 0x43, 
  0x00, 0x0c, 0x37, 0x4e, 0x5a, 0x37, 0x00, 0x08, 0x43, 0x53, 0x4e, 0x43, 0x00, 0x6c, 0x43, 0x54, 
  0x06, 0x37, 0x58, 0x50, 0x43, 0x00, 0x10, 0x37, 0x00, 0x5a, 0x37, 0x5c, 0x50, 0x37, 0x00, 0x70, 
  0x43, 0x54, 0x60, 0x37, 0x5c, 0x04, 0x43, 0x00, 0x4a, 0x37, 0x00, 0x72, 0x37, 0x5d, 0x02, 0x43, 
  0x5b, 0x50, 0x37, 0x00, 0x04, 0x43, 0x00, 0x6a, 0x43, 0x46, 0x5e, 0x43, 0x00, 0x68, 0x43, 0x56, 
  0x52, 0x43, 0x00, 0x08, 0x37, 0x59, 0x56, 0x37, 0x00, 0x0a, 0x43, 0x5a, 0x46, 0x43, 0x00, 0x20, 
  0x37, 0x57, 0x54, 0x37, 0x00, 0x0a, 0x43, 0x51, 0x4a, 0x43, 0x00, 0x14, 0x37, 0x5b, 0x48, 0x37, 
  0x00, 0x76, 0x43, 0x5b, 0x00, 0x37, 0x58, 0x46, 0x37, 0x00, 0x0a, 0x43, 0x00, 0x76, 0x43, 0x62, 
  0x4a, 0x43, 0x00, 0x10, 0x37, 0x59, 0x52, 0x37, 0x00, 0x14, 0x43, 0x61, 0x32, 0x43, 0x00, 0x2e, 
  0x43, 0x5c, 0x3c, 0x43, 0x00, 0x22, 0x37, 0x5f, 0x58, 0x37, 0x00, 0x04, 0x43, 0x58, 0x3e, 0x43, 
  0x00, 0x81, 0x62, 0x37, 0x5c, 0x00, 0x43, 0x65, 0x38, 0x43, 0x00, 0x18, 0x37, 0x00, 0x72, 0x37, 
  0x43, 0x46, 0x37, 0x00, 0x1a, 0x43, 0x52, 0x3e, 0x43, 0x00, 0x24, 0x37, 0x4a, 0x36, 0x37, 0x00, 
  0x26, 0x43, 0x4d, 0x3e, 0x43, 0x00, 0x22, 0x37, 0x4a, 0x40, 0x37, 0x00, 0x81, 0x04, 0x43, 0x58, 
  0x02, 0x37, 0x5a, 0x44, 0x43, 0x00, 0x06, 0x37, 0x00, 0x74, 0x37, 0x52, 0x30, 0x37, 0x00, 0x30, 
  0x43, 0x5e, 0x4a, 0x43, 0x00, 0x14, 0x37, 0x4a, 0x38, 0x37, 0x00, 0x26, 0x43, 0x58, 0x44, 0x43, 
  0x00, 0x22, 0x37, 0x5e, 0x50, 0x37, 0x00, 0x6a, 0x43, 0x5a, 0x02, 0x37, 0x58, 0x46, 0x43, 0x00, 
  0x0a, 0x37, 0x00, 0x81, 0x4e, 0x43, 0x62, 0x46, 0x43, 0x00, 0x81, 0x00, 0x43, 0x5b, 0x56, 0x43, 
  0x00, 0x08, 0x37, 0x63, 0x50, 0x37, 0x00, 0x70, 0x37, 0x5c, 0x02, 0x43, 0x62, 0x4a, 0x43, 0x00, 
  0x02, 0x37, 0x00, 0x72, 0x37, 0x50, 0x3a, 0x37, 0x00, 0x26, 0x43, 0x5e, 0x48, 0x43, 0x00, 0x78, 
  0x43, 0x5d, 0x40, 0x43, 0x00, 0x1e, 0x37, 0x51, 0x54, 0x37, 0x00, 0x6c, 0x43, 0x58, 0x4a, 0x43, 
  0x00, 0x18, 0x37, 0x58, 0x4a, 0x37, 0x00, 0x81, 0x58, 0x43, 0x4e, 0x4a, 0x43, 0x00, 0x12, 0x37, 
  0x55, 0x5a, 0x37, 0x00, 0x06, 0x43, 0x5f, 0x50, 0x43, 0x00, 0x0e, 0x37, 0x66, 0x4e, 0x37, 0x00, 
  0x74, 0x37, 0x5c, 0x02, 0x43, 0x4f, 0x52, 0x37, 0x00, 0x04, 0x43, 0x00, 0x81, 0x48, 0x43, 0x60, 
  0x54, 0x43, 0x00, 0x6c, 0x43, 0x5d, 0x5c, 0x43, 0x00, 0x02, 0x37, 0x61, 0x5c, 0x37, 0x00, 0x0a, 
  0x43, 0x57, 0x56, 0x43, 0x00, 0x0a, 0x37, 0x60, 0x5e, 0x43, 0x4c, 0x04, 0x37, 0x00, 0x52, 0x43, 
  0x00, 0x0c, 0x37, 0x50, 0x40, 0x37, 0x00, 0x83, 0x20, 0x37, 0x6a, 0x44, 0x37, 0x00, 0x76, 0x43, 
  0x5f, 0x5a, 0x43, 0x00, 0x08, 0x37, 0x57, 0x44, 0x37, 0x00, 0x7c, 0x43, 0x49, 0x00, 0x37, 0x58, 
  0x54, 0x43, 0x00, 0x02, 0x37, 0x00, 0x68, 0x37, 0x4d, 0x36, 0x37, 0x00, 0x30, 0x43, 0x5b, 0x5e, 
  0x43, 0x00, 0x5e, 0x37, 0x54, 0x30, 0x37, 0x00, 0x34, 0x43, 0x55, 0x48, 0x43, 0x00, 0x8a, 0x56, 
  0xb6, 0x07, 0x7f, 0x00, 0x01, 0x00, 0x00, 0xe6, 0x00, 0x40, 0x00, 0x96, 0x35, 0x7e, 0x60, 0x37, 
  0x63, 0x04, 0x35, 0x00, 0x42, 0x37, 0x00, 0x1a, 0x3a, 0x62, 0x5d, 0x3a, 0x00, 0x03, 0x37, 0x51, 
  0x30, 0x37, 0x00, 0x30, 0x3c, 0x74, 0x60, 0x3a, 0x55, 0x02, 0x3c, 0x00, 0x59, 0x3a, 0x00, 0x05, 
  0x37, 0x54, 0x52, 0x37, 0x00, 0x0e, 0x3c, 0x7f, 0x2a, 0xe6, 0x05, 0x4b, 0x08, 0x6e, 0x5c, 0x05, 
  0x78, 0x71, 0x04, 0x7f, 0x7f, 0x45, 0x96, 0x3c, 0x00, 0x18, 0xe6, 0x7d, 0x7b, 0x04, 0x56, 0x6d, 
  0x05, 0x0c, 0x58, 0x07, 0x23, 0x46, 0x08, 0x00, 0x40, 0x10, 0x96, 0x3c, 0x7e, 0x60, 0x3c, 0x00, 
  0x00, 0x3a, 0x6e, 0x60, 0x3a, 0x00, 0x00, 0x37, 0x52, 0x53, 0x37, 0x00, 0x0d, 0x35, 0x62, 0x51, 
  0x35, 0x00, 0x0f, 0x30, 0x6d, 0x58, 0x30, 0x00, 0x08, 0x2e, 0x78, 0x86, 0x5c, 0xe6, 0x60, 0x40, 
  0x04, 0x96, 0x2e, 0x00, 0x8d, 0x11, 0xe6, 0x40, 0x40, 0x0a, 0x00, 0x41, 0x09, 0x60, 0x40, 0x8b, 
  0x3c, 0xb6, 0x0a, 0x40, 0x00, 0x96, 0x35, 0x63, 0x60, 0x35, 0x00, 0x00, 0x37, 0x6f, 0x60, 0x37, 
  0x00, 0x00, 0x3a, 0x71, 0x60, 0x3a, 0x00, 0x00, 0x39, 0x5c, 0x60, 0x39, 0x00, 0x00, 0x3c, 0x76, 
  0x60, 0x3c, 0x00, 0x00, 0x3e, 0x65, 0x60, 0x3e, 0x00, 0x00, 0x41, 0x58, 0x60, 0x41, 0x00, 0x00, 
  0x3e, 0x73, 0x60, 0x3e, 0x00, 0x60, 0x3a, 0x71, 0x23, 0xe6, 0x63, 0x47, 0x07, 0x73, 0x67, 0x0a, 
  0x7f, 0x7f, 0x31, 0x3d, 0x7b, 0x08, 0x54, 0x69, 0x09, 0x07, 0x4e, 0x0b, 0x00, 0x40, 0x3f, 0x96, 
  0x3a, 0x00, 0x00, 0x37, 0x63, 0x60, 0x37, 0x00, 0x00, 0x35, 0x65, 0x31, 0xe6, 0x40, 0x40, 0x0a, 
  0x00, 0x41, 0x09, 0x60, 0x40, 0x0b, 0x20, 0x40, 0x06, 0x00, 0x40, 0x0b, 0x96, 0x35, 0x00, 0x00, 
  0x2e, 0x6a, 0x60, 0x2e, 0x00, 0x00, 0x27, 0x7f, 0x8a, 0x20, 0x27, 0x00, 0x9f, 0x5e, 0xe6, 0x00, 
  0x40, 0x02, 0x96, 0x39, 0x54, 0x5a, 0x39, 0x00, 0x26, 0x39, 0x31, 0x5a, 0x39, 0x00, 0x46, 0x37, 
  0x5b, 0x63, 0x37, 0x00, 0x1d, 0x37, 0x31, 0x5a, 0x37, 0x00, 0x46, 0x36, 0x66, 0x81, 0x39, 0xe6, 
  0x60, 0x40, 0x06, 0x21, 0x42, 0x06, 0x41, 0x43, 0x08, 0x22, 0x45, 0x11, 0x43, 0x47, 0x0a, 0x63, 
  0x47, 0x05, 0x42, 0x44, 0x07, 0x20, 0x41, 0x06, 0x40, 0x40, 0x07, 0x00, 0x40, 0x5f, 0x40, 0x40, 
  0x07, 0x40, 0x41, 0x07, 0x41, 0x42, 0x07, 0x22, 0x44, 0x09, 0x22, 0x45, 0x0a, 0x03, 0x46, 0x07, 
  0x23, 0x46, 0x04, 0x22, 0x45, 0x08, 0x01, 0x43, 0x09, 0x00, 0x41, 0x08, 0x20, 0x40, 0x13, 0x00, 
  0x40, 0x33, 0x41, 0x42, 0x07, 0x44, 0x48, 0x07, 0x66, 0x4c, 0x09, 0x46, 0x4d, 0x0b, 0x06, 0x4d, 
  0x06, 0x04, 0x49, 0x03, 0x01, 0x43, 0x08, 0x00, 0x40, 0x83, 0x1b, 0x96, 0x36, 0x00, 0x89, 0x00, 
  0x3c, 0x54, 0x5a, 0x3c, 0x00, 0x26, 0x3c, 0x31, 0x5a, 0x3c, 0x00, 0x46, 0x3a, 0x5b, 0x63, 0x3a, 
  0x00, 0x1d, 0x3a, 0x31, 0x5a, 0x3a, 0x00, 0x46, 0x39, 0x66, 0x81, 0x39, 0xe6, 0x60, 0x40, 0x06, 
  0x21, 0x42, 0x06, 0x41, 0x43, 0x08, 0x22, 0x45, 0x11, 0x43, 0x47, 0x0a, 0x63, 0x47, 0x05, 0x42, 
  0x44, 0x07, 0x20, 0x41, 0x06, 0x40, 0x40, 0x07, 0x00, 0x40, 0x5f, 0x40, 0x40, 0x07, 0x40, 0x41, 
  0x07, 0x41, 0x42, 0x07, 0x22, 0x44, 0x09, 0x22, 0x45, 0x0a, 0x03, 0x46, 0x07, 0x23, 0x46, 0x04, 
  0x22, 0x45, 0x08, 0x01, 0x43, 0x09, 0x00, 0x41, 0x08, 0x20, 0x40, 0x13, 0x00, 0x40, 0x33, 0x41, 
  0x42, 0x07, 0x44, 0x48, 0x07, 0x66, 0x4c, 0x09, 0x46, 0x4d, 0x0b, 0x06, 0x4d, 0x06, 0x04, 0x49, 
  0x03, 0x01, 0x43, 0x08, 0x00, 0x40, 0x81, 0x5b, 0x96, 0x39, 0x00, 0x00, 0xff, 0x2f, 0x00, 0x4d, 
  0x54, 0x72, 0x6b, 0x00, 0x00, 0x08, 0x32, 0x00, 0xff, 0x03, 0x09, 0x4e, 0x79, 0x6c, 0x6f, 0x6e, 
  0x20, 0x47, 0x74, 0x72, 0x00, 0xc7, 0x18, 0x00, 0xb7, 0x07, 0x7f, 0x00, 0x0a, 0x50, 0x00, 0x79, 
  0x00, 0x00, 0x5b, 0x20, 0x00, 0x5d, 0x0c, 0xb4, 0x40, 0x01, 0x00, 0x00, 0xe7, 0x00, 0x40, 0x83, 
  0x00, 0x97, 0x33, 0x49, 0x40, 0x33, 0x00, 0x00, 0x35, 0x41, 0x40, 0x35, 0x00, 0x00, 0x37, 0x3c, 
  0x40, 0x37, 0x00, 0x00, 0x39, 0x44, 0x40, 0x39, 0x00, 0x00, 0x3a, 0x51, 0x40, 0x3a, 0x00, 0x00, 
  0x3c, 0x43, 0x40, 0x3c, 0x00, 0x00, 0x3e, 0x3e, 0x40, 0x3f, 0x49, 0x07, 0x3e, 0x00, 0x39, 0x3f, 
  0x00, 0x00, 0x41, 0x58, 0x40, 0x41, 0x00, 0x00, 0x43, 0x4e, 0x40, 0x43, 0x00, 0x00, 0x45, 0x52, 
  0x40, 0x45, 0x00, 0x00, 0x46, 0x62, 0x40, 0x46, 0x00, 0x00, 0x48, 0x57, 0x40, 0x48, 0x00, 0x00, 
  0x4a, 0x5d, 0x40, 0x4a, 0x00, 0x00, 0x4b, 0x6a, 0x40, 0x4b, 0x00, 0x00, 0x4d, 0x7e, 0x40, 0x4d, 
  0x00, 0x00, 0x4d, 0x58, 0x40, 0x4d, 0x00, 0x00, 0x4d, 0x5d, 0x40, 0x4d, 0x00, 0x00, 0x4d, 0x57, 
  0x40, 0x4d, 0x00, 0x00, 0x4d, 0x5e, 0x40, 0x4d, 0x00, 0x00, 0x4d, 0x57, 0x40, 0x4d, 0x00, 0x00, 
  0x4d, 0x5c, 0x40, 0x4d, 0x00, 0x00, 0x4d, 0x53, 0x40, 0x4d, 0x00, 0x00, 0x4d, 0x5a, 0x40, 0x4d, 
  0x00, 0x00, 0x4d, 0x52, 0x40, 0x4d, 0x00, 0x00, 0x4d, 0x60, 0x40, 0x4d, 0x00, 0x00, 0x4d, 0x5b, 
  0x40, 0x4d, 0x00, 0x00, 0x4d, 0x6d, 0x81, 0x6c, 0xe7, 0x7f, 0x3e, 0x06, 0x7e, 0x3c, 0x0c, 0x5d, 
  0x3b, 0x06, 0x1d, 0x3b, 0x09, 0x1d, 0x3a, 0x0b, 0x3c, 0x38, 0x08, 0x5b, 0x37, 0x05, 0x1c, 0x38, 
  0x07, 0x7c, 0x38, 0x09, 0x3d, 0x3a, 0x08, 0x1e, 0x3c, 0x0b, 0x5f, 0x3e, 0x06, 0x00, 0x40, 0x32, 
  0x97, 0x4d, 0x00, 0x00, 0x4b, 0x70, 0x40, 0x4b, 0x00, 0x20, 0x4a, 0x63, 0x35, 0x4a, 0x00, 0x2b, 
  0x4b, 0x6d, 0x81, 0x09, 0xe7, 0x40, 0x40, 0x08, 0x21, 0x43, 0x11, 0x24, 0x48, 0x0a, 0x05, 0x4b, 
  0x12, 0x25, 0x4a, 0x07, 0x04, 0x49, 0x08, 0x43, 0x47, 0x09, 0x41, 0x43, 0x09, 0x00, 0x40, 0x4a, 
  0x20, 0x40, 0x09, 0x00, 0x41, 0x09, 0x40, 0x41, 0x0b, 0x60, 0x41, 0x06, 0x00, 0x41, 0x08, 0x00, 
  0x40, 0x27, 0x60, 0x40, 0x07, 0x41, 0x43, 0x08, 0x63, 0x46, 0x0a, 0x05, 0x4a, 0x06, 0x26, 0x4c, 
  0x16, 0x64, 0x48, 0x06, 0x61, 0x42, 0x06, 0x00, 0x40, 0x81, 0x04, 0x97, 0x4b, 0x00, 0x00, 0x48, 
  0x5d, 0x60, 0x48, 0x00, 0x00, 0x4b, 0x52, 0x60, 0x4b, 0x00, 0x00, 0x4a, 0x67, 0x40, 0xe7, 0x40, 
  0x40, 0x09, 0x00, 0x41, 0x1a, 0x40, 0x40, 0x09, 0x00, 0x40, 0x36, 0x60, 0x40, 0x12, 0x21, 0x42, 
  0x0a, 0x41, 0x42, 0x08, 0x00, 0x41, 0x0b, 0x00, 0x40, 0x4f, 0x97, 0x4a, 0x00, 0x00, 0x43, 0x5d, 
  0x5a, 0xe7, 0x40, 0x40, 0x05, 0x00, 0x41, 0x0f, 0x20, 0x41, 0x09, 0x60, 0x41, 0x0b, 0x00, 0x41, 
  0x09, 0x00, 0x40, 0x81, 0x28, 0x40, 0x40, 0x06, 0x20, 0x40, 0x06, 0x00, 0x40, 0x84, 0x21, 0x97, 
  0x43, 0x00, 0xd9, 0x32, 0xe7, 0x7f, 0x3e, 0x06, 0x1e, 0x3d, 0x09, 0x1e, 0x3c, 0x10, 0x1c, 0x39, 
  0x09, 0x1a, 0x35, 0x08, 0x39, 0x32, 0x0a, 0x38, 0x30, 0x06, 0x76, 0x2d, 0x09, 0x75, 0x2b, 0x05, 
  0x35, 0x2a, 0x0b, 0x53, 0x27, 0x0b, 0x11, 0x23, 0x04, 0x4f, 0x1e, 0x0b, 0x0e, 0x1c, 0x08, 0x4d, 
  0x1a, 0x09, 0x2c, 0x19, 0x09, 0x4c, 0x18, 0x0b, 0x0c, 0x18, 0x20, 0x6c, 0x18, 0x06, 0x45, 0x17, 
  0x10, 0x18, 0x18, 0x10, 0x6c, 0x18, 0x0d, 0x97, 0x3c, 0x7d, 0x03, 0xe7, 0x3f, 0x19, 0x10, 0x13, 
  0x1a, 0x10, 0x67, 0x1a, 0x10, 0x3a, 0x1b, 0x10, 0x0e, 0x1c, 0x10, 0x62, 0x1c, 0x10, 0x36, 0x1d, 
  0x10, 0x2c, 0x21, 0x10, 0x22, 0x25, 0x10, 0x18, 0x29, 0x10, 0x0e, 0x2d, 0x10, 0x04, 0x31, 0x10, 
  0x7a, 0x34, 0x10, 0x71, 0x38, 0x10, 0x67, 0x3c, 0x10, 0x00, 0x40, 0x81, 0x25, 0x97, 0x43, 0x67, 
  0x81, 0x50, 0x4a, 0x71, 0x82, 0x4f, 0xe7, 0x7e, 0x3d, 0x09, 0x5d, 0x3b, 0x11, 0x1d, 0x3b, 0x10, 
  0x3d, 0x3b, 0x09, 0x5d, 0x3b, 0x0a, 0x7d, 0x3b, 0x0b, 0x3e, 0x3c, 0x06, 0x3f, 0x3e, 0x05, 0x00, 
  0x40, 0x77, 0x1f, 0x3e, 0x0a, 0x5d, 0x3b, 0x07, 0x3d, 0x3a, 0x0b, 0x3c, 0x38, 0x09, 0x3b, 0x36, 
  0x07, 0x7a, 0x34, 0x07, 0x1a, 0x34, 0x22, 0x3a, 0x34, 0x09, 0x5a, 0x34, 0x10, 0x7b, 0x37, 0x06, 
  0x1d, 0x3b, 0x06, 0x3e, 0x3c, 0x08, 0x5f, 0x3e, 0x0a, 0x00, 0x40, 0x48, 0x5e, 0x3d, 0x08, 0x7d, 
  0x3a, 0x08, 0x5c, 0x38, 0x09, 0x3a, 0x34, 0x0b, 0x58, 0x31, 0x09, 0x18, 0x31, 0x0b, 0x78, 0x31, 
  0x04, 0x7a, 0x34, 0x07, 0x5c, 0x38, 0x06, 0x7d, 0x3a, 0x14, 0x7e, 0x3d, 0x09, 0x00, 0x40, 0x59, 
  0x7e, 0x3d, 0x09, 0x3d, 0x3a, 0x06, 0x7b, 0x37, 0x07, 0x5b, 0x36, 0x09, 0x5a, 0x35, 0x07, 0x3a, 
  0x35, 0x12, 0x3b, 0x36, 0x0a, 0x5c, 0x39, 0x07, 0x5e, 0x3d, 0x02, 0x00, 0x40, 0x82, 0x29, 0x3f, 
  0x3f, 0x09, 0x1f, 0x3f, 0x0b, 0x5f, 0x3f, 0x06, 0x00, 0x40, 0x83, 0x61, 0x97, 0x3c, 0x00, 0x46, 
  0x4a, 0x00, 0x1a, 0xb7, 0x07, 0x49, 0x00, 0x0a, 0x0d, 0x00, 0x97, 0x3c, 0x54, 0x09, 0x43, 0x00, 
  0x57, 0x3e, 0x59, 0x18, 0x3c, 0x00, 0x46, 0x35, 0x55, 0x2c, 0x3e, 0x00, 0x32, 0x41, 0x63, 0x81, 
  0x40, 0x3c, 0x4f, 0x02, 0x41, 0x00, 0x1e, 0x35, 0x00, 0x81, 0x24, 0x3e, 0x6b, 0x20, 0x3c, 0x00, 
  0x81, 0x1c, 0x41, 0x5d, 0x08, 0x3e, 0x00, 0x81, 0x38, 0x35, 0x5b, 0x0c, 0x41, 0x00, 0x5a, 0x41, 
  0x5d, 0x2c, 0x35, 0x00, 0x81, 0x0e, 0x35, 0x57, 0x0c, 0x41, 0x00, 0x81, 0x3a, 0x41, 0x61, 0x2c, 
  0x35, 0x00, 0x30, 0x35, 0x5c, 0x2a, 0x41, 0x00, 0x38, 0x3c, 0x55, 0x5e, 0x3e, 0x5c, 0x22, 0x3c, 
  0x00, 0x2c, 0x35, 0x00, 0x74, 0x35, 0x5f, 0x81, 0x30, 0x3e, 0x00, 0x0c, 0x3a, 0x5d, 0x70, 0x35, 
  0x00, 0x52, 0x35, 0x5b, 0x42, 0x3a, 0x00, 0x22, 0x41, 0x5c, 0x5a, 0x35, 0x00, 0x60, 0x35, 0x5f, 
  0x1c, 0x41, 0x00, 0x81, 0x28, 0x41, 0x5b, 0x26, 0x35, 0x00, 0x38, 0x35, 0x54, 0x44, 0x41, 0x00, 
  0x20, 0x3c, 0x5a, 0x5e, 0x3e, 0x62, 0x2c, 0x3c, 0x00, 0x10, 0x35, 0x00, 0x81, 0x00, 0x35, 0x5c, 
  0x81, 0x38, 0x3e, 0x00, 0x0c, 0x3a, 0x58, 0x6e, 0x35, 0x00, 0x4e, 0x35, 0x5c, 0x52, 0x3a, 0x00, 
  0x12, 0x41, 0x58, 0x2e, 0x35, 0x00, 0x81, 0x14, 0x35, 0x61, 0x14, 0x41, 0x00, 0x81, 0x28, 0x41, 
  0x55, 0x3c, 0x35, 0x00, 0x24, 0x35, 0x57, 0x3c, 0x41, 0x00, 0x26, 0x3c, 0x5b, 0x5e, 0x3e, 0x69, 
  0x1c, 0x3c, 0x00, 0x28, 0x35, 0x00, 0x7a, 0x35, 0x58, 0x81, 0x36, 0x3e, 0x00, 0x0e, 0x3a, 0x52, 
  0x56, 0x35, 0x00, 0x6c, 0x35, 0x5a, 0x36, 0x3a, 0x00, 0x24, 0x41, 0x65, 0x81, 0x38, 0x35, 0x00, 
  0x02, 0x41, 0x00, 0x0c, 0x37, 0x61, 0x81, 0x3a, 0x41, 0x5f, 0x3c, 0x37, 0x00, 0x28, 0x37, 0x53, 
  0x3e, 0x41, 0x00, 0x22, 0x3c, 0x61, 0x5c, 0x3e, 0x73, 0x18, 0x3c, 0x00, 0x6e, 0x37, 0x00, 0x3c, 
  0x37, 0x60, 0x2a, 0x3e, 0x00, 0x81, 0x16, 0x3a, 0x63, 0x81, 0x14, 0x37, 0x00, 0x30, 0x37, 0x4e, 
  0x0e, 0x3a, 0x00, 0x50, 0x41, 0x57, 0x74, 0x37, 0x00, 0x48, 0x37, 0x5a, 0x3e, 0x41, 0x00, 0x81, 
  0x08, 0x41, 0x62, 0x3c, 0x37, 0x00, 0x24, 0x37, 0x58, 0x5c, 0x3c, 0x5e, 0x14, 0x41, 0x00, 0x50, 
  0x3e, 0x62, 0x14, 0x3c, 0x00, 0x56, 0x37, 0x00, 0x56, 0x37, 0x5c, 0x81, 0x30, 0x3e, 0x00, 0x10, 
  0x3a, 0x5d, 0x6c, 0x37, 0x00, 0x54, 0x37, 0x5b, 0x32, 0x3a, 0x00, 0x2a, 0x41, 0x5a, 0x56, 0x37, 
  0x00, 0x6a, 0x37, 0x5d, 0x18, 0x41, 0x00, 0x81, 0x2a, 0x41, 0x63, 0x32, 0x37, 0x00, 0x2a, 0x37, 
  0x5a, 0x44, 0x41, 0x00, 0x22, 0x3c, 0x5e, 0x60, 0x3e, 0x61, 0x1c, 0x3c, 0x00, 0x3a, 0x37, 0x00, 
  0x66, 0x37, 0x5c, 0x66, 0x3e, 0x00, 0x58, 0x3a, 0x61, 0x56, 0x37, 0x00, 0x6e, 0x37, 0x58, 0x32, 
  0x3a, 0x00, 0x2e, 0x41, 0x62, 0x64, 0x37, 0x00, 0x58, 0x37, 0x60, 0x0e, 0x41, 0x00, 0x81, 0x36, 
  0x41, 0x68, 0x26, 0x37, 0x00, 0x36, 0x37, 0x5b, 0x32, 0x41, 0x00, 0x34, 0x3c, 0x5a, 0x5a, 0x3e, 
  0x69, 0x16, 0x3c, 0x00, 0x52, 0x37, 0x00, 0x58, 0x37, 0x5c, 0x26, 0x3e, 0x00, 0x81, 0x20, 0x3a, 
  0x61, 0x52, 0x37, 0x00, 0x6e, 0x37, 0x5b, 0x2c, 0x3a, 0x00, 0x30, 0x41, 0x68, 0x81, 0x08, 0x41, 
  0x00, 0x0e, 0x37, 0x00, 0x81, 0x0c, 0x43, 0x59, 0x62, 0x3e, 0x43, 0x0c, 0x43, 0x00, 0x50, 0x48, 
  0x50, 0x81, 0x3a, 0x48, 0x00, 0x08, 0x43, 0x5b, 0x81, 0x34, 0x3e, 0x00, 0x08, 0x40, 0x59, 0x2e, 
  0x43, 0x00, 0x81, 0x16, 0x43, 0x5e, 0x81, 0x3e, 0x3c, 0x59, 0x08, 0x40, 0x00, 0x06, 0x43, 0x00, 
  0x54, 0x48, 0x58, 0x81, 0x3c, 0x40, 0x62, 0x08, 0x48, 0x00, 0x0a, 0x3c, 0x00, 0x52, 0x43, 0x55, 
  0x5c, 0x40, 0x00, 0x02, 0x3e, 0x55, 0x20, 0x43, 0x00, 0x40, 0x48, 0x5c, 0x81, 0x32, 0x48, 0x00, 
  0x0e, 0x43, 0x4c, 0x81, 0x44, 0x3e, 0x00, 0x00, 0x40, 0x5d, 0x30, 0x43, 0x00, 0x81, 0x0e, 0x43, 
  0x5e, 0x81, 0x3a, 0x40, 0x00, 0x02, 0x3c, 0x5f, 0x1a, 0x43, 0x00, 0x4a, 0x48, 0x5a, 0x81, 0x14, 
  0x48, 0x00, 0x04, 0x3c, 0x00, 0x28, 0x40, 0x6a, 0x5e, 0x43, 0x60, 0x60, 0x40, 0x00, 0x02, 0x3e, 
  0x56, 0x5e, 0x48, 0x62, 0x2c, 0x43, 0x00, 0x81, 0x16, 0x43, 0x5f, 0x0c, 0x48, 0x00, 0x81, 0x32, 
  0x40, 0x64, 0x10, 0x3e, 0x00, 0x1e, 0x43, 0x00, 0x81, 0x16, 0x43, 0x53, 0x81, 0x3a, 0x3c, 0x5a, 
  0x14, 0x40, 0x00, 0x3a, 0x43, 0x00, 0x12, 0x48, 0x58, 0x81, 0x36, 0x3c, 0x00, 0x0c, 0x40, 0x5c, 
  0x26, 0x48, 0x00, 0x3c, 0x43, 0x58, 0x5c, 0x3e, 0x4d, 0x0a, 0x40, 0x00, 0x36, 0x43, 0x00, 0x22, 
  0x48, 0x57, 0x81, 0x44, 0x48, 0x00, 0x00, 0x43, 0x54, 0x81, 0x3e, 0x3e, 0x00, 0x02, 0x40, 0x5e, 
  0x36, 0x43, 0x00, 0x81, 0x08, 0x43, 0x58, 0x81, 0x3c, 0x3c, 0x5e, 0x04, 0x40, 0x00, 0x32, 0x43, 
  0x00, 0x2c, 0x48, 0x52, 0x81, 0x22, 0x3c, 0x00, 0x16, 0x48, 0x00, 0x0a, 0x41, 0x64, 0x5c, 0x43, 
  0x58, 0x60, 0x41, 0x00, 0x04, 0x40, 0x54, 0x1e, 0x43, 0x00, 0x40, 0x48, 0x4f, 0x81, 0x3e, 0x43, 
  0x5b, 0x08, 0x48, 0x00, 0x81, 0x3e, 0x3e, 0x57, 0x02, 0x40, 0x00, 0x2e, 0x43, 0x00, 0x81, 0x0e, 
  0x43, 0x5b, 0x81, 0x3e, 0x3c, 0x5d, 0x08, 0x3e, 0x00, 0x12, 0x43, 0x00, 0x4a, 0x48, 0x54, 0x81, 
  0x38, 0x3c, 0x00, 0x04, 0x41, 0x69, 0x0c, 0x48, 0x00, 0x54, 0x43, 0x5a, 0x5e, 0x41, 0x00, 0x06, 
  0x40, 0x57, 0x24, 0x43, 0x00, 0x36, 0x48, 0x5a, 0x81, 0x42, 0x43, 0x55, 0x04, 0x48, 0x00, 0x81, 
  0x3a, 0x3e, 0x5c, 0x20, 0x40, 0x00, 0x0a, 0x43, 0x00, 0x81, 0x16, 0x43, 0x60, 0x81, 0x34, 0x3e, 
  0x00, 0x0c, 0x43, 0x00, 0x02, 0x3c, 0x5a, 0x60, 0x48, 0x5a, 0x81, 0x38, 0x3c, 0x00, 0x02, 0x48, 
  0x00, 0x06, 0x41, 0x65, 0x5e, 0x43, 0x59, 0x64, 0x40, 0x55, 0x02, 0x41, 0x00, 0x10, 0x43, 0x00, 
  0x4e, 0x48, 0x4b, 0x81, 0x3e, 0x43, 0x57, 0x16, 0x48, 0x00, 0x81, 0x2c, 0x3e, 0x5d, 0x12, 0x40, 
  0x00, 0x20, 0x43, 0x00, 0x81, 0x0a, 0x43, 0x58, 0x81, 0x42, 0x3c, 0x56, 0x0a, 0x3e, 0x00, 0x0a, 
  0x43, 0x00, 0x4a, 0x48, 0x5b, 0x81, 0x38, 0x3c, 0x00, 0x0c, 0x41, 0x60, 0x04, 0x48, 0x00, 0x5c, 
  0x43, 0x57, 0x60, 0x3f, 0x58, 0x08, 0x41, 0x00, 0x1e, 0x43, 0x00, 0x36, 0x48, 0x56, 0x81, 0x32, 
  0x48, 0x00, 0x10, 0x43, 0x51, 0x81, 0x42, 0x3d, 0x55, 0x14, 0x3f, 0x00, 0x14, 0x43, 0x00, 0x81, 
  0x16, 0x43, 0x5b, 0x81, 0x3a, 0x3d, 0x00, 0x02, 0x43, 0x00, 0x02, 0x3c, 0x59, 0x82, 0x14, 0x3c, 
  0x00, 0x83, 0x70, 0x3c, 0x74, 0x60, 0x3e, 0x6f, 0x60, 0x45, 0x7d, 0x95, 0x60, 0x3c, 0x00, 0x00, 
  0x3e, 0x00, 0x00, 0x45, 0x00, 0xa4, 0x00, 0xb7, 0x07, 0x7f, 0x00, 0x01, 0x00, 0x00, 0xe7, 0x00, 
  0x40, 0x30, 0xb7, 0x0a, 0x50, 0x82, 0x50, 0x97, 0x33, 0x49, 0x40, 0x33, 0x00, 0x00, 0x35, 0x41, 
  0x40, 0x35, 0x00, 0x00, 0x37, 0x3c, 0x40, 0x37, 0x00, 0x00, 0x39, 0x44, 0x40, 0x39, 0x00, 0x00, 
  0x3a, 0x51, 0x40, 0x3a, 0x00, 0x00, 0x3c, 0x43, 0x40, 0x3c, 0x00, 0x00, 0x3e, 0x3e, 0x40, 0x3f, 
  0x49, 0x07, 0x3e, 0x00, 0x39, 0x3f, 0x00, 0x00, 0x41, 0x58, 0x40, 0x41, 0x00, 0x00, 0x43, 0x4e, 
  0x40, 0x43, 0x00, 0x00, 0x45, 0x52, 0x40, 0x45, 0x00, 0x00, 0x46, 0x62, 0x40, 0x46, 0x00, 0x00, 
  0x48, 0x57, 0x40, 0x48, 0x00, 0x00, 0x4a, 0x5d, 0x40, 0x4a, 0x00, 0x00, 0x4b, 0x6a, 0x40, 0x4b, 
  0x00, 0x00, 0x4d, 0x7e, 0x40, 0x4d, 0x00, 0x00, 0x4d, 0x58, 0x40, 0x4d, 0x00, 0x00, 0x4d, 0x5d, 
  0x40, 0x4d, 0x00, 0x00, 0x4d, 0x57, 0x40, 0x4d, 0x00, 0x00, 0x4d, 0x5e, 0x40, 0x4d, 0x00, 0x00, 
  0x4d, 0x57, 0x40, 0x4d, 0x00, 0x00, 0x4d, 0x5c, 0x40, 0x4d, 0x00, 0x00, 0x4d, 0x53, 0x40, 0x4d, 
  0x00, 0x00, 0x4d, 0x5a, 0x40, 0x4d, 0x00, 0x00, 0x4d, 0x52, 0x40, 0x4d, 0x00, 0x00, 0x4d, 0x60, 
  0x40, 0x4d, 0x00, 0x00, 0x4d, 0x5b, 0x40, 0x4d, 0x00, 0x00, 0x4d, 0x6d, 0x81, 0x6c, 0xe7, 0x7f, 
  0x3e, 0x06, 0x7e, 0x3c, 0x0c, 0x5d, 0x3b, 0x06, 0x1d, 0x3b, 0x09, 0x1d, 0x3a, 0x0b, 0x3c, 0x38, 
  0x08, 0x5b, 0x37, 0x05, 0x1c, 0x38, 0x07, 0x7c, 0x38, 0x09, 0x3d, 0x3a, 0x08, 0x1e, 0x3c, 0x0b, 
  0x5f, 0x3e, 0x06, 0x00, 0x40, 0x32, 0x97, 0x4d, 0x00, 0x00, 0x4b, 0x70, 0x40, 0x4b, 0x00, 0x20, 
  0x4a, 0x63, 0x35, 0x4a, 0x00, 0x2b, 0x4b, 0x6d, 0x81, 0x09, 0xe7, 0x40, 0x40, 0x08, 0x21, 0x43, 
  0x11, 0x24, 0x48, 0x0a, 0x05, 0x4b, 0x12, 0x25, 0x4a, 0x07, 0x04, 0x49, 0x08, 0x43, 0x47, 0x09, 
  0x41, 0x43, 0x09, 0x00, 0x40, 0x4a, 0x20, 0x40, 0x09, 0x00, 0x41, 0x09, 0x40, 0x41, 0x0b, 0x60, 
  0x41, 0x06, 0x00, 0x41, 0x08, 0x00, 0x40, 0x27, 0x60, 0x40, 0x07, 0x41, 0x43, 0x08, 0x63, 0x46, 
  0x0a, 0x05, 0x4a, 0x06, 0x26, 0x4c, 0x16, 0x64, 0x48, 0x06, 0x61, 0x42, 0x06, 0x00, 0x40, 0x81, 
  0x04, 0x97, 0x4b, 0x00, 0x00, 0x48, 0x5d, 0x60, 0x48, 0x00, 0x00, 0x4b, 0x52, 0x60, 0x4b, 0x00, 
  0x00, 0x4a, 0x67, 0x40, 0xe7, 0x40, 0x40, 0x09, 0x00, 0x41, 0x1a, 0x40, 0x40, 0x09, 0x00, 0x40, 
  0x36, 0x60, 0x40, 0x12, 0x21, 0x42, 0x0a, 0x41, 0x42, 0x08, 0x00, 0x41, 0x0b, 0x00, 0x40, 0x4f, 
  0x97, 0x4a, 0x00, 0x00, 0x43, 0x5d, 0x5a, 0xe7, 0x40, 0x40, 0x05, 0x00, 0x41, 0x0f, 0x20, 0x41, 
  0x09, 0x60, 0x41, 0x0b, 0x00, 0x41, 0x09, 0x00, 0x40, 0x81, 0x28, 0x40, 0x40, 0x06, 0x20, 0x40, 
  0x06, 0x00, 0x40, 0x84, 0x21, 0x97, 0x43, 0x00, 0xa4, 0x72, 0xe7, 0x7f, 0x3e, 0x06, 0x1e, 0x3d, 
  0x09, 0x1e, 0x3c, 0x10, 0x1c, 0x39, 0x09, 0x1a, 0x35, 0x08, 0x39, 0x32, 0x0a, 0x38, 0x30, 0x06, 
  0x76, 0x2d, 0x09, 0x75, 0x2b, 0x00, 0xff, 0x2f, 0x00, 0x4d, 0x54, 0x72, 0x6b, 0x00, 0x00, 0x06, 
  0x95, 0x00, 0xff, 0x03, 0x08, 0x46, 0x72, 0x65, 0x74, 0x6c, 0x65, 0x73, 0x73, 0x00, 0xc8, 0x23, 
  0x00, 0xb8, 0x07, 0x7f, 0x00, 0x0a, 0x20, 0x00, 0x79, 0x00, 0x00, 0x5b, 0x20, 0x00, 0x5d, 0x10, 
  0x00, 0x01, 0x00, 0x00, 0xe8, 0x00, 0x40, 0x91, 0x1d, 0x98, 0x39, 0x6b, 0x66, 0xe8, 0x20, 0x40, 
  0x07, 0x00, 0x41, 0x09, 0x60, 0x41, 0x07, 0x01, 0x43, 0x06, 0x02, 0x45, 0x06, 0x23, 0x47, 0x08, 
  0x44, 0x49, 0x0f, 0x27, 0x4f, 0x0b, 0x0b, 0x57, 0x06, 0x4e, 0x5c, 0x0b, 0x30, 0x60, 0x06, 0x70, 
  0x61, 0x0a, 0x31, 0x62, 0x0a, 0x10, 0x61, 0x06, 0x6e, 0x5c, 0x0b, 0x4b, 0x57, 0x06, 0x47, 0x4f, 
  0x07, 0x23, 0x47, 0x0b, 0x41, 0x42, 0x0b, 0x00, 0x40, 0x83, 0x12, 0x20, 0x40, 0x11, 0x00, 0x40, 
  0x4f, 0x98, 0x39, 0x00, 0x17, 0x30, 0x5a, 0x38, 0xe8, 0x29, 0x52, 0x05, 0x35, 0x6b, 0x06, 0x7c, 
  0x78, 0x09, 0x7f, 0x7f, 0x4c, 0x5f, 0x7e, 0x06, 0x57, 0x6f, 0x08, 0x0d, 0x5a, 0x03, 0x98, 0x30, 
  0x00, 0x06, 0xe8, 0x45, 0x4a, 0x07, 0x40, 0x41, 0x0a, 0x98, 0x30, 0x67, 0x01, 0xe8, 0x00, 0x40, 
  0x81, 0x56, 0x40, 0x40, 0x07, 0x02, 0x45, 0x0b, 0x64, 0x48, 0x06, 0x22, 0x44, 0x05, 0x5f, 0x3f, 
  0x06, 0x00, 0x40, 0x4e, 0x22, 0x44, 0x0a, 0x23, 0x47, 0x09, 0x01, 0x43, 0x0b, 0x00, 0x40, 0x43, 
  0x03, 0x46, 0x08, 0x07, 0x4f, 0x0b, 0x28, 0x51, 0x09, 0x44, 0x48, 0x07, 0x00, 0x40, 0x6f, 0x98, 
  0x30, 0x00, 0x0c, 0x2e, 0x62, 0x3b, 0x2e, 0x00, 0x11, 0x29, 0x62, 0x32, 0xe8, 0x20, 0x40, 0x0a, 
  0x4a, 0x55, 0x06, 0x1a, 0x75, 0x04, 0x7f, 0x7f, 0x3c, 0x1d, 0x7b, 0x06, 0x56, 0x6d, 0x08, 0x6d, 
  0x5a, 0x08, 0x44, 0x48, 0x09, 0x00, 0x40, 0x81, 0x4c, 0x01, 0x42, 0x0b, 0x23, 0x46, 0x12, 0x01, 
  0x42, 0x08, 0x00, 0x40, 0x45, 0x02, 0x44, 0x08, 0x06, 0x4c, 0x0b, 0x49, 0x52, 0x04, 0x48, 0x51, 
  0x07, 0x65, 0x4a, 0x05, 0x61, 0x43, 0x08, 0x5f, 0x3f, 0x08, 0x00, 0x40, 0x51, 0x20, 0x40, 0x0d, 
  0x00, 0x40, 0x83, 0x15, 0x98, 0x29, 0x00, 0x26, 0x24, 0x7b, 0x61, 0xe8, 0x26, 0x4d, 0x06, 0x16, 
  0x6d, 0x06, 0x7f, 0x7f, 0x43, 0x6f, 0x5f, 0x06, 0x00, 0x40, 0x04, 0x98, 0x2b, 0x74, 0x03, 0x24, 
  0x00, 0x3b, 0x2b, 0x00, 0x22, 0x2d, 0x79, 0x60, 0x2e, 0x75, 0x01, 0x2d, 0x00, 0x39, 0x2e, 0x00, 
  0x26, 0x30, 0x6d, 0x54, 0x30, 0x00, 0x81, 0x87, 0x4c, 0x35, 0x55, 0x40, 0x35, 0x00, 0x00, 0x37, 
  0x62, 0x40, 0x37, 0x00, 0x00, 0x39, 0x64, 0x40, 0x39, 0x00, 0x00, 0x3b, 0x7e, 0x81, 0x1c, 0xe8, 
  0x60, 0x40, 0x05, 0x61, 0x42, 0x07, 0x22, 0x45, 0x09, 0x43, 0x47, 0x08, 0x45, 0x4a, 0x09, 0x06, 
  0x4d, 0x0a, 0x27, 0x4f, 0x06, 0x68, 0x51, 0x06, 0x49, 0x53, 0x06, 0x2a, 0x55, 0x0a, 0x2b, 0x57, 
  0x07, 0x6d, 0x5a, 0x0a, 0x2f, 0x5f, 0x0a, 0x71, 0x62, 0x05, 0x12, 0x65, 0x06, 0x53, 0x66, 0x06, 
  0x73, 0x66, 0x09, 0x33, 0x66, 0x08, 0x52, 0x64, 0x0b, 0x2f, 0x5f, 0x0a, 0x2a, 0x55, 0x05, 0x24, 
  0x49, 0x09, 0x40, 0x41, 0x07, 0x00, 0x40, 0x21, 0x98, 0x3b, 0x00, 0x0a, 0x39, 0x43, 0x36, 0x39, 
  0x00, 0x00, 0x37, 0x5d, 0x40, 0x35, 0x55, 0x05, 0x37, 0x00, 0x4b, 0x30, 0x6f, 0x06, 0x35, 0x00, 
  0x81, 0x1a, 0x30, 0x00, 0x00, 0x30, 0x71, 0x30, 0x32, 0x71, 0x09, 0x30, 0x00, 0x57, 0xe8, 0x60, 
  0x40, 0x0b, 0x21, 0x42, 0x06, 0x61, 0x42, 0x07, 0x41, 0x42, 0x0a, 0x40, 0x41, 0x07, 0x20, 0x40, 
  0x0b, 0x00, 0x40, 0x3d, 0x20, 0x41, 0x07, 0x01, 0x43, 0x07, 0x22, 0x44, 0x0a, 0x41, 0x42, 0x14, 
  0x00, 0x40, 0x2f, 0x02, 0x44, 0x05, 0x05, 0x4a, 0x04, 0x26, 0x4d, 0x08, 0x27, 0x4e, 0x0a, 0x26, 
  0x4d, 0x0a, 0x23, 0x46, 0x08, 0x5f, 0x3f, 0x0a, 0x00, 0x40, 0x28, 0x98, 0x32, 0x00, 0x05, 0x32, 
  0x57, 0x65, 0xe8, 0x40, 0x41, 0x09, 0x03, 0x47, 0x08, 0x46, 0x4d, 0x0a, 0x6b, 0x57, 0x06, 0x54, 
  0x68, 0x06, 0x5b, 0x76, 0x06, 0x5e, 0x7d, 0x08, 0x7f, 0x7f, 0x81, 0x50, 0x5f, 0x7e, 0x0a, 0x5d, 
  0x7a, 0x0a, 0x59, 0x73, 0x07, 0x15, 0x6a, 0x04, 0x71, 0x62, 0x06, 0x6f, 0x5e, 0x08, 0x2d, 0x5b, 
  0x09, 0x2b, 0x57, 0x14, 0x68, 0x51, 0x09, 0x65, 0x4b, 0x09, 0x02, 0x45, 0x07, 0x40, 0x40, 0x08, 
  0x00, 0x40, 0x0b, 0x98, 0x32, 0x00, 0x05, 0x30, 0x50, 0x45, 0x2b, 0x43, 0x0c, 0x30, 0x00, 0x4a, 
  0x2b, 0x00, 0x00, 0x29, 0x43, 0x46, 0xe8, 0x61, 0x42, 0x06, 0x03, 0x47, 0x04, 0x04, 0x49, 0x06, 
  0x45, 0x4a, 0x08, 0x05, 0x4b, 0x13, 0x45, 0x4a, 0x0a, 0x44, 0x48, 0x05, 0x22, 0x45, 0x05, 0x01, 
  0x42, 0x07, 0x40, 0x40, 0x07, 0x00, 0x40, 0x37, 0x22, 0x44, 0x0a, 0x25, 0x4b, 0x09, 0x69, 0x53, 
  0x09, 0x6d, 0x5b, 0x09, 0x4f, 0x5e, 0x07, 0x4e, 0x5c, 0x08, 0x0b, 0x57, 0x08, 0x48, 0x51, 0x07, 
  0x44, 0x49, 0x13, 0x21, 0x42, 0x07, 0x00, 0x40, 0x2d, 0x00, 0x41, 0x06, 0x42, 0x45, 0x03, 0x24, 
  0x49, 0x16, 0x65, 0x4b, 0x09, 0x07, 0x4e, 0x09, 0x66, 0x4d, 0x0b, 0x07, 0x4e, 0x04, 0x66, 0x4d, 
  0x07, 0x46, 0x4d, 0x05, 0x98, 0x29, 0x00, 0x00, 0xe8, 0x00, 0x40, 0x00, 0x98, 0x29, 0x57, 0x40, 
  0xe8, 0x00, 0x40, 0x20, 0x47, 0x42, 0x10, 0x00, 0x40, 0x10, 0x1e, 0x3c, 0x10, 0x3c, 0x38, 0x10, 
  0x5a, 0x34, 0x10, 0x79, 0x30, 0x10, 0x17, 0x2d, 0x10, 0x35, 0x29, 0x10, 0x53, 0x25, 0x10, 0x71, 
  0x21, 0x10, 0x0f, 0x1e, 0x10, 0x2d, 0x1a, 0x10, 0x98, 0x29, 0x00, 0x00, 0x22, 0x7f, 0x00, 0xe8, 
  0x00, 0x40, 0x8f, 0x00, 0x98, 0x22, 0x00, 0x1c, 0x29, 0x63, 0x4a, 0x35, 0x74, 0x0c, 0x29, 0x00, 
  0x48, 0x37, 0x5f, 0x10, 0x35, 0x00, 0x85, 0x08, 0x35, 0x5a, 0x32, 0x37, 0x00, 0x6a, 0x35, 0x00, 
  0x1c, 0x2e, 0x6d, 0x30, 0x30, 0x61, 0x20, 0x2e, 0x00, 0x84, 0x66, 0x2e, 0x7a, 0x0c, 0x30, 0x00, 
  0x44, 0x2e, 0x00, 0x04, 0x29, 0x75, 0x5e, 0x29, 0x00, 0x08, 0x2b, 0x5b, 0x83, 0x06, 0xe8, 0x7f, 
  0x3d, 0x10, 0x1d, 0x39, 0x10, 0x3b, 0x34, 0x10, 0x58, 0x2f, 0x10, 0x76, 0x2a, 0x10, 0x14, 0x26, 
  0x10, 0x31, 0x21, 0x10, 0x4f, 0x1c, 0x10, 0x6c, 0x17, 0x10, 0x0a, 0x13, 0x10, 0x27, 0x0e, 0x10, 
  0x45, 0x09, 0x10, 0x7f, 0x01, 0x86, 0x20, 0x00, 0x00, 0x81, 0x20, 0x00, 0x40, 0x10, 0x98, 0x2b, 
  0x00, 0xc7, 0x10, 0x2d, 0x74, 0x3e, 0x2d, 0x00, 0x22, 0x2f, 0x61, 0x54, 0x2f, 0x00, 0x0c, 0x30, 
  0x75, 0x3a, 0x30, 0x00, 0x26, 0x32, 0x6d, 0x54, 0x32, 0x00, 0x0c, 0x34, 0x61, 0x54, 0x34, 0x00, 
  0x0c, 0x37, 0x61, 0x54, 0x37, 0x00, 0x0c, 0x3b, 0x57, 0x60, 0x3b, 0x00, 0x00, 0x39, 0x4d, 0x10, 
  0xe8, 0x00, 0x40, 0x10, 0x5b, 0x41, 0x10, 0x36, 0x43, 0x10, 0x12, 0x45, 0x10, 0x6d, 0x46, 0x10, 
  0x48, 0x48, 0x10, 0x24, 0x4a, 0x10, 0x7f, 0x4b, 0x10, 0x00, 0x4a, 0x10, 0x00, 0x48, 0x10, 0x00, 
  0x46, 0x10, 0x00, 0x44, 0x10, 0x00, 0x42, 0x44, 0x98, 0x39, 0x00, 0x0c, 0x36, 0x57, 0x60, 0x36, 
  0x00, 0x00, 0x34, 0x61, 0x82, 0x14, 0x34, 0x00, 0x0c, 0x39, 0x57, 0x54, 0x39, 0x00, 0x0c, 0x37, 
  0x61, 0x60, 0x37, 0x00, 0x00, 0x34, 0x61, 0x54, 0x34, 0x00, 0x0c, 0x32, 0x57, 0x82, 0x20, 0x32, 
  0x00, 0x00, 0x37, 0x61, 0x54, 0x37, 0x00, 0x0c, 0x34, 0x6b, 0x54, 0x34, 0x00, 0x0c, 0x32, 0x61, 
  0x60, 0x32, 0x00, 0x00, 0x2d, 0x61, 0x60, 0x2d, 0x00, 0x00, 0x34, 0x61, 0x60, 0x34, 0x00, 0x00, 
  0x32, 0x61, 0x60, 0x32, 0x00, 0x00, 0x2b, 0x6b, 0x60, 0x2b, 0x00, 0x00, 0x28, 0x6b, 0x60, 0x28, 
  0x00, 0x00, 0x2f, 0x6b, 0x60, 0x2f, 0x00, 0x00, 0xe8, 0x00, 0x40, 0x00, 0x98, 0x2d, 0x61, 0x20, 
  0xe8, 0x7f, 0x41, 0x10, 0x7f, 0x3d, 0x10, 0x20, 0x3b, 0x10, 0x40, 0x38, 0x10, 0x60, 0x35, 0x10, 
  0x00, 0x33, 0x10, 0x20, 0x30, 0x10, 0x40, 0x2d, 0x10, 0x60, 0x2a, 0x10, 0x7f, 0x27, 0x10, 0x38, 
  0x2a, 0x10, 0x71, 0x2c, 0x10, 0x2a, 0x2f, 0x10, 0x63, 0x31, 0x10, 0x1b, 0x34, 0x10, 0x54, 0x36, 
  0x10, 0x0d, 0x39, 0x10, 0x46, 0x3b, 0x10, 0x7f, 0x3d, 0x10, 0x00, 0x3c, 0x10, 0x00, 0x3a, 0x10, 
  0x00, 0x38, 0x10, 0x00, 0x36, 0x10, 0x7f, 0x33, 0x10, 0x7f, 0x35, 0x10, 0x7f, 0x37, 0x10, 0x7f, 
  0x39, 0x10, 0x7f, 0x3b, 0x10, 0x7f, 0x3d, 0x10, 0x7f, 0x3f, 0x10, 0x7f, 0x41, 0x10, 0x00, 0x3e, 
  0x10, 0x00, 0x40, 0x10, 0x40, 0x3d, 0x10, 0x00, 0x3b, 0x10, 0x40, 0x38, 0x10, 0x7f, 0x35, 0x10, 
  0x36, 0x37, 0x10, 0x6d, 0x38, 0x10, 0x24, 0x3a, 0x10, 0x5b, 0x3b, 0x10, 0x12, 0x3d, 0x10, 0x49, 
  0x3e, 0x10, 0x00, 0x40, 0x10, 0x33, 0x3e, 0x10, 0x66, 0x3c, 0x10, 0x19, 0x3b, 0x10, 0x4c, 0x39, 
  0x10, 0x7f, 0x37, 0x10, 0x2a, 0x39, 0x10, 0x54, 0x3a, 0x10, 0x7f, 0x3b, 0x10, 0x2a, 0x3d, 0x10, 
  0x55, 0x3e, 0x85, 0x10, 0x98, 0x2d, 0x00, 0x95, 0x00, 0x1f, 0x7f, 0x8a, 0x40, 0xb8, 0x01, 0x00, 
  0x00, 0xe8, 0x00, 0x40, 0x00, 0x98, 0x29, 0x7e, 0x60, 0x2b, 0x63, 0x04, 0x29, 0x00, 0x42, 0x2b, 
  0x00, 0x1a, 0x2e, 0x62, 0x5d, 0x2e, 0x00, 0x03, 0x2b, 0x51, 0x30, 0x2b, 0x00, 0x30, 0x30, 0x74, 
  0x60, 0x2e, 0x55, 0x02, 0x30, 0x00, 0x59, 0x2e, 0x00, 0x05, 0x2b, 0x54, 0x52, 0x2b, 0x00, 0x0e, 
  0x30, 0x7f, 0x37, 0xe8, 0x02, 0x44, 0x03, 0x66, 0x4c, 0x08, 0x0c, 0x59, 0x06, 0x53, 0x67, 0x0a, 
  0x3b, 0x77, 0x14, 0x7f, 0x7f, 0x17, 0x98, 0x30, 0x00, 0x3e, 0xe8, 0x3f, 0x7e, 0x05, 0x98, 0x30, 
  0x7e, 0x01, 0xe8, 0x00, 0x40, 0x5f, 0x98, 0x2e, 0x6e, 0x29, 0x30, 0x00, 0x37, 0x2b, 0x52, 0x18, 
  0x2e, 0x00, 0x3b, 0x2b, 0x00, 0x0d, 0x29, 0x62, 0x51, 0x29, 0x00, 0x0f, 0x24, 0x6d, 0x58, 0x24, 
  0x00, 0x08, 0x1f, 0x00, 0x86, 0x5d, 0x39, 0x6b, 0x66, 0xe8, 0x20, 0x40, 0x07, 0x00, 0x41, 0x09, 
  0x60, 0x41, 0x07, 0x01, 0x43, 0x06, 0x02, 0x45, 0x06, 0x23, 0x47, 0x08, 0x44, 0x49, 0x0f, 0x27, 
  0x4f, 0x0b, 0x0b, 0x57, 0x06, 0x4e, 0x5c, 0x0b, 0x30, 0x60, 0x06, 0x70, 0x61, 0x0a, 0x31, 0x62, 
  0x0a, 0x10, 0x61, 0x06, 0x6e, 0x5c, 0x0b, 0x4b, 0x57, 0x06, 0x47, 0x4f, 0x07, 0x23, 0x47, 0x0b, 
  0x41, 0x42, 0x0b, 0x00, 0x40, 0x83, 0x12, 0x20, 0x40, 0x11, 0x00, 0x40, 0x4f, 0x98, 0x39, 0x00, 
  0x17, 0x30, 0x5a, 0x38, 0xe8, 0x29, 0x52, 0x05, 0x35, 0x6b, 0x06, 0x7c, 0x78, 0x09, 0x7f, 0x7f, 
  0x4c, 0x5f, 0x7e, 0x06, 0x57, 0x6f, 0x08, 0x0d, 0x5a, 0x03, 0x98, 0x30, 0x00, 0x06, 0xe8, 0x45, 
  0x4a, 0x07, 0x40, 0x41, 0x0a, 0x98, 0x30, 0x67, 0x01, 0xe8, 0x00, 0x40, 0x81, 0x56, 0x40, 0x40, 
  0x07, 0x02, 0x45, 0x0b, 0x64, 0x48, 0x06, 0x22, 0x44, 0x05, 0x5f, 0x3f, 0x06, 0x00, 0x40, 0x4e, 
  0x22, 0x44, 0x0a, 0x23, 0x47, 0x09, 0x01, 0x43, 0x0b, 0x00, 0x40, 0x43, 0x03, 0x46, 0x08, 0x07, 
  0x4f, 0x0b, 0x28, 0x51, 0x09, 0x44, 0x48, 0x07, 0x00, 0x40, 0x6f, 0x98, 0x30, 0x00, 0x0c, 0x2e, 
  0x62, 0x3b, 0x2e, 0x00, 0x11, 0x29, 0x62, 0x32, 0xe8, 0x20, 0x40, 0x0a, 0x4a, 0x55, 0x06, 0x1a, 
  0x75, 0x04, 0x7f, 0x7f, 0x3c, 0x1d, 0x7b, 0x06, 0x56, 0x6d, 0x08, 0x6d, 0x5a, 0x08, 0x44, 0x48, 
  0x09, 0x00, 0x40, 0x81, 0x4c, 0x01, 0x42, 0x0b, 0x23, 0x46, 0x12, 0x01, 0x42, 0x08, 0x00, 0x40, 
  0x45, 0x02, 0x44, 0x08, 0x06, 0x4c, 0x0b, 0x49, 0x52, 0x04, 0x48, 0x51, 0x07, 0x65, 0x4a, 0x05, 
  0x61, 0x43, 0x08, 0x5f, 0x3f, 0x08, 0x00, 0x40, 0x51, 0x20, 0x40, 0x0d, 0x00, 0x40, 0x83, 0x15, 
  0x98, 0x29, 0x00, 0x26, 0x24, 0x7b, 0x61, 0xe8, 0x26, 0x4d, 0x06, 0x16, 0x6d, 0x06, 0x7f, 0x7f, 
  0x43, 0x6f, 0x5f, 0x06, 0x00, 0x40, 0x04, 0x98, 0x2b, 0x74, 0x03, 0x24, 0x00, 0x3b, 0x2b, 0x00, 
  0x22, 0x2d, 0x79, 0x60, 0x2e, 0x75, 0x01, 0x2d, 0x00, 0x39, 0x2e, 0x00, 0x26, 0x30, 0x6d, 0x54, 
  0x30, 0x00, 0x00, 0xff, 0x2f, 0x00, 0x4d, 0x54, 0x72, 0x6b, 0x00, 0x00, 0x15, 0xb4, 0x00, 0xff, 
  0x03, 0x05, 0x44, 0x72, 0x75, 0x6d, 0x73, 0x00, 0xc9, 0x00, 0x00, 0xb9, 0x07, 0x66, 0x00, 0x0a, 
  0x40, 0x00, 0x79, 0x00, 0x00, 0x5b, 0x28, 0x00, 0x5d, 0x00, 0x00, 0x01, 0x00, 0x00, 0xe9, 0x00, 
  0x40, 0x00, 0x99, 0x2c, 0x7b, 0x00, 0x29, 0x59, 0x00, 0x24, 0x7f, 0x43, 0x29, 0x00, 0x12, 0x2c, 
  0x00, 0x07, 0x24, 0x00, 0x64, 0x2b, 0x59, 0x43, 0x2b, 0x00, 0x1d, 0x2c, 0x40, 0x55, 0x2c, 0x00, 
  0x0b, 0x2c, 0x7b, 0x00, 0x25, 0x7b, 0x55, 0x2c, 0x00, 0x00, 0x25, 0x00, 0x0b, 0x24, 0x7d, 0x60, 
  0x28, 0x33, 0x13, 0x24, 0x00, 0x1d, 0x28, 0x00, 0x00, 0x28, 0x4d, 0x30, 0x28, 0x00, 0x00, 0x28, 
  0x7f, 0x61, 0x28, 0x00, 0x5f, 0x30, 0x34, 0x30, 0x30, 0x00, 0x00, 0x30, 0x4e, 0x30, 0x30, 0x00, 
  0x00, 0x30, 0x6f, 0x47, 0x30, 0x00, 0x19, 0x30, 0x67, 0x4a, 0x30, 0x00, 0x16, 0x2d, 0x5d, 0x40, 
  0x2d, 0x00, 0x20, 0x2d, 0x5d, 0x60, 0x2d, 0x00, 0x00, 0x2a, 0x7f, 0x00, 0x31, 0x7f, 0x2b, 0x2a, 
  0x00, 0x03, 0x31, 0x00, 0x1f, 0x2c, 0x75, 0x1f, 0x2c, 0x00, 0x1b, 0x2c, 0x68, 0x2b, 0x2c, 0x00, 
  0x11, 0x2c, 0x6c, 0x28, 0x2c, 0x00, 0x26, 0x2a, 0x7e, 0x1f, 0x2a, 0x00, 0x4c, 0x2c, 0x75, 0x04, 
  0x25, 0x7f, 0x1c, 0x2c, 0x00, 0x36, 0x2a, 0x7f, 0x03, 0x25, 0x00, 0x0b, 0x25, 0x31, 0x17, 0x2a, 
  0x00, 0x3e, 0x25, 0x00, 0x04, 0x2c, 0x7d, 0x23, 0x2c, 0x00, 0x3a, 0x2e, 0x7f, 0x0d, 0x24, 0x76, 
  0x27, 0x2e, 0x00, 0x2e, 0x24, 0x00, 0x01, 0x2a, 0x7e, 0x24, 0x2a, 0x00, 0x2e, 0x2c, 0x7b, 0x11, 
  0x24, 0x64, 0x18, 0x2c, 0x00, 0x27, 0x24, 0x00, 0x1d, 0x2e, 0x7e, 0x37, 0x2e, 0x00, 0x2e, 0x2a, 
  0x7d, 0x03, 0x25, 0x7e, 0x1a, 0x2a, 0x00, 0x46, 0x25, 0x00, 0x00, 0x2c, 0x7f, 0x00, 0x25, 0x31, 
  0x2a, 0x2c, 0x00, 0x2b, 0x25, 0x00, 0x0b, 0x2c, 0x6e, 0x02, 0x24, 0x6b, 0x2e, 0x2c, 0x00, 0x2e, 
  0x24, 0x00, 0x02, 0x2a, 0x7f, 0x2b, 0x2a, 0x00, 0x22, 0x2c, 0x75, 0x15, 0x24, 0x76, 0x0a, 0x2c, 
  0x00, 0x1b, 0x2c, 0x68, 0x2b, 0x2c, 0x00, 0x0c, 0x24, 0x00, 0x05, 0x2c, 0x6c, 0x28, 0x2c, 0x00, 
  0x26, 0x2a, 0x7e, 0x09, 0x24, 0x67, 0x16, 0x2a, 0x00, 0x28, 0x24, 0x00, 0x24, 0x2c, 0x75, 0x01, 
  0x25, 0x7f, 0x1f, 0x2c, 0x00, 0x36, 0x2a, 0x7f, 0x0e, 0x25, 0x31, 0x03, 0x25, 0x00, 0x14, 0x2a, 
  0x00, 0x3e, 0x25, 0x00, 0x04, 0x2c, 0x7d, 0x23, 0x2c, 0x00, 0x3a, 0x2e, 0x7f, 0x07, 0x24, 0x76, 
  0x2d, 0x2e, 0x00, 0x27, 0x24, 0x00, 0x08, 0x2a, 0x7e, 0x24, 0x2a, 0x00, 0x2e, 0x2c, 0x7b, 0x11, 
  0x24, 0x67, 0x18, 0x2c, 0x00, 0x24, 0x24, 0x00, 0x20, 0x2e, 0x7e, 0x37, 0x2e, 0x00, 0x2e, 0x2a, 
  0x7d, 0x03, 0x25, 0x7e, 0x1a, 0x2a, 0x00, 0x46, 0x25, 0x00, 0x00, 0x2c, 0x7f, 0x00, 0x25, 0x31, 
  0x2a, 0x2c, 0x00, 0x2b, 0x25, 0x00, 0x0b, 0x2c, 0x6e, 0x0c, 0x24, 0x7e, 0x24, 0x2c, 0x00, 0x30, 
  0x2a, 0x7f, 0x11, 0x24, 0x00, 0x1a, 0x2a, 0x00, 0x22, 0x2c, 0x75, 0x1f, 0x2c, 0x00, 0x1b, 0x2c, 
  0x68, 0x2b, 0x2c, 0x00, 0x11, 0x2c, 0x6c, 0x0a, 0x24, 0x7f, 0x1e, 0x2c, 0x00, 0x26, 0x2a, 0x7e, 
  0x13, 0x24, 0x00, 0x0c, 0x2a, 0x00, 0x4c, 0x2c, 0x75, 0x0c, 0x25, 0x7f, 0x14, 0x2c, 0x00, 0x36, 
  0x2a, 0x7f, 0x0e, 0x25, 0x31, 0x04, 0x25, 0x00, 0x13, 0x2a, 0x00, 0x3e, 0x25, 0x00, 0x04, 0x2c, 
  0x7d, 0x23, 0x2c, 0x00, 0x3a, 0x2e, 0x7f, 0x0b, 0x24, 0x7f, 0x29, 0x2e, 0x00, 0x2f, 0x2a, 0x7e, 
  0x0c, 0x24, 0x00, 0x18, 0x2a, 0x00, 0x2e, 0x2c, 0x7b, 0x13, 0x24, 0x69, 0x16, 0x2c, 0x00, 0x26, 
  0x24, 0x00, 0x1e, 0x2e, 0x7e, 0x37, 0x2e, 0x00, 0x2e, 0x2a, 0x7d, 0x03, 0x25, 0x7f, 0x1a, 0x2a, 
  0x00, 0x46, 0x25, 0x00, 0x00, 0x2c, 0x7f, 0x00, 0x25, 0x31, 0x2a, 0x2c, 0x00, 0x2b, 0x25, 0x00, 
  0x0b, 0x2c, 0x6e, 0x05, 0x24, 0x7f, 0x2b, 0x2c, 0x00, 0x30, 0x2a, 0x7f, 0x00, 0x24, 0x7f, 0x08, 
  0x24, 0x00, 0x23, 0x2a, 0x00, 0x22, 0x2c, 0x75, 0x0f, 0x24, 0x00, 0x0c, 0x24, 0x7f, 0x04, 0x2c, 
  0x00, 0x1b, 0x2c, 0x68, 0x2b, 0x2c, 0x00, 0x0d, 0x24, 0x00, 0x01, 0x2b, 0x59, 0x03, 0x2c, 0x6c, 
  0x28, 0x2c, 0x00, 0x18, 0x2b, 0x00, 0x1d, 0x2e, 0x64, 0x04, 0x24, 0x67, 0x1b, 0x2e, 0x00, 0x25, 
  0x24, 0x00, 0x1c, 0x2c, 0x7e, 0x00, 0x25, 0x7f, 0x1f, 0x2c, 0x00, 0x41, 0x2d, 0x7d, 0x00, 0x24, 
  0x7d, 0x01, 0x25, 0x00, 0x3f, 0x2d, 0x00, 0x20, 0x2b, 0x7d, 0x13, 0x24, 0x00, 0x2d, 0x2b, 0x00, 
  0x1d, 0x24, 0x7f, 0x03, 0x28, 0x7f, 0x55, 0x24, 0x00, 0x0c, 0x28, 0x00, 0x5f, 0x24, 0x76, 0x00, 
  0x2f, 0x6f, 0x3c, 0x24, 0x00, 0x0b, 0x2f, 0x00, 0x18, 0x25, 0x7f, 0x01, 0x2f, 0x6f, 0x47, 0x2f, 
  0x00, 0x03, 0x25, 0x00, 0x76, 0x2d, 0x6b, 0x40, 0x2d, 0x00, 0x00, 0x2d, 0x52, 0x20, 0x2d, 0x00, 
  0x20, 0x2d, 0x5f, 0x20, 0x2d, 0x00, 0x20, 0x34, 0x7f, 0x00, 0x2a, 0x7f, 0x00, 0x24, 0x76, 0x2b, 
  0x2a, 0x00, 0x22, 0x2c, 0x75, 0x0f, 0x24, 0x00, 0x10, 0x2c, 0x00, 0x1b, 0x2c, 0x68, 0x2b, 0x2c, 
  0x00, 0x0e, 0x34, 0x00, 0x03, 0x2c, 0x6c, 0x28, 0x2c, 0x00, 0x26, 0x2a, 0x7e, 0x09, 0x24, 0x67, 
  0x16, 0x2a, 0x00, 0x28, 0x24, 0x00, 0x24, 0x2c, 0x75, 0x01, 0x25, 0x7f, 0x1f, 0x2c, 0x00, 0x36, 
  0x2a, 0x7f, 0x0e, 0x25, 0x31, 0x03, 0x25, 0x00, 0x14, 0x2a, 0x00, 0x3e, 0x25, 0x00, 0x04, 0x2c, 
  0x7d, 0x23, 0x2c, 0x00, 0x3a, 0x2e, 0x7f, 0x07, 0x24, 0x76, 0x2d, 0x2e, 0x00, 0x27, 0x24, 0x00, 
  0x08, 0x2a, 0x7e, 0x24, 0x2a, 0x00, 0x2e, 0x2c, 0x7b, 0x11, 0x24, 0x67, 0x18, 0x2c, 0x00, 0x24, 
  0x24, 0x00, 0x20, 0x2e, 0x7e, 0x37, 0x2e, 0x00, 0x2e, 0x2a, 0x7d, 0x03, 0x25, 0x7f, 0x1a, 0x2a, 
  0x00, 0x46, 0x2c, 0x7f, 0x00, 0x25, 0x31, 0x0b, 0x25, 0x00, 0x1f, 0x2c, 0x00, 0x2b, 0x25, 0x00, 
  0x0b, 0x2c, 0x6e, 0x0c, 0x24, 0x7e, 0x24, 0x2c, 0x00, 0x30, 0x2a, 0x7f, 0x11, 0x24, 0x00, 0x1a, 
  0x2a, 0x00, 0x22, 0x2c, 0x75, 0x1f, 0x2c, 0x00, 0x1b, 0x2c, 0x68, 0x2b, 0x2c, 0x00, 0x11, 0x2c, 
  0x6c, 0x0a, 0x24, 0x7f, 0x1e, 0x2c, 0x00, 0x26, 0x2a, 0x7e, 0x13, 0x24, 0x00, 0x0c, 0x2a, 0x00, 
  0x4c, 0x2c, 0x75, 0x0c, 0x25, 0x7f, 0x14, 0x2c, 0x00, 0x36, 0x2a, 0x7f, 0x0e, 0x25, 0x31, 0x04, 
  0x25, 0x00, 0x13, 0x2a, 0x00, 0x3e, 0x25, 0x00, 0x04, 0x2c, 0x7d, 0x23, 0x2c, 0x00, 0x3a, 0x2e, 
  0x7f, 0x0b, 0x24, 0x7f, 0x29, 0x2e, 0x00, 0x2f, 0x2a, 0x7e, 0x0c, 0x24, 0x00, 0x18, 0x2a, 0x00, 
  0x2e, 0x2c, 0x7b, 0x13, 0x24, 0x69, 0x16, 0x2c, 0x00, 0x26, 0x24, 0x00, 0x1e, 0x2e, 0x7e, 0x37, 
  0x2e, 0x00, 0x2e, 0x2a, 0x7d, 0x03, 0x25, 0x7f, 0x1a, 0x2a, 0x00, 0x46, 0x2c, 0x7f, 0x00, 0x25, 
  0x31, 0x04, 0x25, 0x00, 0x26, 0x2c, 0x00, 0x2b, 0x25, 0x00, 0x0b, 0x2c, 0x6e, 0x05, 0x24, 0x7f, 
  0x2b, 0x2c, 0x00, 0x30, 0x2a, 0x7f, 0x08, 0x24, 0x00, 0x23, 0x2a, 0x00, 0x22, 0x2c, 0x75, 0x1f, 
  0x2c, 0x00, 0x1b, 0x2c, 0x68, 0x2b, 0x2c, 0x00, 0x11, 0x2c, 0x6c, 0x0a, 0x24, 0x7f, 0x1e, 0x2c, 
  0x00, 0x26, 0x2a, 0x7e, 0x13, 0x24, 0x00, 0x0c, 0x2a, 0x00, 0x4c, 0x2c, 0x75, 0x0c, 0x25, 0x7f, 
  0x14, 0x2c, 0x00, 0x36, 0x2a, 0x7f, 0x0e, 0x25, 0x31, 0x04, 0x25, 0x00, 0x13, 0x2a, 0x00, 0x3e, 
  0x25, 0x00, 0x04, 0x2c, 0x7d, 0x23, 0x2c, 0x00, 0x3a, 0x2e, 0x7f, 0x0b, 0x24, 0x7f, 0x29, 0x2e, 
  0x00, 0x2f, 0x2a, 0x7e, 0x0c, 0x24, 0x00, 0x18, 0x2a, 0x00, 0x2e, 0x2c, 0x7b, 0x13, 0x24, 0x69, 
  0x16, 0x2c, 0x00, 0x26, 0x24, 0x00, 0x1e, 0x2e, 0x7e, 0x37, 0x2e, 0x00, 0x2e, 0x2a, 0x7d, 0x03, 
  0x25, 0x7f, 0x1a, 0x2a, 0x00, 0x46, 0x2c, 0x7f, 0x00, 0x25, 0x31, 0x04, 0x25, 0x00, 0x26, 0x2c, 
  0x00, 0x2b, 0x25, 0x00, 0x0b, 0x2c, 0x6e, 0x05, 0x24, 0x7f, 0x2b, 0x2c, 0x00, 0x30, 0x2a, 0x7f, 
  0x00, 0x2c, 0x7b, 0x00, 0x29, 0x59, 0x00, 0x24, 0x7f, 0x08, 0x24, 0x00, 0x23, 0x2a, 0x00, 0x18, 
  0x29, 0x00, 0x0a, 0x2c, 0x75, 0x08, 0x2c, 0x00, 0x07, 0x24, 0x00, 0x10, 0x2c, 0x00, 0x1b, 0x2c, 
  0x68, 0x2b, 0x2c, 0x00, 0x0e, 0x2b, 0x59, 0x03, 0x2c, 0x6c, 0x28, 0x2c, 0x00, 0x18, 0x2b, 0x00, 
  0x1d, 0x2c, 0x40, 0x55, 0x2c, 0x00, 0x0b, 0x2c, 0x7b, 0x00, 0x25, 0x7b, 0x55, 0x2c, 0x00, 0x00, 
  0x25, 0x00, 0x0b, 0x24, 0x7d, 0x60, 0x28, 0x33, 0x13, 0x24, 0x00, 0x1d, 0x28, 0x00, 0x00, 0x28, 
  0x4d, 0x30, 0x28, 0x00, 0x00, 0x28, 0x7f, 0x61, 0x28, 0x00, 0x5f, 0x30, 0x34, 0x30, 0x30, 0x00, 
  0x00, 0x30, 0x4e, 0x30, 0x30, 0x00, 0x00, 0x30, 0x6f, 0x47, 0x30, 0x00, 0x19, 0x30, 0x67, 0x4a, 
  0x30, 0x00, 0x16, 0x2d, 0x5d, 0x40, 0x2d, 0x00, 0x20, 0x2d, 0x5d, 0x60, 0x2d, 0x00, 0x00, 0x24, 
  0x7f, 0x00, 0x2d, 0x7f, 0x4b, 0x24, 0x00, 0x09, 0x2d, 0x00, 0x81, 0x4c, 0x24, 0x7f, 0x00, 0x2b, 
  0x7f, 0x3f, 0x24, 0x00, 0x15, 0x2b, 0x00, 0x81, 0x4c, 0x24, 0x7f, 0x00, 0x31, 0x7f, 0x32, 0x24, 
  0x00, 0x00, 0x31, 0x00, 0x84, 0x0e, 0x2e, 0x54, 0x37, 0x2e, 0x00, 0x81, 0x09, 0x54, 0x36, 0x00, 
  0x33, 0x60, 0x42, 0x54, 0x00, 0x00, 0x33, 0x00, 0x7e, 0x35, 0x64, 0x26, 0x35, 0x00, 0x85, 0x5a, 
  0x26, 0x7f, 0x03, 0x2b, 0x7f, 0x15, 0x28, 0x7f, 0x82, 0x68, 0x26, 0x00, 0x00, 0x2b, 0x00, 0x00, 
  0x28, 0x00, 0x00, 0x37, 0x7f, 0x00, 0x2a, 0x7f, 0x00, 0x24, 0x7f, 0x2b, 0x37, 0x00, 0x00, 0x2a, 
  0x00, 0x22, 0x2c, 0x75, 0x0a, 0x24, 0x00, 0x15, 0x2c, 0x00, 0x1b, 0x2c, 0x68, 0x2b, 0x2c, 0x00, 
  0x11, 0x2c, 0x6c, 0x28, 0x2c, 0x00, 0x26, 0x2a, 0x7e, 0x0f, 0x24, 0x7f, 0x10, 0x2a, 0x00, 0x47, 
  0x24, 0x00, 0x05, 0x2c, 0x75, 0x04, 0x25, 0x7f, 0x1c, 0x2c, 0x00, 0x36, 0x2a, 0x7f, 0x0a, 0x25, 
  0x00, 0x04, 0x25, 0x31, 0x17, 0x2a, 0x00, 0x42, 0x2c, 0x7d, 0x03, 0x25, 0x00, 0x20, 0x2c, 0x00, 
  0x3a, 0x2e, 0x7f, 0x0a, 0x24, 0x7f, 0x2a, 0x2e, 0x00, 0x2f, 0x2a, 0x7e, 0x0b, 0x24, 0x00, 0x19, 
  0x2a, 0x00, 0x2e, 0x2c, 0x7b, 0x15, 0x24, 0x69, 0x14, 0x2c, 0x00, 0x28, 0x24, 0x00, 0x1c, 0x2e, 
  0x7e, 0x37, 0x2e, 0x00, 0x2e, 0x2a, 0x7d, 0x03, 0x25, 0x7f, 0x1a, 0x2a, 0x00, 0x46, 0x2c, 0x7f, 
  0x00, 0x25, 0x31, 0x04, 0x25, 0x00, 0x26, 0x2c, 0x00, 0x32, 0x25, 0x00, 0x04, 0x2c, 0x6e, 0x00, 
  0x24, 0x7f, 0x30, 0x2c, 0x00, 0x30, 0x2a, 0x7f, 0x03, 0x24, 0x00, 0x28, 0x2a, 0x00, 0x22, 0x2c, 
  0x75, 0x1f, 0x2c, 0x00, 0x1b, 0x2c, 0x68, 0x2b, 0x2c, 0x00, 0x0e, 0x24, 0x7f, 0x03, 0x2c, 0x6c, 
  0x28, 0x2c, 0x00, 0x26, 0x2a, 0x7e, 0x06, 0x24, 0x00, 0x19, 0x2a, 0x00, 0x4c, 0x2c, 0x75, 0x04, 
  0x25, 0x7f, 0x1c, 0x2c, 0x00, 0x36, 0x2a, 0x7f, 0x0a, 0x25, 0x00, 0x04, 0x25, 0x31, 0x17, 0x2a, 
  0x00, 0x42, 0x2c, 0x7d, 0x03, 0x25, 0x00, 0x20, 0x2c, 0x00, 0x3a, 0x2e, 0x7f, 0x0a, 0x24, 0x7f, 
  0x2a, 0x2e, 0x00, 0x2f, 0x2a, 0x7e, 0x0b, 0x24, 0x00, 0x19, 0x2a, 0x00, 0x2e, 0x2c, 0x7b, 0x15, 
  0x24, 0x69, 0x14, 0x2c, 0x00, 0x28, 0x24, 0x00, 0x1c, 0x2e, 0x7e, 0x37, 0x2e, 0x00, 0x2e, 0x2a, 
  0x7d, 0x03, 0x25, 0x7f, 0x1a, 0x2a, 0x00, 0x46, 0x2c, 0x7f, 0x00, 0x25, 0x31, 0x04, 0x25, 0x00, 
  0x26, 0x2c, 0x00, 0x32, 0x25, 0x00, 0x04, 0x2c, 0x6e, 0x0c, 0x24, 0x7e, 0x24, 0x2c, 0x00, 0x30, 
  0x2a, 0x7f, 0x00, 0x24, 0x7f, 0x11, 0x24, 0x00, 0x1a, 0x2a, 0x00, 0x22, 0x2c, 0x75, 0x0a, 0x24, 
  0x00, 0x15, 0x2c, 0x00, 0x1b, 0x2c, 0x68, 0x2b, 0x2c, 0x00, 0x11, 0x2c, 0x6c, 0x28, 0x2c, 0x00, 
  0x26, 0x2a, 0x7e, 0x0f, 0x24, 0x7f, 0x10, 0x2a, 0x00, 0x47, 0x24, 0x00, 0x05, 0x2c, 0x75, 0x04, 
  0x25, 0x7f, 0x1c, 0x2c, 0x00, 0x36, 0x2a, 0x7f, 0x0a, 0x25, 0x00, 0x04, 0x25, 0x31, 0x17, 0x2a, 
  0x00, 0x42, 0x2c, 0x7d, 0x03, 0x25, 0x00, 0x20, 0x2c, 0x00, 0x3a, 0x2e, 0x7f, 0x0a, 0x24, 0x7f, 
  0x2a, 0x2e, 0x00, 0x2f, 0x2a, 0x7e, 0x0b, 0x24, 0x00, 0x19, 0x2a, 0x00, 0x2e, 0x2c, 0x7b, 0x15, 
  0x24, 0x69, 0x14, 0x2c, 0x00, 0x28, 0x24, 0x00, 0x1c, 0x2e, 0x7e, 0x37, 0x2e, 0x00, 0x2e, 0x2a, 
  0x7d, 0x03, 0x25, 0x7f, 0x1a, 0x2a, 0x00, 0x46, 0x2c, 0x7f, 0x00, 0x25, 0x31, 0x04, 0x25, 0x00, 
  0x26, 0x2c, 0x00, 0x32, 0x25, 0x00, 0x04, 0x2c, 0x6e, 0x00, 0x24, 0x7f, 0x30, 0x2c, 0x00, 0x30, 
  0x33, 0x7f, 0x00, 0x2a, 0x7f, 0x00, 0x24, 0x7f, 0x03, 0x24, 0x00, 0x28, 0x33, 0x00, 0x00, 0x2a, 
  0x00, 0x22, 0x2c, 0x75, 0x0f, 0x24, 0x00, 0x10, 0x2c, 0x00, 0x1b, 0x2c, 0x68, 0x2b, 0x2c, 0x00, 
  0x0e, 0x24, 0x7f, 0x00, 0x2b, 0x59, 0x03, 0x2c, 0x6c, 0x28, 0x2c, 0x00, 0x18, 0x2b, 0x00, 0x14, 
  0x24, 0x00, 0x09, 0x2e, 0x64, 0x1f, 0x2e, 0x00, 0x41, 0x2c, 0x7e, 0x00, 0x25, 0x7f, 0x1f, 0x2c, 
  0x00, 0x41, 0x2d, 0x7d, 0x00, 0x24, 0x7d, 0x01, 0x25, 0x00, 0x3f, 0x2d, 0x00, 0x20, 0x2b, 0x7d, 
  0x13, 0x24, 0x00, 0x2d, 0x2b, 0x00, 0x20, 0x28, 0x7f, 0x61, 0x28, 0x00, 0x5f, 0x2f, 0x6f, 0x47, 
  0x2f, 0x00, 0x19, 0x24, 0x76, 0x00, 0x2f, 0x7e, 0x3c, 0x24, 0x00, 0x0b, 0x2f, 0x00, 0x79, 0x2d, 
  0x6b, 0x40, 0x2d, 0x00, 0x00, 0x2d, 0x52, 0x20, 0x2d, 0x00, 0x00, 0x24, 0x7e, 0x20, 0x2d, 0x5f, 
  0x20, 0x2d, 0x00, 0x20, 0x24, 0x7f, 0x00, 0x31, 0x7f, 0x05, 0x24, 0x00, 0x2d, 0x24, 0x00, 0x00, 
  0x31, 0x00, 0x82, 0x4e, 0x2f, 0x6f, 0x00, 0x33, 0x6f, 0x47, 0x2f, 0x00, 0x00, 0x33, 0x00, 0x79, 
  0x24, 0x6f, 0x60, 0x34, 0x7f, 0x00, 0x24, 0x7f, 0x05, 0x24, 0x00, 0x2d, 0x34, 0x00, 0x00, 0x24, 
  0x00, 0x82, 0x4e, 0x2f, 0x6f, 0x47, 0x2f, 0x00, 0x19, 0x2d, 0x6b, 0x40, 0x2d, 0x00, 0x00, 0x2d, 
  0x52, 0x20, 0x2d, 0x00, 0x00, 0x24, 0x7e, 0x20, 0x2d, 0x5f, 0x20, 0x2d, 0x00, 0x20, 0x24, 0x7f, 
  0x00, 0x2d, 0x7f, 0x05, 0x24, 0x00, 0x46, 0x24, 0x00, 0x09, 0x2d, 0x00, 0x81, 0x4c, 0x24, 0x7f, 
  0x00, 0x2b, 0x7f, 0x3f, 0x24, 0x00, 0x15, 0x2b, 0x00, 0x81, 0x4c, 0x24, 0x7f, 0x00, 0x31, 0x7f, 
  0x32, 0x24, 0x00, 0x00, 0x31, 0x00, 0x84, 0x0e, 0x2e, 0x54, 0x37, 0x2e, 0x00, 0x82, 0x30, 0x35, 
  0x56, 0x24, 0x35, 0x00, 0x88, 0x71, 0x37, 0x43, 0x22, 0x37, 0x00, 0x85, 0x02, 0x33, 0x21, 0x30, 
  0x33, 0x00, 0x00, 0x35, 0x24, 0x30, 0x35, 0x00, 0x00, 0x33, 0x26, 0x30, 0x33, 0x00, 0x00, 0x35, 
  0x29, 0x30, 0x35, 0x00, 0x00, 0x33, 0x2c, 0x30, 0x33, 0x00, 0x00, 0x35, 0x2f, 0x30, 0x35, 0x00, 
  0x00, 0x33, 0x31, 0x30, 0x33, 0x00, 0x00, 0x35, 0x34, 0x30, 0x35, 0x00, 0x00, 0x2b, 0x73, 0x00, 
  0x33, 0x37, 0x10, 0x2b, 0x00, 0x20, 0x33, 0x00, 0x00, 0x35, 0x3a, 0x30, 0x35, 0x00, 0x00, 0x33, 
  0x3c, 0x30, 0x33, 0x00, 0x00, 0x35, 0x3f, 0x30, 0x35, 0x00, 0x00, 0x33, 0x42, 0x30, 0x33, 0x00, 
  0x00, 0x35, 0x45, 0x30, 0x35, 0x00, 0x00, 0x24, 0x61, 0x00, 0x39, 0x43, 0x24, 0x39, 0x00, 0x0c, 
  0x24, 0x00, 0x81, 0x12, 0x2a, 0x6c, 0x28, 0x2a, 0x00, 0x3a, 0x2c, 0x6b, 0x1e, 0x2c, 0x00, 0x3e, 
  0x33, 0x57, 0x00, 0x25, 0x7f, 0x54, 0x25, 0x00, 0x0c, 0x25, 0x31, 0x54, 0x25, 0x00, 0x06, 0x33, 
  0x00, 0x08, 0x2a, 0x6c, 0x28, 0x2a, 0x00, 0x38, 0x24, 0x76, 0x02, 0x2c, 0x6b, 0x1e, 0x2c, 0x00, 
  0x36, 0x24, 0x00, 0x08, 0x33, 0x57, 0x5c, 0x24, 0x64, 0x3e, 0x24, 0x00, 0x20, 0x33, 0x00, 0x08, 
  0x2a, 0x6c, 0x28, 0x2a, 0x00, 0x36, 0x25, 0x7e, 0x04, 0x2c, 0x6b, 0x1e, 0x2c, 0x00, 0x3e, 0x25, 
  0x00, 0x00, 0x35, 0x43, 0x00, 0x25, 0x31, 0x54, 0x35, 0x00, 0x00, 0x25, 0x00, 0x0c, 0x35, 0x57, 
  0x02, 0x24, 0x6b, 0x52, 0x35, 0x00, 0x0a, 0x24, 0x00, 0x02, 0x35, 0x57, 0x02, 0x2a, 0x6c, 0x28, 
  0x2a, 0x00, 0x38, 0x24, 0x76, 0x02, 0x2c, 0x6b, 0x1e, 0x2c, 0x00, 0x3c, 0x24, 0x00, 0x56, 0x35, 
  0x00, 0x0c, 0x35, 0x57, 0x02, 0x24, 0x67, 0x3e, 0x24, 0x00, 0x1c, 0x25, 0x7f, 0x06, 0x2a, 0x6c, 
  0x28, 0x2a, 0x00, 0x32, 0x25, 0x00, 0x04, 0x25, 0x31, 0x04, 0x25, 0x00, 0x00, 0x2c, 0x6b, 0x1e, 
  0x2c, 0x00, 0x32, 0x35, 0x00, 0x0c, 0x35, 0x57, 0x5c, 0x24, 0x76, 0x54, 0x24, 0x00, 0x12, 0x2a, 
  0x6c, 0x28, 0x2a, 0x00, 0x2a, 0x35, 0x00, 0x08, 0x24, 0x67, 0x08, 0x2c, 0x6b, 0x1e, 0x2c, 0x00, 
  0x16, 0x24, 0x00, 0x28, 0x33, 0x57, 0x60, 0x25, 0x7e, 0x5a, 0x33, 0x00, 0x02, 0x25, 0x00, 0x04, 
  0x25, 0x31, 0x02, 0x2a, 0x6c, 0x02, 0x25, 0x00, 0x26, 0x2a, 0x00, 0x38, 0x2c, 0x6c, 0x00, 0x24, 
  0x7e, 0x26, 0x2c, 0x00, 0x38, 0x2e, 0x43, 0x06, 0x24, 0x00, 0x81, 0x2e, 0x2e, 0x00, 0x0c, 0x2a, 
  0x61, 0x02, 0x24, 0x7f, 0x22, 0x2a, 0x00, 0x36, 0x24, 0x00, 0x06, 0x2c, 0x61, 0x1e, 0x2c, 0x00, 
  0x42, 0x33, 0x57, 0x08, 0x25, 0x7f, 0x54, 0x25, 0x00, 0x04, 0x25, 0x31, 0x04, 0x25, 0x00, 0x56, 
  0x33, 0x00, 0x06, 0x2a, 0x57, 0x1e, 0x2a, 0x00, 0x42, 0x2c, 0x61, 0x00, 0x24, 0x7f, 0x18, 0x2c, 
  0x00, 0x48, 0x33, 0x57, 0x04, 0x24, 0x00, 0x5a, 0x24, 0x69, 0x3c, 0x24, 0x00, 0x20, 0x33, 0x00, 
  0x06, 0x2a, 0x57, 0x1e, 0x2a, 0x00, 0x42, 0x2c, 0x61, 0x00, 0x25, 0x7f, 0x18, 0x2c, 0x00, 0x44, 
  0x25, 0x00, 0x04, 0x25, 0x31, 0x04, 0x25, 0x00, 0x5c, 0x2e, 0x43, 0x04, 0x24, 0x7f, 0x44, 0x2e, 
  0x00, 0x14, 0x24, 0x00, 0x04, 0x2a, 0x7f, 0x2a, 0x2a, 0x00, 0x36, 0x2c, 0x75, 0x08, 0x24, 0x7f, 
  0x18, 0x2c, 0x00, 0x3c, 0x33, 0x7d, 0x02, 0x24, 0x00, 0x1c, 0x33, 0x00, 0x42, 0x2a, 0x7d, 0x08, 
  0x24, 0x67, 0x16, 0x2a, 0x00, 0x2a, 0x24, 0x00, 0x1c, 0x25, 0x7f, 0x00, 0x2c, 0x7e, 0x1e, 0x2c, 
  0x00, 0x42, 0x25, 0x00, 0x00, 0x25, 0x31, 0x02, 0x33, 0x7e, 0x02, 0x25, 0x00, 0x22, 0x33, 0x00, 
  0x3c, 0x2a, 0x7e, 0x24, 0x2a, 0x00, 0x36, 0x24, 0x7f, 0x04, 0x2c, 0x7e, 0x1e, 0x2c, 0x00, 0x36, 
  0x24, 0x00, 0x0e, 0x33, 0x7e, 0x24, 0x33, 0x00, 0x3a, 0x2f, 0x6f, 0x00, 0x24, 0x76, 0x02, 0x2a, 
  0x7e, 0x24, 0x2a, 0x00, 0x16, 0x24, 0x00, 0x0a, 0x2f, 0x00, 0x18, 0x25, 0x7f, 0x02, 0x2a, 0x6b, 
  0x00, 0x30, 0x6f, 0x24, 0x2a, 0x00, 0x22, 0x30, 0x00, 0x04, 0x25, 0x00, 0x16, 0x25, 0x31, 0x00, 
  0x2c, 0x75, 0x04, 0x25, 0x00, 0x1c, 0x2c, 0x00, 0x40, 0x29, 0x6b, 0x00, 0x2e, 0x4d, 0x40, 0x29, 
  0x00, 0x6e, 0x2e, 0x00, 0x12, 0x2a, 0x7f, 0x00, 0x24, 0x76, 0x00, 0x34, 0x61, 0x2a, 0x2a, 0x00, 
  0x0c, 0x34, 0x00, 0x26, 0x24, 0x00, 0x04, 0x2c, 0x57, 0x30, 0x2c, 0x00, 0x30, 0x2e, 0x43, 0x5a, 
  0x24, 0x67, 0x3e, 0x24, 0x00, 0x22, 0x2e, 0x00, 0x02, 0x25, 0x7f, 0x04, 0x35, 0x4d, 0x5c, 0x25, 
  0x00, 0x04, 0x25, 0x31, 0x04, 0x25, 0x00, 0x50, 0x35, 0x00, 0x0c, 0x2a, 0x7f, 0x2a, 0x2a, 0x00, 
  0x36, 0x24, 0x76, 0x00, 0x2c, 0x57, 0x30, 0x2c, 0x00, 0x24, 0x24, 0x00, 0x0c, 0x2e, 0x43, 0x5c, 
  0x24, 0x67, 0x3c, 0x24, 0x00, 0x22, 0x2e, 0x00, 0x06, 0x33, 0x43, 0x60, 0x25, 0x7f, 0x5a, 0x33, 
  0x00, 0x02, 0x25, 0x00, 0x04, 0x2a, 0x7f, 0x00, 0x25, 0x31, 0x0a, 0x25, 0x00, 0x20, 0x2a, 0x00, 
  0x16, 0x2c, 0x57, 0x22, 0x24, 0x7e, 0x0e, 0x2c, 0x00, 0x10, 0x2c, 0x57, 0x30, 0x2c, 0x00, 0x10, 
  0x2e, 0x43, 0x06, 0x24, 0x00, 0x81, 0x34, 0x2e, 0x00, 0x06, 0x35, 0x4d, 0x02, 0x24, 0x7f, 0x58, 
  0x24, 0x00, 0x5a, 0x35, 0x00, 0x0c, 0x2a, 0x7f, 0x08, 0x25, 0x7f, 0x22, 0x2a, 0x00, 0x32, 0x25, 
  0x00, 0x04, 0x2c, 0x57, 0x00, 0x25, 0x31, 0x04, 0x25, 0x00, 0x2c, 0x2c, 0x00, 0x30, 0x2e, 0x43, 
  0x60, 0x24, 0x7f, 0x5a, 0x2e, 0x00, 0x06, 0x33, 0x43, 0x04, 0x24, 0x00, 0x5a, 0x24, 0x69, 0x3c, 
  0x24, 0x00, 0x20, 0x33, 0x00, 0x06, 0x2a, 0x7f, 0x2a, 0x2a, 0x00, 0x36, 0x2c, 0x57, 0x00, 0x25, 
  0x7f, 0x30, 0x2c, 0x00, 0x2c, 0x25, 0x00, 0x04, 0x25, 0x31, 0x00, 0x2e, 0x43, 0x04, 0x25, 0x00, 
  0x60, 0x24, 0x7f, 0x56, 0x2e, 0x00, 0x06, 0x2a, 0x7f, 0x08, 0x24, 0x00, 0x22, 0x2a, 0x00, 0x16, 
  0x2c, 0x57, 0x30, 0x2c, 0x00, 0x10, 0x2c, 0x57, 0x30, 0x2c, 0x00, 0x10, 0x2e, 0x43, 0x02, 0x24, 
  0x7f, 0x58, 0x24, 0x00, 0x60, 0x2e, 0x00, 0x06, 0x35, 0x43, 0x08, 0x25, 0x7f, 0x54, 0x25, 0x00, 
  0x04, 0x25, 0x31, 0x04, 0x25, 0x00, 0x56, 0x35, 0x00, 0x06, 0x2a, 0x7f, 0x2a, 0x2a, 0x00, 0x36, 
  0x24, 0x7f, 0x00, 0x2c, 0x57, 0x30, 0x2c, 0x00, 0x30, 0x2e, 0x43, 0x04, 0x24, 0x00, 0x5a, 0x24, 
  0x69, 0x3c, 0x24, 0x00, 0x20, 0x2e, 0x00, 0x06, 0x33, 0x43, 0x60, 0x25, 0x7f, 0x5a, 0x33, 0x00, 
  0x02, 0x25, 0x00, 0x04, 0x2a, 0x7f, 0x00, 0x25, 0x31, 0x04, 0x25, 0x00, 0x26, 0x2a, 0x00, 0x81, 
  0x16, 0x2a, 0x7f, 0x00, 0x2c, 0x7b, 0x00, 0x29, 0x59, 0x2a, 0x2a, 0x00, 0x18, 0x29, 0x00, 0x06, 
  0x2c, 0x00, 0x18, 0x2c, 0x75, 0x00, 0x28, 0x39, 0x08, 0x2c, 0x00, 0x22, 0x28, 0x00, 0x36, 0x2b, 
  0x59, 0x02, 0x2c, 0x6c, 0x28, 0x2c, 0x00, 0x18, 0x2b, 0x00, 0x1a, 0x2a, 0x7d, 0x1e, 0x2a, 0x00, 
  0x46, 0x2c, 0x7b, 0x00, 0x25, 0x7b, 0x54, 0x2c, 0x00, 0x00, 0x25, 0x00, 0x0a, 0x2c, 0x71, 0x02, 
  0x25, 0x31, 0x00, 0x24, 0x7d, 0x04, 0x25, 0x00, 0x22, 0x2c, 0x00, 0x3c, 0x2a, 0x7e, 0x10, 0x24, 
  0x00, 0x14, 0x2a, 0x00, 0x3a, 0x28, 0x39, 0x02, 0x2c, 0x6c, 0x1c, 0x28, 0x00, 0x0c, 0x2c, 0x00, 
  0x36, 0x2c, 0x6b, 0x00, 0x28, 0x43, 0x1e, 0x2c, 0x00, 0x00, 0x28, 0x00, 0x42, 0x30, 0x34, 0x30, 
  0x30, 0x00, 0x30, 0x2c, 0x6b, 0x00, 0x28, 0x2f, 0x1e, 0x2c, 0x00, 0x00, 0x28, 0x00, 0x42, 0x30, 
  0x67, 0x4a, 0x30, 0x00, 0x16, 0x2d, 0x5d, 0x00, 0x2c, 0x6b, 0x1e, 0x2c, 0x00, 0x22, 0x2d, 0x00, 
  0x20, 0x31, 0x39, 0x00, 0x28, 0x43, 0x24, 0x31, 0x00, 0x12, 0x28, 0x00, 0x2a, 0x37, 0x61, 0x00, 
  0x24, 0x61, 0x02, 0x2a, 0x7e, 0x24, 0x2a, 0x00, 0x0a, 0x24, 0x00, 0x06, 0x37, 0x00, 0x2a, 0x2c, 
  0x75, 0x20, 0x2c, 0x00, 0x42, 0x2c, 0x6c, 0x28, 0x2c, 0x00, 0x3a, 0x2a, 0x7e, 0x20, 0x2a, 0x00, 
  0x3c, 0x25, 0x7f, 0x02, 0x2c, 0x6c, 0x28, 0x2c, 0x00, 0x2a, 0x25, 0x00, 0x0c, 0x25, 0x31, 0x04, 
  0x2a, 0x7e, 0x22, 0x2a, 0x00, 0x2e, 0x25, 0x00, 0x0c, 0x2c, 0x7b, 0x22, 0x2c, 0x00, 0x3e, 0x2c, 
  0x7f, 0x02, 0x24, 0x76, 0x32, 0x2c, 0x00, 0x24, 0x24, 0x00, 0x08, 0x2a, 0x7e, 0x24, 0x2a, 0x00, 
  0x3c, 0x2c, 0x7c, 0x02, 0x24, 0x64, 0x24, 0x2c, 0x00, 0x1a, 0x24, 0x00, 0x20, 0x2c, 0x7e, 0x34, 
  0x2c, 0x00, 0x2c, 0x25, 0x7e, 0x02, 0x2a, 0x7e, 0x24, 0x2a, 0x00, 0x3a, 0x25, 0x00, 0x00, 0x25, 
  0x31, 0x00, 0x2c, 0x7e, 0x2a, 0x2c, 0x00, 0x2a, 0x25, 0x00, 0x0e, 0x24, 0x6b, 0x00, 0x2c, 0x7e, 
  0x36, 0x2c, 0x00, 0x26, 0x24, 0x00, 0x04, 0x2a, 0x7e, 0x24, 0x2a, 0x00, 0x3a, 0x2c, 0x75, 0x02, 
  0x24, 0x76, 0x1e, 0x2c, 0x00, 0x3e, 0x24, 0x00, 0x04, 0x2c, 0x6c, 0x28, 0x2c, 0x00, 0x38, 0x24, 
  0x67, 0x02, 0x2a, 0x7e, 0x20, 0x2a, 0x00, 0x1c, 0x24, 0x00, 0x1c, 0x25, 0x7f, 0x04, 0x2c, 0x75, 
  0x20, 0x2c, 0x00, 0x3c, 0x25, 0x00, 0x04, 0x25, 0x31, 0x00, 0x2a, 0x7f, 0x04, 0x25, 0x00, 0x20, 
  0x2a, 0x00, 0x3e, 0x2c, 0x7d, 0x24, 0x2c, 0x00, 0x36, 0x24, 0x76, 0x04, 0x2c, 0x7f, 0x34, 0x2c, 
  0x00, 0x1c, 0x24, 0x00, 0x10, 0x2e, 0x4d, 0x5c, 0x24, 0x67, 0x3c, 0x24, 0x00, 0x1c, 0x2e, 0x00, 
  0x0e, 0x2a, 0x7e, 0x36, 0x2a, 0x00, 0x24, 0x2c, 0x7d, 0x04, 0x25, 0x7e, 0x1a, 0x2c, 0x00, 0x42, 
  0x25, 0x00, 0x04, 0x2e, 0x4d, 0x00, 0x25, 0x31, 0x04, 0x25, 0x00, 0x5e, 0x24, 0x7e, 0x52, 0x2e, 
  0x00, 0x0c, 0x2a, 0x7f, 0x06, 0x24, 0x00, 0x24, 0x2a, 0x00, 0x36, 0x2c, 0x75, 0x20, 0x2c, 0x00, 
  0x42, 0x2c, 0x6c, 0x00, 0x24, 0x7f, 0x28, 0x2c, 0x00, 0x30, 0x24, 0x00, 0x0a, 0x2a, 0x7e, 0x20, 
  0x2a, 0x00, 0x38, 0x2c, 0x75, 0x0c, 0x25, 0x7f, 0x14, 0x2c, 0x00, 0x40, 0x25, 0x00, 0x04, 0x25, 
  0x31, 0x04, 0x25, 0x00, 0x02, 0x2a, 0x7f, 0x24, 0x2a, 0x00, 0x38, 0x2c, 0x7d, 0x24, 0x2c, 0x00, 
  0x3a, 0x24, 0x7f, 0x00, 0x2c, 0x7f, 0x34, 0x2c, 0x00, 0x2e, 0x2a, 0x7e, 0x02, 0x24, 0x00, 0x22, 
  0x2a, 0x00, 0x38, 0x24, 0x69, 0x00, 0x2c, 0x7b, 0x2a, 0x2c, 0x00, 0x12, 0x24, 0x00, 0x28, 0x2c, 
  0x7e, 0x36, 0x2c, 0x00, 0x24, 0x2a, 0x7d, 0x04, 0x25, 0x7f, 0x1a, 0x2a, 0x00, 0x42, 0x25, 0x00, 
  0x04, 0x25, 0x31, 0x00, 0x2e, 0x4d, 0x04, 0x25, 0x00, 0x60, 0x24, 0x7f, 0x58, 0x24, 0x00, 0x04, 
  0x2e, 0x00, 0x00, 0x2a, 0x7f, 0x2a, 0x2a, 0x00, 0x36, 0x2c, 0x75, 0x08, 0x24, 0x7f, 0x18, 0x2c, 
  0x00, 0x3e, 0x24, 0x00, 0x02, 0x2b, 0x59, 0x02, 0x2c, 0x6c, 0x28, 0x2c, 0x00, 0x18, 0x2b, 0x00, 
  0x1e, 0x2c, 0x64, 0x04, 0x24, 0x67, 0x1a, 0x2c, 0x00, 0x26, 0x24, 0x00, 0x1c, 0x25, 0x7f, 0x00, 
  0x2c, 0x7e, 0x1e, 0x2c, 0x00, 0x42, 0x25, 0x00, 0x00, 0x24, 0x7d, 0x00, 0x2d, 0x7d, 0x40, 0x2d, 
  0x00, 0x20, 0x2b, 0x7d, 0x00, 0x2c, 0x6b, 0x12, 0x24, 0x00, 0x12, 0x2c, 0x00, 0x1c, 0x2b, 0x00, 
  0x1c, 0x24, 0x7f, 0x04, 0x28, 0x7f, 0x54, 0x24, 0x00, 0x0c, 0x28, 0x00, 0x00, 0x2c, 0x6b, 0x00, 
  0x2f, 0x6f, 0x24, 0x2c, 0x00, 0x22, 0x2f, 0x00, 0x1a, 0x24, 0x76, 0x3c, 0x24, 0x00, 0x22, 0x25, 
  0x7f, 0x02, 0x2c, 0x6b, 0x00, 0x2f, 0x6f, 0x24, 0x2c, 0x00, 0x22, 0x2f, 0x00, 0x04, 0x25, 0x00, 
  0x16, 0x2d, 0x6b, 0x40, 0x2d, 0x00, 0x20, 0x2c, 0x6b, 0x24, 0x2c, 0x00, 0x3e, 0x2d, 0x5f, 0x20, 
  0x2d, 0x00, 0x3e, 0x24, 0x76, 0x00, 0x39, 0x61, 0x02, 0x2e, 0x57, 0x2a, 0x2e, 0x00, 0x0a, 0x39, 
  0x00, 0x26, 0x24, 0x00, 0x64, 0x2a, 0x7f, 0x2a, 0x2a, 0x00, 0x36, 0x2c, 0x75, 0x02, 0x24, 0x67, 
  0x1e, 0x2c, 0x00, 0x20, 0x24, 0x00, 0x1c, 0x25, 0x7f, 0x06, 0x2e, 0x57, 0x2a, 0x2e, 0x00, 0x30, 
  0x25, 0x00, 0x04, 0x25, 0x31, 0x04, 0x25, 0x00, 0x5c, 0x2a, 0x7f, 0x2a, 0x2a, 0x00, 0x36, 0x2c, 
  0x75, 0x00, 0x24, 0x76, 0x20, 0x2c, 0x00, 0x34, 0x24, 0x00, 0x0e, 0x2e, 0x57, 0x2a, 0x2e, 0x00, 
  0x36, 0x24, 0x67, 0x3c, 0x24, 0x00, 0x22, 0x2a, 0x7f, 0x2a, 0x2a, 0x00, 0x36, 0x2c, 0x75, 0x00, 
  0x25, 0x7f, 0x20, 0x2c, 0x00, 0x3c, 0x25, 0x00, 0x04, 0x25, 0x31, 0x02, 0x2e, 0x57, 0x08, 0x25, 
  0x00, 0x22, 0x2e, 0x00, 0x36, 0x24, 0x7e, 0x5e, 0x2a, 0x7f, 0x06, 0x24, 0x00, 0x24, 0x2a, 0x00, 
  0x36, 0x2c, 0x75, 0x20, 0x2c, 0x00, 0x42, 0x2e, 0x57, 0x00, 0x24, 0x7f, 0x2a, 0x2e, 0x00, 0x2e, 
  0x24, 0x00, 0x6c, 0x2a, 0x7f, 0x02, 0x25, 0x7f, 0x22, 0x2a, 0x00, 0x32, 0x25, 0x00, 0x00, 0x2c, 
  0x75, 0x04, 0x25, 0x31, 0x04, 0x25, 0x00, 0x18, 0x2c, 0x00, 0x46, 0x2e, 0x57, 0x2a, 0x2e, 0x00, 
  0x34, 0x24, 0x7f, 0x64, 0x24, 0x00, 0x00, 0x2a, 0x7e, 0x24, 0x2a, 0x00, 0x36, 0x24, 0x69, 0x00, 
  0x2c, 0x78, 0x24, 0x2c, 0x00, 0x18, 0x24, 0x00, 0x28, 0x2e, 0x57, 0x2a, 0x2e, 0x00, 0x34, 0x25, 
  0x7f, 0x5c, 0x25, 0x00, 0x04, 0x25, 0x31, 0x04, 0x25, 0x00, 0x02, 0x2a, 0x7f, 0x24, 0x2a, 0x00, 
  0x36, 0x2c, 0x6f, 0x04, 0x24, 0x7f, 0x28, 0x2c, 0x00, 0x36, 0x2e, 0x57, 0x06, 0x24, 0x00, 0x24, 
  0x2e, 0x00, 0x81, 0x16, 0x2e, 0x57, 0x00, 0x24, 0x7f, 0x2a, 0x2e, 0x00, 0x2e, 0x24, 0x00, 0x6c, 
  0x2a, 0x7f, 0x02, 0x25, 0x7f, 0x22, 0x2a, 0x00, 0x32, 0x25, 0x00, 0x00, 0x2c, 0x75, 0x04, 0x25, 
  0x31, 0x04, 0x25, 0x00, 0x18, 0x2c, 0x00, 0x46, 0x2e, 0x57, 0x2a, 0x2e, 0x00, 0x34, 0x24, 0x7f, 
  0x62, 0x2e, 0x57, 0x02, 0x24, 0x00, 0x28, 0x2e, 0x00, 0x32, 0x24, 0x69, 0x3c, 0x24, 0x00, 0x2c, 
  0x2a, 0x7f, 0x24, 0x2a, 0x00, 0x32, 0x2c, 0x75, 0x04, 0x25, 0x7f, 0x1c, 0x2c, 0x00, 0x40, 0x25, 
  0x00, 0x04, 0x25, 0x31, 0x02, 0x2e, 0x57, 0x02, 0x25, 0x00, 0x28, 0x2e, 0x00, 0x30, 0x2c, 0x75, 
  0x04, 0x24, 0x55, 0x1c, 0x2c, 0x00, 0x24, 0x24, 0x00, 0x20, 0x24, 0x7f, 0x00, 0x29, 0x59, 0x02, 
  0x34, 0x57, 0x04, 0x2a, 0x7f, 0x24, 0x2a, 0x00, 0x02, 0x34, 0x00, 0x16, 0x29, 0x00, 0x1a, 0x2c, 
  0x75, 0x08, 0x24, 0x00, 0x18, 0x2c, 0x00, 0x44, 0x2b, 0x59, 0x06, 0x2c, 0x7f, 0x24, 0x2c, 0x00, 
  0x18, 0x2b, 0x00, 0x1a, 0x2c, 0x75, 0x20, 0x2c, 0x00, 0x44, 0x24, 0x69, 0x00, 0x25, 0x7b, 0x3c, 
  0x24, 0x00, 0x18, 0x25, 0x00, 0x0a, 0x2c, 0x71, 0x22, 0x24, 0x4b, 0x06, 0x2c, 0x00, 0x36, 0x24, 
  0x00, 0x0a, 0x2c, 0x7f, 0x24, 0x2c, 0x00, 0x16, 0x24, 0x45, 0x3c, 0x24, 0x00, 0x04, 0x28, 0x43, 
  0x36, 0x28, 0x00, 0x0a, 0x28, 0x7f, 0x40, 0x28, 0x00, 0x1c, 0x2c, 0x75, 0x20, 0x2c, 0x00, 0x04, 
  0x28, 0x7f, 0x40, 0x28, 0x00, 0x00, 0x30, 0x6f, 0x06, 0x2c, 0x7f, 0x24, 0x2c, 0x00, 0x16, 0x30, 
  0x00, 0x00, 0x30, 0x67, 0x40, 0x30, 0x00, 0x00, 0x30, 0x5d, 0x40, 0x30, 0x00, 0x00, 0x2d, 0x75, 
  0x20, 0x2d, 0x00, 0x20, 0x2d, 0x75, 0x20, 0x2d, 0x00, 0x20, 0x2d, 0x5d, 0x40, 0x24, 0x7f, 0x00, 
  0x31, 0x7f, 0x20, 0x2d, 0x00, 0x40, 0x24, 0x00, 0x00, 0x31, 0x00, 0x82, 0x60, 0x35, 0x4a, 0x31, 
  0x35, 0x00, 0x4f, 0x33, 0x4e, 0x30, 0x33, 0x00, 0x50, 0x2e, 0x53, 0x27, 0x2e, 0x00, 0x82, 0x39, 
  0x2d, 0x34, 0x30, 0x2d, 0x00, 0x00, 0x2d, 0x4e, 0x30, 0x2d, 0x00, 0x00, 0x2d, 0x6f, 0x47, 0x2d, 
  0x00, 0x19, 0x2d, 0x67, 0x4a, 0x2d, 0x00, 0x16, 0x2c, 0x7b, 0x00, 0x29, 0x59, 0x00, 0x24, 0x7f, 
  0x43, 0x29, 0x00, 0x12, 0x2c, 0x00, 0x07, 0x24, 0x00, 0x64, 0x2b, 0x59, 0x43, 0x2b, 0x00, 0x1d, 
  0x2c, 0x40, 0x55, 0x2c, 0x00, 0x0b, 0x2c, 0x7b, 0x00, 0x25, 0x7b, 0x55, 0x2c, 0x00, 0x00, 0x25, 
  0x00, 0x0b, 0x24, 0x7d, 0x60, 0x28, 0x33, 0x13, 0x24, 0x00, 0x1d, 0x28, 0x00, 0x00, 0x28, 0x4d, 
  0x30, 0x28, 0x00, 0x00, 0x28, 0x7f, 0x61, 0x28, 0x00, 0x5f, 0x30, 0x34, 0x30, 0x30, 0x00, 0x00, 
  0x30, 0x4e, 0x30, 0x30, 0x00, 0x00, 0x30, 0x6f, 0x47, 0x30, 0x00, 0x19, 0x30, 0x67, 0x4a, 0x30, 
  0x00, 0x16, 0x2d, 0x5d, 0x40, 0x2d, 0x00, 0x20, 0x2d, 0x5d, 0x60, 0x2d, 0x00, 0x00, 0x2a, 0x7f, 
  0x00, 0x31, 0x7f, 0x2b, 0x2a, 0x00, 0x03, 0x31, 0x00, 0x1f, 0x2c, 0x75, 0x1f, 0x2c, 0x00, 0x1b, 
  0x2c, 0x68, 0x2b, 0x2c, 0x00, 0x11, 0x2c, 0x6c, 0x28, 0x2c, 0x00, 0x26, 0x2a, 0x7e, 0x1f, 0x2a, 
  0x00, 0x4c, 0x2c, 0x75, 0x04, 0x25, 0x7f, 0x1c, 0x2c, 0x00, 0x36, 0x2a, 0x7f, 0x03, 0x25, 0x00, 
  0x0b, 0x25, 0x31, 0x17, 0x2a, 0x00, 0x3e, 0x25, 0x00, 0x04, 0x2c, 0x7d, 0x23, 0x2c, 0x00, 0x3a, 
  0x2e, 0x7f, 0x0d, 0x24, 0x76, 0x27, 0x2e, 0x00, 0x2e, 0x24, 0x00, 0x01, 0x2a, 0x7e, 0x24, 0x2a, 
  0x00, 0x2e, 0x2c, 0x7b, 0x11, 0x24, 0x64, 0x18, 0x2c, 0x00, 0x27, 0x24, 0x00, 0x1d, 0x2e, 0x7e, 
  0x37, 0x2e, 0x00, 0x2e, 0x2a, 0x7d, 0x03, 0x25, 0x7e, 0x1a, 0x2a, 0x00, 0x46, 0x25, 0x00, 0x00, 
  0x2c, 0x7f, 0x00, 0x25, 0x31, 0x2a, 0x2c, 0x00, 0x2b, 0x25, 0x00, 0x0b, 0x2c, 0x6e, 0x02, 0x24, 
  0x6b, 0x2e, 0x2c, 0x00, 0x2e, 0x24, 0x00, 0x02, 0x2a, 0x7f, 0x2b, 0x2a, 0x00, 0x22, 0x2c, 0x75, 
  0x15, 0x24, 0x76, 0x0a, 0x2c, 0x00, 0x1b, 0x2c, 0x68, 0x2b, 0x2c, 0x00, 0x0c, 0x24, 0x00, 0x05, 
  0x2c, 0x6c, 0x28, 0x2c, 0x00, 0x26, 0x2a, 0x7e, 0x09, 0x24, 0x67, 0x16, 0x2a, 0x00, 0x28, 0x24, 
  0x00, 0x24, 0x2c, 0x75, 0x01, 0x25, 0x7f, 0x1f, 0x2c, 0x00, 0x36, 0x2a, 0x7f, 0x0e, 0x25, 0x31, 
  0x03, 0x25, 0x00, 0x14, 0x2a, 0x00, 0x3e, 0x25, 0x00, 0x04, 0x2c, 0x7d, 0x23, 0x2c, 0x00, 0x3a, 
  0x2e, 0x7f, 0x07, 0x24, 0x76, 0x2d, 0x2e, 0x00, 0x27, 0x24, 0x00, 0x08, 0x2a, 0x7e, 0x24, 0x2a, 
  0x00, 0x2e, 0x2c, 0x7b, 0x11, 0x24, 0x67, 0x18, 0x2c, 0x00, 0x24, 0x24, 0x00, 0x20, 0x2e, 0x7e, 
  0x37, 0x2e, 0x00, 0x2e, 0x2a, 0x7d, 0x03, 0x25, 0x7e, 0x1a, 0x2a, 0x00, 0x46, 0x25, 0x00, 0x00, 
  0x2c, 0x7f, 0x00, 0x25, 0x31, 0x2a, 0x2c, 0x00, 0x2b, 0x25, 0x00, 0x0b, 0x2c, 0x6e, 0x0c, 0x24, 
  0x7e, 0x24, 0x2c, 0x00, 0x30, 0x2a, 0x7f, 0x11, 0x24, 0x00, 0x1a, 0x2a, 0x00, 0x22, 0x2c, 0x75, 
  0x1f, 0x2c, 0x00, 0x1b, 0x2c, 0x68, 0x2b, 0x2c, 0x00, 0x11, 0x2c, 0x6c, 0x0a, 0x24, 0x7f, 0x1e, 
  0x2c, 0x00, 0x26, 0x2a, 0x7e, 0x13, 0x24, 0x00, 0x0c, 0x2a, 0x00, 0x4c, 0x2c, 0x75, 0x0c, 0x25, 
  0x7f, 0x14, 0x2c, 0x00, 0x36, 0x2a, 0x7f, 0x0e, 0x25, 0x31, 0x04, 0x25, 0x00, 0x13, 0x2a, 0x00, 
  0x3e, 0x25, 0x00, 0x04, 0x2c, 0x7d, 0x23, 0x2c, 0x00, 0x3a, 0x2e, 0x7f, 0x0b, 0x24, 0x7f, 0x29, 
  0x2e, 0x00, 0x2f, 0x2a, 0x7e, 0x0c, 0x24, 0x00, 0x18, 0x2a, 0x00, 0x2e, 0x2c, 0x7b, 0x13, 0x24, 
  0x69, 0x16, 0x2c, 0x00, 0x26, 0x24, 0x00, 0x1e, 0x2e, 0x7e, 0x37, 0x2e, 0x00, 0x2e, 0x2a, 0x7d, 
  0x03, 0x25, 0x7f, 0x1a, 0x2a, 0x00, 0x46, 0x25, 0x00, 0x00, 0x2c, 0x7f, 0x00, 0x25, 0x31, 0x2a, 
  0x2c, 0x00, 0x2b, 0x25, 0x00, 0x0b, 0x2c, 0x6e, 0x05, 0x24, 0x7f, 0x2b, 0x2c, 0x00, 0x30, 0x2a, 
  0x7f, 0x00, 0x24, 0x7f, 0x08, 0x24, 0x00, 0x23, 0x2a, 0x00, 0x22, 0x2c, 0x75, 0x0f, 0x24, 0x00, 
  0x0c, 0x24, 0x7f, 0x04, 0x2c, 0x00, 0x1b, 0x2c, 0x68, 0x2b, 0x2c, 0x00, 0x0d, 0x24, 0x00, 0x01, 
  0x2b, 0x59, 0x03, 0x2c, 0x6c, 0x28, 0x2c, 0x00, 0x18, 0x2b, 0x00, 0x1d, 0x2e, 0x64, 0x04, 0x24, 
  0x67, 0x1b, 0x2e, 0x00, 0x25, 0x24, 0x00, 0x1c, 0x2c, 0x7e, 0x00, 0x25, 0x7f, 0x1f, 0x2c, 0x00, 
  0x41, 0x2d, 0x7d, 0x00, 0x24, 0x7d, 0x01, 0x25, 0x00, 0x3f, 0x2d, 0x00, 0x20, 0x2b, 0x7d, 0x13, 
  0x24, 0x00, 0x2d, 0x2b, 0x00, 0x1d, 0x24, 0x7f, 0x03, 0x28, 0x7f, 0x55, 0x24, 0x00, 0x0c, 0x28, 
  0x00, 0x5f, 0x24, 0x76, 0x00, 0x2f, 0x6f, 0x3c, 0x24, 0x00, 0x0b, 0x2f, 0x00, 0x18, 0x25, 0x7f, 
  0x01, 0x2f, 0x6f, 0x47, 0x2f, 0x00, 0x03, 0x25, 0x00, 0x76, 0x2d, 0x6b, 0x40, 0x2d, 0x00, 0x00, 
  0x2d, 0x52, 0x20, 0x2d, 0x00, 0x20, 0x2d, 0x5f, 0x20, 0x2d, 0x00, 0x20, 0x34, 0x7f, 0x00, 0x2a, 
  0x7f, 0x00, 0x24, 0x76, 0x2b, 0x2a, 0x00, 0x22, 0x2c, 0x75, 0x0f, 0x24, 0x00, 0x10, 0x2c, 0x00, 
  0x1b, 0x2c, 0x68, 0x2b, 0x2c, 0x00, 0x0e, 0x34, 0x00, 0x03, 0x2c, 0x6c, 0x28, 0x2c, 0x00, 0x26, 
  0x2a, 0x7e, 0x09, 0x24, 0x67, 0x16, 0x2a, 0x00, 0x28, 0x24, 0x00, 0x24, 0x2c, 0x75, 0x01, 0x25, 
  0x7f, 0x1f, 0x2c, 0x00, 0x36, 0x2a, 0x7f, 0x0e, 0x25, 0x31, 0x03, 0x25, 0x00, 0x14, 0x2a, 0x00, 
  0x3e, 0x25, 0x00, 0x04, 0x2c, 0x7d, 0x23, 0x2c, 0x00, 0x3a, 0x2e, 0x7f, 0x07, 0x24, 0x76, 0x2d, 
  0x2e, 0x00, 0x27, 0x24, 0x00, 0x08, 0x2a, 0x7e, 0x24, 0x2a, 0x00, 0x2e, 0x2c, 0x7b, 0x11, 0x24, 
  0x67, 0x18, 0x2c, 0x00, 0x24, 0x24, 0x00, 0x20, 0x2e, 0x7e, 0x37, 0x2e, 0x00, 0x2e, 0x2a, 0x7d, 
  0x03, 0x25, 0x7f, 0x1a, 0x2a, 0x00, 0x46, 0x2c, 0x7f, 0x00, 0x25, 0x31, 0x0b, 0x25, 0x00, 0x1f, 
  0x2c, 0x00, 0x2b, 0x25, 0x00, 0x0b, 0x2c, 0x6e, 0x0c, 0x24, 0x7e, 0x24, 0x2c, 0x00, 0x30, 0x2a, 
  0x7f, 0x11, 0x24, 0x00, 0x1a, 0x2a, 0x00, 0x22, 0x2c, 0x75, 0x1f, 0x2c, 0x00, 0x1b, 0x2c, 0x68, 
  0x2b, 0x2c, 0x00, 0x11, 0x2c, 0x6c, 0x0a, 0x24, 0x7f, 0x1e, 0x2c, 0x00, 0x26, 0x2a, 0x7e, 0x13, 
  0x24, 0x00, 0x0c, 0x2a, 0x00, 0x4c, 0x2c, 0x75, 0x0c, 0x25, 0x7f, 0x14, 0x2c, 0x00, 0x36, 0x2a, 
  0x7f, 0x0e, 0x25, 0x31, 0x04, 0x25, 0x00, 0x13, 0x2a, 0x00, 0x3e, 0x25, 0x00, 0x04, 0x2c, 0x7d, 
  0x23, 0x2c, 0x00, 0x3a, 0x2e, 0x7f, 0x0b, 0x24, 0x7f, 0x29, 0x2e, 0x00, 0x2f, 0x2a, 0x7e, 0x0c, 
  0x24, 0x00, 0x18, 0x2a, 0x00, 0x2e, 0x2c, 0x7b, 0x13, 0x24, 0x69, 0x16, 0x2c, 0x00, 0x26, 0x24, 
  0x00, 0x1e, 0x2e, 0x7e, 0x37, 0x2e, 0x00, 0x2e, 0x2a, 0x7d, 0x03, 0x25, 0x7f, 0x1a, 0x2a, 0x00, 
  0x46, 0x2c, 0x7f, 0x00, 0x25, 0x31, 0x04, 0x25, 0x00, 0x26, 0x2c, 0x00, 0x2b, 0x25, 0x00, 0x0b, 
  0x2c, 0x6e, 0x05, 0x24, 0x7f, 0x2b, 0x2c, 0x00, 0x30, 0x2a, 0x7f, 0x08, 0x24, 0x00, 0x23, 0x2a, 
  0x00, 0x22, 0x2c, 0x75, 0x1f, 0x2c, 0x00, 0x1b, 0x2c, 0x68, 0x2b, 0x2c, 0x00, 0x11, 0x2c, 0x6c, 
  0x0a, 0x24, 0x7f, 0x1e, 0x2c, 0x00, 0x26, 0x2a, 0x7e, 0x13, 0x24, 0x00, 0x0c, 0x2a, 0x00, 0x4c, 
  0x2c, 0x75, 0x0c, 0x25, 0x7f, 0x14, 0x2c, 0x00, 0x36, 0x2a, 0x7f, 0x0e, 0x25, 0x31, 0x04, 0x25, 
  0x00, 0x13, 0x2a, 0x00, 0x3e, 0x25, 0x00, 0x04, 0x2c, 0x7d, 0x23, 0x2c, 0x00, 0x3a, 0x2e, 0x7f, 
  0x0b, 0x24, 0x7f, 0x29, 0x2e, 0x00, 0x2f, 0x2a, 0x7e, 0x0c, 0x24, 0x00, 0x18, 0x2a, 0x00, 0x2e, 
  0x2c, 0x7b, 0x13, 0x24, 0x69, 0x16, 0x2c, 0x00, 0x26, 0x24, 0x00, 0x1e, 0x2e, 0x7e, 0x37, 0x2e, 
  0x00, 0x2e, 0x2a, 0x7d, 0x03, 0x25, 0x7f, 0x1a, 0x2a, 0x00, 0x46, 0x2c, 0x7f, 0x00, 0x25, 0x31, 
  0x04, 0x25, 0x00, 0x26, 0x2c, 0x00, 0x2b, 0x25, 0x00, 0x0b, 0x2c, 0x6e, 0x05, 0x24, 0x7f, 0x2b, 
  0x2c, 0x00, 0x30, 0x2a, 0x7f, 0x00, 0x2c, 0x7b, 0x00, 0x29, 0x59, 0x00, 0x24, 0x7f, 0x08, 0x24, 
  0x00, 0x23, 0x2a, 0x00, 0x18, 0x29, 0x00, 0x0a, 0x2c, 0x75, 0x08, 0x2c, 0x00, 0x07, 0x24, 0x00, 
  0x10, 0x2c, 0x00, 0x1b, 0x2c, 0x68, 0x2b, 0x2c, 0x00, 0x0e, 0x2b, 0x59, 0x03, 0x2c, 0x6c, 0x28, 
  0x2c, 0x00, 0x18, 0x2b, 0x00, 0x1d, 0x2c, 0x40, 0x55, 0x2c, 0x00, 0x0b, 0x2c, 0x7b, 0x00, 0x25, 
  0x7b, 0x55, 0x2c, 0x00, 0x00, 0x25, 0x00, 0x0b, 0x24, 0x7d, 0x60, 0x28, 0x33, 0x13, 0x24, 0x00, 
  0x1d, 0x28, 0x00, 0x00, 0x28, 0x4d, 0x30, 0x28, 0x00, 0x00, 0x28, 0x7f, 0x61, 0x28, 0x00, 0x5f, 
  0x30, 0x34, 0x30, 0x30, 0x00, 0x00, 0x30, 0x4e, 0x30, 0x30, 0x00, 0x00, 0x30, 0x6f, 0x47, 0x30, 
  0x00, 0x19, 0x30, 0x67, 0x4a, 0x30, 0x00, 0x16, 0x2d, 0x5d, 0x40, 0x2d, 0x00, 0x20, 0x2d, 0x5d, 
  0x60, 0x2d, 0x00, 0x00, 0x24, 0x7f, 0x00, 0x2d, 0x7f, 0x4b, 0x24, 0x00, 0x09, 0x2d, 0x00, 0x81, 
  0x4c, 0x24, 0x7f, 0x00, 0x2b, 0x7f, 0x3f, 0x24, 0x00, 0x15, 0x2b, 0x00, 0x81, 0x4c, 0x24, 0x7f, 
  0x00, 0x31, 0x7f, 0x32, 0x24, 0x00, 0x00, 0x31, 0x00, 0x84, 0x0e, 0x2e, 0x54, 0x37, 0x2e, 0x00, 
  0x81, 0x09, 0x54, 0x36, 0x00, 0x33, 0x60, 0x42, 0x54, 0x00, 0x00, 0x33, 0x00, 0x7e, 0x35, 0x64, 
  0x26, 0x35, 0x00, 0x85, 0x5a, 0x26, 0x7f, 0x03, 0x2b, 0x7f, 0x15, 0x28, 0x7f, 0x82, 0x68, 0x26, 
  0x00, 0x00, 0x2b, 0x00, 0x00, 0x28, 0x00, 0x00, 0x24, 0x7f, 0x00, 0x2d, 0x7f, 0x4b, 0x24, 0x00, 
  0x09, 0x2d, 0x00, 0x81, 0x4c, 0x24, 0x7f, 0x00, 0x2b, 0x7f, 0x3f, 0x24, 0x00, 0x15, 0x2b, 0x00, 
  0x81, 0x4c, 0x24, 0x7f, 0x00, 0x31, 0x7f, 0x32, 0x24, 0x00, 0x00, 0x31, 0x00, 0x84, 0x0e, 0x2c, 
  0x54, 0x37, 0x2c, 0x00, 0x81, 0x09, 0x2d, 0x7c, 0x60, 0x2d, 0x00, 0x00, 0x2d, 0x7f, 0x60, 0x2d, 
  0x00, 0x00, 0x2b, 0x7f, 0x00, 0x2e, 0x7f, 0x60, 0x2b, 0x00, 0x92, 0x60, 0x2e, 0x00, 0x00, 0xff, 
  0x2f, 0x00, 0x4d, 0x54, 0x72, 0x6b, 0x00, 0x00, 0x02, 0xdd, 0x00, 0xff, 0x03, 0x09, 0x52, 0x6f, 
  0x63, 0x6b, 0x20, 0x4f, 0x72, 0x67, 0x61, 0x00, 0xca, 0x12, 0x00, 0xba, 0x07, 0x5a, 0x00, 0x0a, 
  0x20, 0x00, 0x79, 0x00, 0x00, 0x5b, 0x20, 0x00, 0x5d, 0x10, 0x00, 0x01, 0x00, 0x00, 0xea, 0x00, 
  0x40, 0xd5, 0x40, 0x9a, 0x46, 0x7e, 0x00, 0x4d, 0x7e, 0x60, 0x46, 0x00, 0x00, 0x4d, 0x00, 0x00, 
  0x46, 0x31, 0x00, 0x4d, 0x31, 0x60, 0x46, 0x00, 0x00, 0x4d, 0x00, 0x00, 0x48, 0x7e, 0x00, 0x4f, 
  0x7e, 0x82, 0x20, 0x48, 0x00, 0x00, 0x4f, 0x00, 0x00, 0x46, 0x7e, 0x00, 0x4d, 0x7e, 0x60, 0x46, 
  0x00, 0x00, 0x4d, 0x00, 0x00, 0x4d, 0x3c, 0x00, 0x46, 0x3c, 0x60, 0x4d, 0x00, 0x00, 0x46, 0x00, 
  0x00, 0x46, 0x2f, 0x00, 0x4d, 0x2f, 0x60, 0x46, 0x00, 0x00, 0x4d, 0x00, 0x98, 0x00, 0x4a, 0x79, 
  0x00, 0x46, 0x7d, 0x24, 0x4a, 0x00, 0x09, 0x46, 0x00, 0x33, 0x46, 0x6e, 0x00, 0x4a, 0x76, 0x31, 
  0x46, 0x00, 0x09, 0x4a, 0x00, 0x26, 0x4a, 0x31, 0x00, 0x46, 0x31, 0x31, 0x46, 0x00, 0x09, 0x4a, 
  0x00, 0x26, 0x4a, 0x7b, 0x00, 0x46, 0x7f, 0x2c, 0x4a, 0x00, 0x03, 0x46, 0x00, 0x31, 0x46, 0x31, 
  0x00, 0x4a, 0x31, 0x31, 0x46, 0x00, 0x09, 0x4a, 0x00, 0x26, 0x46, 0x7f, 0x00, 0x4a, 0x7b, 0x35, 
  0x4a, 0x00, 0x11, 0x46, 0x00, 0x1a, 0x4c, 0x7b, 0x00, 0x48, 0x79, 0x81, 0x40, 0x4c, 0x00, 0x00, 
  0x48, 0x00, 0x00, 0x46, 0x7b, 0x00, 0x4a, 0x7f, 0x81, 0x40, 0x46, 0x00, 0x00, 0x4a, 0x00, 0x00, 
  0x4c, 0x7e, 0x00, 0x48, 0x7e, 0x30, 0x4c, 0x00, 0x00, 0x48, 0x00, 0x30, 0x4c, 0x7e, 0x00, 0x48, 
  0x7e, 0x26, 0x48, 0x00, 0x0f, 0x4c, 0x00, 0x2b, 0x4c, 0x31, 0x00, 0x48, 0x31, 0x31, 0x48, 0x00, 
  0x09, 0x4c, 0x00, 0x81, 0x06, 0x46, 0x7d, 0x00, 0x4a, 0x79, 0x24, 0x4a, 0x00, 0x09, 0x46, 0x00, 
  0x33, 0x4a, 0x76, 0x00, 0x46, 0x6e, 0x31, 0x46, 0x00, 0x09, 0x4a, 0x00, 0x26, 0x4a, 0x31, 0x00, 
  0x46, 0x31, 0x31, 0x46, 0x00, 0x09, 0x4a, 0x00, 0x26, 0x46, 0x7f, 0x00, 0x4a, 0x7b, 0x2c, 0x4a, 
  0x00, 0x03, 0x46, 0x00, 0x31, 0x4a, 0x31, 0x00, 0x46, 0x31, 0x31, 0x46, 0x00, 0x09, 0x4a, 0x00, 
  0x26, 0x46, 0x7f, 0x00, 0x4a, 0x7b, 0x35, 0x4a, 0x00, 0x11, 0x46, 0x00, 0x1a, 0x48, 0x79, 0x00, 
  0x4c, 0x7b, 0x81, 0x40, 0x48, 0x00, 0x00, 0x4c, 0x00, 0x00, 0x4a, 0x7f, 0x00, 0x46, 0x7b, 0x81, 
  0x40, 0x4a, 0x00, 0x00, 0x46, 0x00, 0x00, 0x48, 0x7e, 0x00, 0x4c, 0x7e, 0x30, 0x48, 0x00, 0x00, 
  0x4c, 0x00, 0x30, 0x48, 0x7e, 0x00, 0x4c, 0x7e, 0x26, 0x48, 0x00, 0x0f, 0x4c, 0x00, 0x2b, 0x48, 
  0x2f, 0x00, 0x4c, 0x2f, 0x26, 0x48, 0x00, 0x0f, 0x4c, 0x00, 0x81, 0x0b, 0x4a, 0x79, 0x00, 0x46, 
  0x7d, 0x24, 0x4a, 0x00, 0x09, 0x46, 0x00, 0x33, 0x4a, 0x76, 0x00, 0x46, 0x6e, 0x31, 0x46, 0x00, 
  0x09, 0x4a, 0x00, 0x26, 0x46, 0x31, 0x00, 0x4a, 0x31, 0x31, 0x46, 0x00, 0x09, 0x4a, 0x00, 0x26, 
  0x4a, 0x7b, 0x00, 0x46, 0x7f, 0x2c, 0x4a, 0x00, 0x03, 0x46, 0x00, 0x31, 0x4a, 0x31, 0x00, 0x46, 
  0x31, 0x31, 0x46, 0x00, 0x09, 0x4a, 0x00, 0x26, 0x4a, 0x7b, 0x00, 0x46, 0x7f, 0x35, 0x4a, 0x00, 
  0x11, 0x46, 0x00, 0x1a, 0x4c, 0x7b, 0x00, 0x48, 0x79, 0x81, 0x40, 0x4c, 0x00, 0x00, 0x48, 0x00, 
  0x00, 0x4a, 0x7f, 0x00, 0x46, 0x7b, 0x81, 0x40, 0x4a, 0x00, 0x00, 0x46, 0x00, 0x00, 0x48, 0x7e, 
  0x00, 0x4c, 0x7e, 0x30, 0x48, 0x00, 0x00, 0x4c, 0x00, 0x30, 0x48, 0x7e, 0x00, 0x4c, 0x7e, 0x26, 
  0x48, 0x00, 0x0f, 0x4c, 0x00, 0x2b, 0x4c, 0x31, 0x00, 0x48, 0x31, 0x31, 0x48, 0x00, 0x09, 0x4c, 
  0x00, 0x81, 0x06, 0x4a, 0x79, 0x00, 0x46, 0x7d, 0x24, 0x4a, 0x00, 0x09, 0x46, 0x00, 0x33, 0x4a, 
  0x76, 0x00, 0x46, 0x6e, 0x31, 0x46, 0x00, 0x09, 0x4a, 0x00, 0x26, 0x46, 0x31, 0x00, 0x4a, 0x31, 
  0x31, 0x46, 0x00, 0x09, 0x4a, 0x00, 0x26, 0x4a, 0x7b, 0x00, 0x46, 0x7f, 0x2c, 0x4a, 0x00, 0x03, 
  0x46, 0x00, 0x31, 0x4a, 0x31, 0x00, 0x46, 0x31, 0x31, 0x46, 0x00, 0x09, 0x4a, 0x00, 0x26, 0x4a, 
  0x7b, 0x00, 0x46, 0x7f, 0x35, 0x4a, 0x00, 0x11, 0x46, 0x00, 0x1a, 0x4c, 0x7b, 0x00, 0x48, 0x79, 
  0x81, 0x40, 0x4c, 0x00, 0x00, 0x48, 0x00, 0x00, 0x4a, 0x7f, 0x00, 0x46, 0x7b, 0x81, 0x40, 0x4a, 
  0x00, 0x00, 0x46, 0x00, 0x00, 0x48, 0x7e, 0x00, 0x4c, 0x7e, 0x30, 0x48, 0x00, 0x00, 0x4c, 0x00, 
  0x30, 0x48, 0x7e, 0x00, 0x4c, 0x7e, 0x26, 0x48, 0x00, 0x0f, 0x4c, 0x00, 0x2b, 0x4c, 0x2f, 0x00, 
  0x48, 0x2f, 0x26, 0x48, 0x00, 0x0f, 0x4c, 0x00, 0x82, 0xb3, 0x0b, 0x46, 0x7e, 0x00, 0x4d, 0x7e, 
  0x60, 0x46, 0x00, 0x00, 0x4d, 0x00, 0x00, 0x46, 0x31, 0x00, 0x4d, 0x31, 0x60, 0x46, 0x00, 0x00, 
  0x4d, 0x00, 0x00, 0x48, 0x7e, 0x00, 0x4f, 0x7e, 0x82, 0x20, 0x48, 0x00, 0x00, 0x4f, 0x00, 0x00, 
  0x46, 0x7e, 0x00, 0x4d, 0x7e, 0x60, 0x46, 0x00, 0x00, 0x4d, 0x00, 0x00, 0x4d, 0x3c, 0x00, 0x46, 
  0x3c, 0x60, 0x4d, 0x00, 0x00, 0x46, 0x00, 0x00, 0x46, 0x2f, 0x00, 0x4d, 0x2f, 0x60, 0x46, 0x00, 
  0x00, 0x4d, 0x00, 0x00, 0xff, 0x2f, 0x00, 0x4d, 0x54, 0x72, 0x6b, 0x00, 0x00, 0x04, 0x6b, 0x00, 
  0xff, 0x03, 0x07, 0x53, 0x6f, 0x70, 0x20, 0x53, 0x61, 0x78, 0x00, 0xcb, 0x40, 0x00, 0xbb, 0x07, 
  0x7f, 0x00, 0x0a, 0x40, 0x00, 0x79, 0x00, 0x00, 0x5b, 0x28, 0x00, 0x5d, 0x00, 0xd1, 0x38, 0x01, 
  0x00, 0x8c, 0x34, 0xeb, 0x1f, 0x3f, 0x0a, 0x1e, 0x3d, 0x0a, 0x1d, 0x3b, 0x06, 0x5c, 0x38, 0x04, 
  0x5a, 0x35, 0x0a, 0x59, 0x33, 0x0a, 0x19, 0x32, 0x10, 0x38, 0x31, 0x12, 0x9b, 0x4d, 0x77, 0x01, 
  0xeb, 0x3a, 0x34, 0x00, 0x19, 0x33, 0x00, 0x78, 0x31, 0x0e, 0x5a, 0x34, 0x0a, 0x09, 0x3b, 0x10, 
  0x00, 0x40, 0x17, 0x9b, 0x4d, 0x00, 0x08, 0xeb, 0x5d, 0x40, 0x38, 0x9b, 0x4d, 0x39, 0x40, 0x4d, 
  0x00, 0x60, 0x4b, 0x7a, 0x40, 0x4b, 0x00, 0x40, 0x4b, 0x39, 0x40, 0x4b, 0x00, 0x60, 0xeb, 0x6c, 
  0x3a, 0x00, 0x9b, 0x50, 0x69, 0x30, 0xeb, 0x00, 0x40, 0x00, 0x9b, 0x52, 0x6a, 0x08, 0x50, 0x00, 
  0x00, 0xbb, 0x01, 0x00, 0x20, 0x01, 0x01, 0x20, 0x01, 0x02, 0x20, 0x01, 0x03, 0x10, 0x01, 0x04, 
  0x20, 0x01, 0x05, 0x20, 0x01, 0x06, 0x20, 0x01, 0x07, 0x20, 0x01, 0x08, 0x20, 0x01, 0x09, 0x20, 
  0x01, 0x0a, 0x20, 0x01, 0x0b, 0x10, 0x01, 0x0c, 0x20, 0x01, 0x0d, 0x20, 0x01, 0x0e, 0x20, 0x01, 
  0x0f, 0x20, 0x01, 0x10, 0x20, 0x01, 0x11, 0x20, 0x01, 0x12, 0x20, 0x01, 0x13, 0x10, 0x01, 0x14, 
  0x20, 0x01, 0x15, 0x20, 0x01, 0x16, 0x20, 0x01, 0x17, 0x20, 0x01, 0x18, 0x18, 0x9b, 0x52, 0x00, 
  0x08, 0xbb, 0x01, 0x19, 0x08, 0xeb, 0x56, 0x43, 0x00, 0x9b, 0x4c, 0x6c, 0x18, 0xbb, 0x01, 0x1a, 
  0x10, 0x01, 0x1b, 0x08, 0xeb, 0x12, 0x45, 0x00, 0x9b, 0x4b, 0x42, 0x02, 0x4c, 0x00, 0x16, 0xbb, 
  0x01, 0x1c, 0x11, 0x9b, 0x4b, 0x00, 0x07, 0xeb, 0x4f, 0x46, 0x00, 0x9b, 0x49, 0x5a, 0x08, 0xbb, 
  0x01, 0x1d, 0x20, 0x01, 0x1e, 0x08, 0x9b, 0x46, 0x5b, 0x02, 0x49, 0x00, 0x02, 0xeb, 0x00, 0x40, 
  0x14, 0xbb, 0x01, 0x1f, 0x20, 0x01, 0x20, 0x20, 0x01, 0x21, 0x20, 0x01, 0x22, 0x10, 0x01, 0x23, 
  0x20, 0x01, 0x24, 0x10, 0x01, 0x23, 0x10, 0x01, 0x22, 0x30, 0x01, 0x21, 0x20, 0x01, 0x20, 0x30, 
  0x01, 0x1f, 0x30, 0x01, 0x1e, 0x30, 0x01, 0x1d, 0x30, 0x01, 0x1c, 0x20, 0x01, 0x1b, 0x30, 0x01, 
  0x1a, 0x30, 0x01, 0x19, 0x30, 0x01, 0x18, 0x18, 0x9b, 0x46, 0x00, 0x18, 0xbb, 0x01, 0x17, 0x20, 
  0x01, 0x16, 0x30, 0x01, 0x00, 0xa2, 0x38, 0x9b, 0x41, 0x7b, 0x5c, 0x41, 0x00, 0x04, 0x43, 0x64, 
  0x43, 0x43, 0x00, 0x1d, 0x46, 0x71, 0x55, 0x46, 0x00, 0x0b, 0x43, 0x6e, 0x44, 0x43, 0x00, 0x1c, 
  0x48, 0x7d, 0x60, 0x4a, 0x70, 0x13, 0x48, 0x00, 0x4c, 0x4a, 0x00, 0x01, 0x4d, 0x6f, 0x5d, 0x4d, 
  0x00, 0x03, 0x48, 0x61, 0x13, 0x49, 0x4f, 0x1c, 0x4a, 0x73, 0x0e, 0x48, 0x00, 0x1d, 0x49, 0x00, 
  0x26, 0x48, 0x2a, 0x10, 0x4a, 0x00, 0x03, 0x49, 0x23, 0x0d, 0x48, 0x00, 0x0f, 0x4a, 0x35, 0x04, 
  0x49, 0x00, 0x10, 0x48, 0x67, 0x0c, 0x4a, 0x00, 0x51, 0x46, 0x6f, 0x03, 0x48, 0x00, 0x3d, 0x43, 
  0x67, 0x1f, 0x46, 0x00, 0x21, 0x42, 0x7f, 0x1f, 0x43, 0x00, 0x21, 0x41, 0x69, 0x1f, 0x42, 0x00, 
  0x21, 0x3f, 0x65, 0x1f, 0x41, 0x00, 0x21, 0x3c, 0x68, 0x20, 0x3f, 0x00, 0x20, 0x3a, 0x6d, 0x20, 
  0x3c, 0x00, 0x82, 0x40, 0x3a, 0x00, 0x20, 0x3d, 0x74, 0x82, 0x20, 0x3d, 0x00, 0x20, 0x40, 0x78, 
  0x20, 0x40, 0x00, 0x00, 0x42, 0x78, 0x81, 0x20, 0x42, 0x00, 0x00, 0x44, 0x6d, 0x40, 0x44, 0x00, 
  0x00, 0x47, 0x69, 0x40, 0x47, 0x00, 0x00, 0x49, 0x6f, 0x20, 0x49, 0x00, 0x00, 0x4c, 0x78, 0x81, 
  0x20, 0x4d, 0x5e, 0x20, 0x4c, 0x00, 0x20, 0x4d, 0x00, 0x00, 0x4e, 0x64, 0x40, 0x4f, 0x70, 0x01, 
  0xeb, 0x3a, 0x34, 0x00, 0x19, 0x33, 0x00, 0x78, 0x31, 0x0e, 0x5a, 0x34, 0x0a, 0x1b, 0x36, 0x07, 
  0x9b, 0x4e, 0x00, 0x03, 0xeb, 0x5c, 0x38, 0x06, 0x7d, 0x3a, 0x0b, 0x65, 0x3d, 0x14, 0x5d, 0x40, 
  0x17, 0x9b, 0x4f, 0x00, 0x21, 0x4f, 0x31, 0x5f, 0x4f, 0x00, 0x41, 0x4d, 0x6a, 0x5f, 0x4d, 0x00, 
  0x21, 0x4d, 0x31, 0x5f, 0x4d, 0x00, 0x41, 0x54, 0x65, 0x00, 0xeb, 0x6c, 0x3a, 0x30, 0x00, 0x40, 
  0x08, 0xbb, 0x01, 0x00, 0x20, 0x01, 0x01, 0x20, 0x01, 0x02, 0x20, 0x01, 0x03, 0x10, 0x01, 0x04, 
  0x20, 0x01, 0x05, 0x20, 0x01, 0x06, 0x20, 0x01, 0x07, 0x20, 0x01, 0x08, 0x20, 0x01, 0x09, 0x20, 
  0x01, 0x0a, 0x20, 0x01, 0x0b, 0x10, 0x01, 0x0c, 0x20, 0x01, 0x0d, 0x20, 0x01, 0x0e, 0x20, 0x01, 
  0x0f, 0x20, 0x01, 0x10, 0x20, 0x01, 0x11, 0x20, 0x01, 0x12, 0x20, 0x01, 0x13, 0x10, 0x01, 0x14, 
  0x20, 0x01, 0x15, 0x20, 0x01, 0x16, 0x20, 0x01, 0x17, 0x08, 0x9b, 0x54, 0x00, 0x82, 0x99, 0x08, 
  0xbb, 0x01, 0x00, 0x8c, 0x34, 0xeb, 0x1f, 0x3f, 0x0a, 0x1e, 0x3d, 0x0a, 0x1d, 0x3b, 0x06, 0x5c, 
  0x38, 0x04, 0x5a, 0x35, 0x0a, 0x59, 0x33, 0x0a, 0x19, 0x32, 0x10, 0x38, 0x31, 0x12, 0x9b, 0x4d, 
  0x77, 0x01, 0xeb, 0x3a, 0x34, 0x00, 0x19, 0x33, 0x00, 0x78, 0x31, 0x0e, 0x5a, 0x34, 0x0a, 0x09, 
  0x3b, 0x10, 0x00, 0x40, 0x17, 0x9b, 0x4d, 0x00, 0x08, 0xeb, 0x5d, 0x40, 0x38, 0x9b, 0x4d, 0x39, 
  0x40, 0x4d, 0x00, 0x60, 0x4b, 0x7a, 0x40, 0x4b, 0x00, 0x40, 0x4b, 0x39, 0x40, 0x4b, 0x00, 0x60, 
  0xeb, 0x6c, 0x3a, 0x00, 0x9b, 0x50, 0x69, 0x30, 0xeb, 0x00, 0x40, 0x00, 0x9b, 0x52, 0x6a, 0x08, 
  0x50, 0x00, 0x00, 0xbb, 0x01, 0x00, 0x20, 0x01, 0x01, 0x20, 0x01, 0x02, 0x20, 0x01, 0x03, 0x10, 
  0x01, 0x04, 0x20, 0x01, 0x05, 0x20, 0x01, 0x06, 0x20, 0x01, 0x07, 0x20, 0x01, 0x08, 0x20, 0x01, 
  0x09, 0x20, 0x01, 0x0a, 0x20, 0x01, 0x0b, 0x10, 0x01, 0x0c, 0x20, 0x01, 0x0d, 0x20, 0x01, 0x0e, 
  0x20, 0x01, 0x0f, 0x20, 0x01, 0x10, 0x20, 0x01, 0x11, 0x20, 0x01, 0x12, 0x20, 0x01, 0x13, 0x10, 
  0x01, 0x14, 0x20, 0x01, 0x15, 0x20, 0x01, 0x16, 0x20, 0x01, 0x17, 0x20, 0x01, 0x18, 0x18, 0x9b, 
  0x52, 0x00, 0x08, 0xbb, 0x01, 0x19, 0x08, 0xeb, 0x56, 0x43, 0x00, 0x9b, 0x4c, 0x6c, 0x18, 0xbb, 
  0x01, 0x1a, 0x10, 0x01, 0x1b, 0x08, 0xeb, 0x12, 0x45, 0x00, 0x9b, 0x4b, 0x42, 0x02, 0x4c, 0x00, 
  0x16, 0xbb, 0x01, 0x1c, 0x11, 0x9b, 0x4b, 0x00, 0x07, 0xeb, 0x4f, 0x46, 0x00, 0x9b, 0x49, 0x5a, 
  0x08, 0xbb, 0x01, 0x1d, 0x20, 0x01, 0x1e, 0x08, 0x9b, 0x46, 0x5b, 0x02, 0x49, 0x00, 0x02, 0xeb, 
  0x00, 0x40, 0x14, 0xbb, 0x01, 0x1f, 0x20, 0x01, 0x20, 0x20, 0x01, 0x21, 0x20, 0x01, 0x22, 0x10, 
  0x01, 0x23, 0x20, 0x01, 0x24, 0x10, 0x01, 0x23, 0x10, 0x01, 0x22, 0x30, 0x01, 0x21, 0x20, 0x01, 
  0x20, 0x30, 0x01, 0x1f, 0x30, 0x01, 0x1e, 0x30, 0x01, 0x1d, 0x30, 0x01, 0x1c, 0x20, 0x01, 0x1b, 
  0x30, 0x01, 0x1a, 0x30, 0x01, 0x19, 0x30, 0x01, 0x18, 0x18, 0x9b, 0x46, 0x00, 0x18, 0xbb, 0x01, 
  0x17, 0x20, 0x01, 0x16, 0x30, 0x01, 0x00, 0x82, 0x78, 0x9b, 0x4f, 0x70, 0x01, 0xeb, 0x3a, 0x34, 
  0x00, 0x19, 0x33, 0x00, 0x78, 0x31, 0x0e, 0x5a, 0x34, 0x0a, 0x1b, 0x36, 0x0a, 0x5c, 0x38, 0x06, 
  0x7d, 0x3a, 0x0b, 0x65, 0x3d, 0x14, 0x5d, 0x40, 0x17, 0x9b, 0x4f, 0x00, 0x21, 0x4f, 0x31, 0x5f, 
  0x4f, 0x00, 0x41, 0x4d, 0x6a, 0x5f, 0x4d, 0x00, 0x21, 0x4d, 0x31, 0x5f, 0x4d, 0x00, 0x41, 0x54, 
  0x65, 0x00, 0xeb, 0x6c, 0x3a, 0x30, 0x00, 0x40, 0x28, 0xbb, 0x01, 0x01, 0x20, 0x01, 0x02, 0x20, 
  0x01, 0x03, 0x10, 0x01, 0x04, 0x20, 0x01, 0x05, 0x20, 0x01, 0x06, 0x20, 0x01, 0x07, 0x20, 0x01, 
  0x08, 0x20, 0x01, 0x09, 0x20, 0x01, 0x0a, 0x20, 0x01, 0x0b, 0x10, 0x01, 0x0c, 0x20, 0x01, 0x0d, 
  0x20, 0x01, 0x0e, 0x20, 0x01, 0x0f, 0x20, 0x01, 0x10, 0x20, 0x01, 0x11, 0x20, 0x01, 0x12, 0x20, 
  0x01, 0x13, 0x10, 0x01, 0x14, 0x20, 0x01, 0x15, 0x20, 0x01, 0x16, 0x20, 0x01, 0x17, 0x08, 0x9b, 
  0x54, 0x00, 0x10, 0xbb, 0x01, 0x01, 0x00, 0xff, 0x2f, 0x00, 0x4d, 0x54, 0x72, 0x6b, 0x00, 0x00, 
  0x02, 0x06, 0x00, 0xff, 0x03, 0x09, 0x4d, 0x75, 0x74, 0x65, 0x64, 0x20, 0x47, 0x74, 0x72, 0x00, 
  0xcc, 0x1c, 0x00, 0xbc, 0x07, 0x6b, 0x00, 0x0a, 0x60, 0x00, 0x5b, 0x20, 0x00, 0x5d, 0x0c, 0x00, 
  0x79, 0x00, 0xf3, 0x40, 0x01, 0x00, 0x00, 0xec, 0x00, 0x40, 0x00, 0x9c, 0x35, 0x7e, 0x5c, 0x35, 
  0x00, 0x04, 0x35, 0x7d, 0x5e, 0x35, 0x00, 0x02, 0x35, 0x31, 0x5e, 0x35, 0x00, 0x02, 0x35, 0x7f, 
  0x56, 0x35, 0x00, 0x0a, 0x35, 0x31, 0x5e, 0x35, 0x00, 0x02, 0x35, 0x7f, 0x53, 0x35, 0x00, 0x0d, 
  0x35, 0x6d, 0x47, 0x35, 0x00, 0x19, 0x35, 0x7f, 0x50, 0x35, 0x00, 0x10, 0x35, 0x31, 0x5e, 0x35, 
  0x00, 0x02, 0x35, 0x7f, 0x50, 0x35, 0x00, 0x10, 0x35, 0x7f, 0x60, 0x36, 0x7d, 0x0b, 0x35, 0x00, 
  0x55, 0x36, 0x00, 0x00, 0x37, 0x7d, 0x40, 0x37, 0x00, 0x20, 0x35, 0x7e, 0x00, 0x3a, 0x78, 0x5f, 
  0xec, 0x40, 0x40, 0x07, 0x41, 0x42, 0x06, 0x42, 0x44, 0x06, 0x22, 0x45, 0x09, 0x43, 0x46, 0x0a, 
  0x44, 0x48, 0x0a, 0x45, 0x4b, 0x06, 0x67, 0x4f, 0x09, 0x49, 0x53, 0x07, 0x4b, 0x56, 0x05, 0x9c, 
  0x35, 0x00, 0x05, 0xec, 0x0c, 0x59, 0x0a, 0x4c, 0x59, 0x07, 0x9c, 0x35, 0x79, 0x01, 0xec, 0x0b, 
  0x57, 0x0b, 0x9c, 0x3a, 0x00, 0x01, 0xec, 0x47, 0x4e, 0x06, 0x61, 0x43, 0x06, 0x00, 0x40, 0x29, 
  0x9c, 0x35, 0x00, 0x1e, 0x35, 0x7f, 0x60, 0x35, 0x00, 0x00, 0x35, 0x7f, 0x4d, 0x35, 0x00, 0x13, 
  0x35, 0x31, 0x5e, 0x35, 0x00, 0x02, 0x35, 0x7f, 0x58, 0x35, 0x00, 0x08, 0x35, 0x31, 0x5e, 0x35, 
  0x00, 0x02, 0x35, 0x5b, 0x60, 0x35, 0x00, 0x00, 0x35, 0x7b, 0x60, 0x35, 0x00, 0x00, 0x35, 0x7f, 
  0x5c, 0x35, 0x00, 0x04, 0x35, 0x31, 0x5e, 0x35, 0x00, 0x02, 0x35, 0x7b, 0x60, 0x35, 0x00, 0x00, 
  0x35, 0x7f, 0x60, 0x35, 0x00, 0x00, 0x36, 0x77, 0x58, 0x36, 0x00, 0x08, 0x35, 0x7e, 0x5c, 0x35, 
  0x00, 0x04, 0x35, 0x7d, 0x5e, 0x35, 0x00, 0x02, 0x35, 0x31, 0x5e, 0x35, 0x00, 0x02, 0x35, 0x7f, 
  0x56, 0x35, 0x00, 0x0a, 0x35, 0x31, 0x5e, 0x35, 0x00, 0x02, 0x35, 0x7f, 0x53, 0x35, 0x00, 0x0d, 
  0x35, 0x6d, 0x47, 0x35, 0x00, 0x19, 0x35, 0x7f, 0x50, 0x35, 0x00, 0x10, 0x35, 0x31, 0x5e, 0x35, 
  0x00, 0x02, 0x35, 0x7f, 0x50, 0x35, 0x00, 0x10, 0x35, 0x7f, 0x60, 0x36, 0x7d, 0x0b, 0x35, 0x00, 
  0x55, 0x36, 0x00, 0x00, 0x37, 0x7d, 0x40, 0x37, 0x00, 0x20, 0x35, 0x7e, 0x00, 0x3a, 0x78, 0x5f, 
  0xec, 0x40, 0x40, 0x07, 0x41, 0x42, 0x06, 0x42, 0x44, 0x06, 0x22, 0x45, 0x09, 0x43, 0x46, 0x0a, 
  0x44, 0x48, 0x0a, 0x45, 0x4b, 0x06, 0x67, 0x4f, 0x09, 0x49, 0x53, 0x07, 0x4b, 0x56, 0x05, 0x9c, 
  0x35, 0x00, 0x05, 0xec, 0x0c, 0x59, 0x0a, 0x4c, 0x59, 0x07, 0x9c, 0x37, 0x7f, 0x01, 0xec, 0x0b, 
  0x57, 0x0b, 0x9c, 0x3a, 0x00, 0x01, 0xec, 0x47, 0x4e, 0x06, 0x61, 0x43, 0x06, 0x00, 0x40, 0x47, 
  0x9c, 0x37, 0x00, 0x00, 0x35, 0x7f, 0x60, 0x35, 0x00, 0x00, 0x37, 0x55, 0x5b, 0x37, 0x00, 0x05, 
  0x3c, 0x74, 0x60, 0x3a, 0x55, 0x02, 0x3c, 0x00, 0x59, 0x3a, 0x00, 0x05, 0x37, 0x54, 0x52, 0x37, 
  0x00, 0x0e, 0x3c, 0x7f, 0x2a, 0xec, 0x05, 0x4b, 0x08, 0x6e, 0x5c, 0x05, 0x78, 0x71, 0x04, 0x7f, 
  0x7f, 0x45, 0x9c, 0x3c, 0x00, 0x18, 0xec, 0x7d, 0x7b, 0x04, 0x56, 0x6d, 0x05, 0x0c, 0x58, 0x07, 
  0x23, 0x46, 0x08, 0x00, 0x40, 0x10, 0x9c, 0x3c, 0x7e, 0x60, 0x3c, 0x00, 0x00, 0x3a, 0x6e, 0x60, 
  0x3a, 0x00, 0x00, 0x37, 0x52, 0x53, 0x37, 0x00, 0x0d, 0x35, 0x62, 0x51, 0x35, 0x00, 0x0f, 0x30, 
  0x6d, 0x58, 0x30, 0x00, 0x00, 0xff, 0x2f, 0x00, 0x4d, 0x54, 0x72, 0x6b, 0x00, 0x00, 0x04, 0x37, 
  0x00, 0xff, 0x03, 0x09, 0x46, 0x72, 0x74, 0x6c, 0x73, 0x20, 0x45, 0x63, 0x68, 0x00, 0xcd, 0x23, 
  0x00, 0xbd, 0x07, 0x40, 0x00, 0x0a, 0x40, 0x00, 0x79, 0x00, 0x00, 0x5b, 0x20, 0x00, 0x5d, 0x10, 
  0x00, 0x01, 0x00, 0x00, 0x40, 0x00, 0x92, 0x5d, 0x9d, 0x39, 0x6b, 0x66, 0xed, 0x20, 0x40, 0x07, 
  0x00, 0x41, 0x09, 0x60, 0x41, 0x07, 0x01, 0x43, 0x06, 0x02, 0x45, 0x06, 0x23, 0x47, 0x08, 0x44, 
  0x49, 0x0f, 0x27, 0x4f, 0x0b, 0x0b, 0x57, 0x06, 0x4e, 0x5c, 0x0b, 0x30, 0x60, 0x06, 0x70, 0x61, 
  0x0a, 0x31, 0x62, 0x0a, 0x10, 0x61, 0x06, 0x6e, 0x5c, 0x0b, 0x4b, 0x57, 0x06, 0x47, 0x4f, 0x07, 
  0x23, 0x47, 0x0b, 0x41, 0x42, 0x0b, 0x00, 0x40, 0x83, 0x12, 0x20, 0x40, 0x11, 0x00, 0x40, 0x4f, 
  0x9d, 0x39, 0x00, 0x17, 0x30, 0x5a, 0x38, 0xed, 0x29, 0x52, 0x05, 0x35, 0x6b, 0x06, 0x7c, 0x78, 
  0x09, 0x7f, 0x7f, 0x4c, 0x5f, 0x7e, 0x06, 0x57, 0x6f, 0x08, 0x0d, 0x5a, 0x03, 0x9d, 0x30, 0x00, 
  0x06, 0xed, 0x45, 0x4a, 0x07, 0x40, 0x41, 0x0a, 0x9d, 0x30, 0x67, 0x01, 0xed, 0x00, 0x40, 0x81, 
  0x56, 0x40, 0x40, 0x07, 0x02, 0x45, 0x0b, 0x64, 0x48, 0x06, 0x22, 0x44, 0x05, 0x5f, 0x3f, 0x06, 
  0x00, 0x40, 0x4e, 0x22, 0x44, 0x0a, 0x23, 0x47, 0x09, 0x01, 0x43, 0x0b, 0x00, 0x40, 0x43, 0x03, 
  0x46, 0x08, 0x07, 0x4f, 0x0b, 0x28, 0x51, 0x09, 0x44, 0x48, 0x07, 0x00, 0x40, 0x6f, 0x9d, 0x30, 
  0x00, 0x0c, 0x2e, 0x62, 0x3b, 0x2e, 0x00, 0x11, 0x29, 0x62, 0x32, 0xed, 0x20, 0x40, 0x0a, 0x4a, 
  0x55, 0x06, 0x1a, 0x75, 0x04, 0x7f, 0x7f, 0x3c, 0x1d, 0x7b, 0x06, 0x56, 0x6d, 0x08, 0x6d, 0x5a, 
  0x08, 0x44, 0x48, 0x09, 0x00, 0x40, 0x81, 0x4c, 0x01, 0x42, 0x0b, 0x23, 0x46, 0x12, 0x01, 0x42, 
  0x08, 0x00, 0x40, 0x45, 0x02, 0x44, 0x08, 0x06, 0x4c, 0x0b, 0x49, 0x52, 0x04, 0x48, 0x51, 0x07, 
  0x65, 0x4a, 0x05, 0x61, 0x43, 0x08, 0x5f, 0x3f, 0x08, 0x00, 0x40, 0x51, 0x20, 0x40, 0x0d, 0x00, 
  0x40, 0x81, 0x75, 0x9d, 0x29, 0x00, 0x82, 0x27, 0xed, 0x26, 0x4d, 0x06, 0x16, 0x6d, 0x06, 0x7f, 
  0x7f, 0x43, 0x6f, 0x5f, 0x06, 0x00, 0x40, 0x81, 0x8a, 0x44, 0x9d, 0x35, 0x55, 0x40, 0x35, 0x00, 
  0x00, 0x37, 0x62, 0x40, 0x37, 0x00, 0x00, 0x39, 0x64, 0x40, 0x39, 0x00, 0x00, 0x3b, 0x7e, 0x81, 
  0x1c, 0xed, 0x60, 0x40, 0x05, 0x61, 0x42, 0x07, 0x22, 0x45, 0x09, 0x43, 0x47, 0x08, 0x45, 0x4a, 
  0x09, 0x06, 0x4d, 0x0a, 0x27, 0x4f, 0x06, 0x68, 0x51, 0x06, 0x49, 0x53, 0x06, 0x2a, 0x55, 0x0a, 
  0x2b, 0x57, 0x07, 0x6d, 0x5a, 0x0a, 0x2f, 0x5f, 0x0a, 0x71, 0x62, 0x05, 0x12, 0x65, 0x06, 0x53, 
  0x66, 0x06, 0x73, 0x66, 0x09, 0x33, 0x66, 0x08, 0x52, 0x64, 0x0b, 0x2f, 0x5f, 0x0a, 0x2a, 0x55, 
  0x05, 0x24, 0x49, 0x09, 0x40, 0x41, 0x07, 0x00, 0x40, 0x21, 0x9d, 0x3b, 0x00, 0x0a, 0x39, 0x43, 
  0x36, 0x39, 0x00, 0x00, 0x37, 0x5d, 0x40, 0x35, 0x55, 0x05, 0x37, 0x00, 0x4b, 0x30, 0x6f, 0x06, 
  0x35, 0x00, 0x81, 0x1a, 0x30, 0x00, 0x00, 0x30, 0x71, 0x30, 0x32, 0x71, 0x09, 0x30, 0x00, 0x57, 
  0xed, 0x60, 0x40, 0x0b, 0x21, 0x42, 0x06, 0x61, 0x42, 0x07, 0x41, 0x42, 0x0a, 0x40, 0x41, 0x07, 
  0x20, 0x40, 0x0b, 0x00, 0x40, 0x3d, 0x20, 0x41, 0x07, 0x01, 0x43, 0x07, 0x22, 0x44, 0x0a, 0x41, 
  0x42, 0x14, 0x00, 0x40, 0x2f, 0x02, 0x44, 0x05, 0x05, 0x4a, 0x04, 0x26, 0x4d, 0x08, 0x27, 0x4e, 
  0x0a, 0x26, 0x4d, 0x0a, 0x23, 0x46, 0x08, 0x5f, 0x3f, 0x0a, 0x00, 0x40, 0x28, 0x9d, 0x32, 0x00, 
  0x05, 0x32, 0x57, 0x65, 0xed, 0x40, 0x41, 0x09, 0x03, 0x47, 0x08, 0x46, 0x4d, 0x0a, 0x6b, 0x57, 
  0x06, 0x54, 0x68, 0x06, 0x5b, 0x76, 0x06, 0x5e, 0x7d, 0x08, 0x7f, 0x7f, 0x81, 0x50, 0x5f, 0x7e, 
  0x0a, 0x5d, 0x7a, 0x0a, 0x59, 0x73, 0x07, 0x15, 0x6a, 0x04, 0x71, 0x62, 0x06, 0x6f, 0x5e, 0x08, 
  0x2d, 0x5b, 0x09, 0x2b, 0x57, 0x14, 0x68, 0x51, 0x09, 0x65, 0x4b, 0x09, 0x02, 0x45, 0x07, 0x40, 
  0x40, 0x08, 0x00, 0x40, 0x0b, 0x9d, 0x32, 0x00, 0x05, 0x30, 0x50, 0x45, 0x2b, 0x43, 0x0c, 0x30, 
  0x00, 0x4a, 0x2b, 0x00, 0x00, 0x29, 0x43, 0x46, 0xed, 0x61, 0x42, 0x06, 0x03, 0x47, 0x04, 0x04, 
  0x49, 0x06, 0x45, 0x4a, 0x08, 0x05, 0x4b, 0x13, 0x45, 0x4a, 0x0a, 0x44, 0x48, 0x05, 0x22, 0x45, 
  0x05, 0x01, 0x42, 0x07, 0x40, 0x40, 0x07, 0x00, 0x40, 0x37, 0x22, 0x44, 0x0a, 0x25, 0x4b, 0x09, 
  0x69, 0x53, 0x09, 0x6d, 0x5b, 0x09, 0x4f, 0x5e, 0x07, 0x4e, 0x5c, 0x08, 0x0b, 0x57, 0x08, 0x48, 
  0x51, 0x07, 0x44, 0x49, 0x13, 0x21, 0x42, 0x07, 0x00, 0x40, 0x2d, 0x00, 0x41, 0x06, 0x42, 0x45, 
  0x03, 0x24, 0x49, 0x16, 0x65, 0x4b, 0x09, 0x07, 0x4e, 0x09, 0x66, 0x4d, 0x0b, 0x07, 0x4e, 0x04, 
  0x66, 0x4d, 0x07, 0x46, 0x4d, 0x06, 0x26, 0x4d, 0x09, 0x26, 0x4c, 0x08, 0x05, 0x4a, 0x14, 0x22, 
  0x45, 0x0d, 0x00, 0x41, 0x08, 0x00, 0x40, 0x13, 0x40, 0x41, 0x0a, 0x63, 0x47, 0x06, 0x48, 0x50, 
  0x04, 0x2a, 0x55, 0x07, 0x0b, 0x56, 0x11, 0x4a, 0x54, 0x09, 0x07, 0x4e, 0x06, 0x22, 0x44, 0x04, 
  0x00, 0x40, 0x32, 0x61, 0x42, 0x11, 0x65, 0x4b, 0x06, 0x29, 0x53, 0x06, 0x4a, 0x54, 0x08, 0x68, 
  0x51, 0x09, 0x06, 0x4c, 0x08, 0x42, 0x44, 0x0b, 0x00, 0x40, 0x28, 0x60, 0x40, 0x09, 0x03, 0x47, 
  0x06, 0x67, 0x4e, 0x05, 0x28, 0x51, 0x07, 0x48, 0x50, 0x06, 0x47, 0x4e, 0x0a, 0x23, 0x47, 0x0a, 
  0x60, 0x40, 0x0a, 0x00, 0x40, 0x16, 0x9d, 0x29, 0x00, 0x81, 0xb0, 0x23, 0xbd, 0x01, 0x00, 0x00, 
  0x40, 0x00, 0x92, 0x5d, 0x9d, 0x39, 0x6b, 0x66, 0xed, 0x20, 0x40, 0x07, 0x00, 0x41, 0x09, 0x60, 
  0x41, 0x07, 0x01, 0x43, 0x06, 0x02, 0x45, 0x06, 0x23, 0x47, 0x08, 0x44, 0x49, 0x0f, 0x27, 0x4f, 
  0x0b, 0x0b, 0x57, 0x06, 0x4e, 0x5c, 0x0b, 0x30, 0x60, 0x06, 0x70, 0x61, 0x0a, 0x31, 0x62, 0x0a, 
  0x10, 0x61, 0x06, 0x6e, 0x5c, 0x0b, 0x4b, 0x57, 0x06, 0x47, 0x4f, 0x07, 0x23, 0x47, 0x0b, 0x41, 
  0x42, 0x0b, 0x00, 0x40, 0x83, 0x12, 0x20, 0x40, 0x11, 0x00, 0x40, 0x4f, 0x9d, 0x39, 0x00, 0x17, 
  0x30, 0x5a, 0x38, 0xed, 0x29, 0x52, 0x05, 0x35, 0x6b, 0x06, 0x7c, 0x78, 0x09, 0x7f, 0x7f, 0x4c, 
  0x5f, 0x7e, 0x06, 0x57, 0x6f, 0x08, 0x0d, 0x5a, 0x03, 0x9d, 0x30, 0x00, 0x06, 0xed, 0x45, 0x4a, 
  0x07, 0x40, 0x41, 0x0a, 0x9d, 0x30, 0x67, 0x01, 0xed, 0x00, 0x40, 0x81, 0x56, 0x40, 0x40, 0x07, 
  0x02, 0x45, 0x0b, 0x64, 0x48, 0x06, 0x22, 0x44, 0x05, 0x5f, 0x3f, 0x06, 0x00, 0x40, 0x4e, 0x22, 
  0x44, 0x0a, 0x23, 0x47, 0x09, 0x01, 0x43, 0x0b, 0x00, 0x40, 0x43, 0x03, 0x46, 0x08, 0x07, 0x4f, 
  0x0b, 0x28, 0x51, 0x09, 0x44, 0x48, 0x07, 0x00, 0x40, 0x6f, 0x9d, 0x30, 0x00, 0x0c, 0x2e, 0x62, 
  0x3b, 0x2e, 0x00, 0x11, 0x29, 0x62, 0x32, 0xed, 0x20, 0x40, 0x0a, 0x4a, 0x55, 0x06, 0x1a, 0x75, 
  0x04, 0x7f, 0x7f, 0x3c, 0x1d, 0x7b, 0x06, 0x56, 0x6d, 0x08, 0x6d, 0x5a, 0x08, 0x44, 0x48, 0x09, 
  0x00, 0x40, 0x81, 0x4c, 0x01, 0x42, 0x0b, 0x23, 0x46, 0x12, 0x01, 0x42, 0x08, 0x00, 0x40, 0x45, 
  0x02, 0x44, 0x08, 0x06, 0x4c, 0x0b, 0x49, 0x52, 0x04, 0x48, 0x51, 0x07, 0x65, 0x4a, 0x05, 0x61, 
  0x43, 0x08, 0x5f, 0x3f, 0x08, 0x00, 0x40, 0x51, 0x20, 0x40, 0x0d, 0x00, 0x40, 0x81, 0x75, 0x9d, 
  0x29, 0x00, 0x82, 0x27, 0xed, 0x26, 0x4d, 0x06, 0x16, 0x6d, 0x06, 0x7f, 0x7f, 0x43, 0x6f, 0x5f, 
  0x06, 0x00, 0x40, 0x00, 0xff, 0x2f, 0x00, 0x4d, 0x54, 0x72, 0x6b, 0x00, 0x00, 0x00, 0xae, 0x00, 
  0xff, 0x03, 0x08, 0x46, 0x6c, 0x6f, 0x75, 0x72, 0x69, 0x73, 0x68, 0x00, 0xce, 0x0b, 0x00, 0xbe, 
  0x07, 0x6b, 0x00, 0x0a, 0x60, 0x00, 0x79, 0x00, 0x00, 0x5b, 0x20, 0x00, 0x5d, 0x00, 0x81, 0xf7, 
  0x40, 0x01, 0x00, 0x84, 0x36, 0x9e, 0x46, 0x65, 0x16, 0x52, 0x63, 0x85, 0x3c, 0x52, 0x00, 0x16, 
  0x46, 0x00, 0x18, 0x43, 0x57, 0x2e, 0x4f, 0x55, 0x82, 0x32, 0x4f, 0x00, 0x0e, 0x43, 0x00, 0x1c, 
  0x41, 0x56, 0x2a, 0x4d, 0x56, 0x85, 0x1a, 0x4d, 0x00, 0x22, 0x41, 0x00, 0xc0, 0x5a, 0xbe, 0x0a, 
  0x50, 0x84, 0x2c, 0x9e, 0x43, 0x60, 0x7a, 0x4f, 0x66, 0x86, 0x1a, 0x43, 0x00, 0x46, 0x4f, 0x00, 
  0x82, 0x5c, 0x43, 0x66, 0x44, 0x43, 0x00, 0x0a, 0x4f, 0x79, 0x32, 0x51, 0x6d, 0x20, 0x4f, 0x00, 
  0x82, 0x5a, 0x4f, 0x65, 0x1e, 0x51, 0x00, 0x34, 0x4d, 0x61, 0x0c, 0x4f, 0x00, 0x4c, 0x4c, 0x55, 
  0x3e, 0x4d, 0x00, 0x85, 0x64, 0x4c, 0x00, 0x89, 0x58, 0x37, 0x7f, 0x9b, 0x60, 0x37, 0x00, 0xe6, 
  0x60, 0x48, 0x7f, 0x20, 0x4d, 0x7f, 0x20, 0x4f, 0x7f, 0x20, 0x54, 0x7f, 0x88, 0x20, 0x48, 0x00, 
  0x00, 0x4d, 0x00, 0x00, 0x4f, 0x00, 0x00, 0x54, 0x00, 0x00, 0xff, 0x2f, 0x00
};

unsigned long read_var_len(unsigned char track_id) {
    unsigned long value = 0;
    register unsigned char c;
    do {
        c = *tracks[track_id].ptr++;
        value = (value << 7) | (c & 0x7F);
    } while (c & 0x80);
    return value;
}

void play_midi() {
    const unsigned char* base_ptr = midi_file;
    unsigned int format;
    register unsigned char i;
    unsigned long chunk_len;
    unsigned char tracks_running;
    unsigned long current_tick;
    
    if (base_ptr[0] != 'M' || base_ptr[1] != 'T') return;
    base_ptr += 8; 
    
    format = (base_ptr[0] << 8) | base_ptr[1]; base_ptr += 2;
    num_tracks = (base_ptr[0] << 8) | base_ptr[1]; base_ptr += 2;
    ppqn = (base_ptr[0] << 8) | base_ptr[1]; base_ptr += 2; 

    if (num_tracks > MAX_TRACKS) num_tracks = MAX_TRACKS;

    for(i=0; i<num_tracks; ++i) {
        while(!(base_ptr[0] == 'M' && base_ptr[1] == 'T' && base_ptr[2] == 'r' && base_ptr[3] == 'k')) {
            base_ptr++; 
        }
        base_ptr += 4; 
        
        chunk_len = ((unsigned long)base_ptr[0] << 24) | ((unsigned long)base_ptr[1] << 16) |
                    ((unsigned long)base_ptr[2] << 8) | base_ptr[3];
        base_ptr += 4;

        tracks[i].ptr = base_ptr;
        tracks[i].running_status = 0;
        tracks[i].finished = 0;
        tracks[i].absolute_event_time = read_var_len(i);
        
        base_ptr += chunk_len;
    }

    /* Initialize RS232 and IRQ */
    rs232_init();
    recalc_timing();
    set_irq(&irq_handler2, NULL, 0);
    
    /* Enable CIA1 Timer A Interrupts */
    __asm__("sei");
    CIA1_ICR = 0x81; 
    CIA1_CRA = 0x11; 
    __asm__("cli");

    /* Set Output to RS-232 Channel (Device 2) */
    cbm_k_ckout(2);

    while(1) {
        tracks_running = 0;
        
        current_tick = get_master_tick();

        for(i=0; i<num_tracks; ++i) {
            if (tracks[i].finished) continue;
            
            tracks_running = 1;

            while (!tracks[i].finished && current_tick >= tracks[i].absolute_event_time) {
                
                unsigned char status = *tracks[i].ptr++;
                
                if (status == 0xFF) {
                    /* Meta Events (Not sent to MIDI) */
                    unsigned char type = *tracks[i].ptr++;
                    unsigned long len = read_var_len(i);
                    
                    if (type == 0x2F) {
                        tracks[i].finished = 1;
                    } 
                    else if (type == 0x51 && len == 3) {
                        unsigned char t1 = *tracks[i].ptr++;
                        unsigned char t2 = *tracks[i].ptr++;
                        unsigned char t3 = *tracks[i].ptr++;
                        mpqn = ((unsigned long)t1 << 16) | ((unsigned int)t2 << 8) | t3;
                        recalc_timing();
                    }
                    else {
                        tracks[i].ptr += len;
                    }
                }
                else {
                    /* MIDI Events - Send via KERNAL RS232 */
                    unsigned char cmd;
                    unsigned char d1, d2;
                    
                    /* Handle Running Status */
                    if (status < 0x80) {
                        status = tracks[i].running_status;
                        tracks[i].ptr--; 
                    } else {
                        tracks[i].running_status = status;
                    }

                    cmd = status & 0xF0;

                    /* Send Status */
                    

                    if (cmd == 0x90 || cmd == 0x80 || cmd == 0xA0 || cmd == 0xB0 || cmd == 0xE0) {
                        /* 2 Data Bytes */
                        d1 = *tracks[i].ptr++;
                        d2 = *tracks[i].ptr++;
                        rs232_send(status);
                        rs232_send(d1);
                        rs232_send(d2);
                    }
                    else if (cmd == 0xC0 || cmd == 0xD0) {
                        /* 1 Data Byte */
                        d1 = *tracks[i].ptr++;
                        rs232_send(status);
                        rs232_send(d1);
                    }else {
                        tracks[i].ptr++;
                    }
                    /* SysEx (F0) omitted for brevity */
                }

                if (!tracks[i].finished) {
                    tracks[i].absolute_event_time += read_var_len(i);
                }
            }
        }

        if (!tracks_running) break; 
    }
    
    /* Reset Output to Default and Close RS232 */
    cbm_k_clrch();
    cbm_close(2);

    /* Cleanup IRQ */
    __asm__("sei");
    CIA1_CRA = 0x00;
    CIA1_ICR = 0x7F;
    __asm__("cli");
}

void main(void) {
    printf("%c", 147);
    printf("MIDI TO USER PORT (HW RS232)\n");
    printf("BAUD RATE: 2400\n");
    
    while(1) {
        play_midi();
        {
            unsigned int w = 60000L;
            while(w--) __asm__("nop");
        }
    }
}